<svg width="60" height="61" viewBox="0 0 60 61" fill="none" xmlns="http://www.w3.org/2000/svg">
<path d="M18.1538 31.7945H17.9195C17.3173 31.7945 17.0161 32.0919 17.0161 32.6867C17.0161 33.5938 17.4734 34.0474 18.388 34.0474C18.7672 34.0474 19.1352 34.0474 19.5144 34.0585C19.7375 34.0585 19.8156 33.9805 19.8379 33.7574C20.0498 31.8279 20.0275 31.7945 18.1538 31.7945ZM18.1538 31.7945H17.9195C17.3173 31.7945 17.0161 32.0919 17.0161 32.6867C17.0161 33.5938 17.4734 34.0474 18.388 34.0474C18.7672 34.0474 19.1352 34.0474 19.5144 34.0585C19.7375 34.0585 19.8156 33.9805 19.8379 33.7574C20.0498 31.8279 20.0275 31.7945 18.1538 31.7945ZM18.1538 31.7945H17.9195C17.3173 31.7945 17.0161 32.0919 17.0161 32.6867C17.0161 33.5938 17.4734 34.0474 18.388 34.0474C18.7672 34.0474 19.1352 34.0474 19.5144 34.0585C19.7375 34.0585 19.8156 33.9805 19.8379 33.7574C20.0498 31.8279 20.0275 31.7945 18.1538 31.7945ZM18.1538 31.7945H17.9195C17.3173 31.7945 17.0161 32.0919 17.0161 32.6867C17.0161 33.5938 17.4734 34.0474 18.388 34.0474C18.7672 34.0474 19.1352 34.0474 19.5144 34.0585C19.7375 34.0585 19.8156 33.9805 19.8379 33.7574C20.0498 31.8279 20.0275 31.7945 18.1538 31.7945ZM18.1538 31.7945H17.9195C17.3173 31.7945 17.0161 32.0919 17.0161 32.6867C17.0161 33.5938 17.4734 34.0474 18.388 34.0474C18.7672 34.0474 19.1352 34.0474 19.5144 34.0585C19.7375 34.0585 19.8156 33.9805 19.8379 33.7574C20.0498 31.8279 20.0275 31.7945 18.1538 31.7945ZM41.5752 31.7945C41.2406 31.7945 40.906 31.8168 40.5714 31.7945C40.2703 31.7722 40.1476 31.8614 40.1588 32.1848C40.1811 32.6979 40.1811 33.2109 40.1588 33.7239C40.1476 33.9805 40.248 34.0697 40.5045 34.0585C41.0176 34.0362 41.5306 34.0474 42.0436 34.0474C42.6459 34.0474 42.947 33.7537 42.947 33.1663C42.9545 32.2517 42.4972 31.7945 41.5752 31.7945ZM41.5752 31.7945C41.2406 31.7945 40.906 31.8168 40.5714 31.7945C40.2703 31.7722 40.1476 31.8614 40.1588 32.1848C40.1811 32.6979 40.1811 33.2109 40.1588 33.7239C40.1476 33.9805 40.248 34.0697 40.5045 34.0585C41.0176 34.0362 41.5306 34.0474 42.0436 34.0474C42.6459 34.0474 42.947 33.7537 42.947 33.1663C42.9545 32.2517 42.4972 31.7945 41.5752 31.7945ZM18.1538 31.7945H17.9195C17.3173 31.7945 17.0161 32.0919 17.0161 32.6867C17.0161 33.5938 17.4734 34.0474 18.388 34.0474C18.7672 34.0474 19.1352 34.0474 19.5144 34.0585C19.7375 34.0585 19.8156 33.9805 19.8379 33.7574C20.0498 31.8279 20.0275 31.7945 18.1538 31.7945ZM30.0206 15.8679C20.9309 15.8679 13.6033 23.2066 13.6033 32.3075C13.6033 41.4084 21.0089 48.7583 29.9983 48.736C39.0323 48.7137 46.4045 41.3192 46.3822 32.2963C46.3599 23.1954 39.0546 15.8567 30.0206 15.8679ZM29.831 18.1208C36.5898 18.0539 42.0325 22.7939 43.4935 28.2589H40.0472C39.6903 28.2589 39.3334 28.2478 38.9765 28.2701C37.9951 28.3035 37.0805 28.2589 36.2217 27.5563C35.4076 26.8871 34.3257 26.7421 33.2439 26.7421H26.7193C25.3475 26.731 24.1207 27.1659 23.0388 28.0024C22.8827 28.1251 22.76 28.2701 22.5369 28.2701C20.5182 28.2589 18.4995 28.2589 16.4808 28.2589C17.8972 22.9055 23.1838 18.1877 29.831 18.1208ZM36.6679 33.512C36.2329 35.04 35.7645 36.568 35.2849 38.0848C34.8164 39.557 33.5227 40.505 31.9278 40.5273C30.6675 40.5496 29.4072 40.5496 28.1358 40.5273C26.407 40.505 25.169 39.6016 24.656 37.951C24.1987 36.5011 23.7526 35.0512 23.3288 33.6013C22.615 31.1699 24.2433 29.0173 26.7751 29.0062C27.8458 28.995 28.9053 29.0062 29.976 29.0062C31.0467 29.0062 32.1843 28.995 33.2996 29.0062C35.7087 29.0285 37.337 31.1922 36.6679 33.512ZM15.9789 34.1812C15.8674 33.0994 15.7893 32.0175 15.912 30.9357C15.9455 30.6122 16.057 30.5119 16.3916 30.5119C17.8638 30.523 19.3471 30.5119 20.8305 30.523C21.0201 30.523 21.2655 30.4672 21.1539 30.813C20.6409 32.3633 20.9755 33.8466 21.4885 35.33C21.5443 35.475 21.5778 35.62 21.6558 35.8653C19.8156 35.4081 18.0757 34.9842 16.3358 34.5604C16.1127 34.5158 16.0012 34.4154 15.9789 34.1812ZM16.6704 36.9806C18.5776 37.4379 20.4067 37.884 22.2469 38.319C22.47 38.3748 22.4812 38.5532 22.5369 38.7205C22.9384 40.0143 23.6968 41.0404 24.801 41.8099C24.9348 41.8991 25.0687 41.9661 25.1021 42.1445C25.3475 43.3379 25.5929 44.5313 25.8382 45.7358C22.5927 45.0889 18.2541 41.7207 16.6704 36.9806ZM32.3739 43.1706C32.1397 44.1297 31.9501 45.1001 31.7717 46.0592C31.727 46.3046 31.6155 46.3827 31.3813 46.405C30.4556 46.5054 29.541 46.4942 28.6042 46.405C28.3365 46.3827 28.2473 46.2488 28.2027 46.0146C28.0131 45.0889 27.8235 44.1632 27.6116 43.2375C27.5335 42.8695 27.645 42.7691 28.0131 42.7802C28.6823 42.8137 29.3626 42.7914 30.0318 42.7914C30.701 42.7914 31.3701 42.8025 32.0393 42.7802C32.3293 42.7802 32.4631 42.8137 32.3739 43.1706ZM34.1361 45.7916C34.3815 44.5647 34.638 43.349 34.8834 42.1445C34.928 41.9438 35.0841 41.8657 35.2403 41.7541C36.311 41.018 37.0248 39.992 37.4374 38.7651C37.5043 38.5532 37.5378 38.3636 37.8055 38.2967C39.6123 37.8729 41.4079 37.4268 43.2928 36.9695C41.999 41.1742 38.0508 44.8101 34.1361 45.7916ZM43.7054 34.5493C41.9433 34.9619 40.1922 35.3969 38.352 35.8542C38.5639 34.8839 38.9319 34.0697 39.0435 33.1774C39.1661 32.2852 38.9988 31.4264 38.7646 30.523C40.4487 30.523 42.0771 30.523 43.7166 30.5119C43.9954 30.5119 44.04 30.6792 44.0512 30.8799C44.1404 31.9841 44.1627 33.0882 44.0066 34.1924C43.9731 34.3931 43.9174 34.4935 43.7054 34.5493ZM41.5752 31.7945C41.2406 31.7945 40.906 31.8168 40.5714 31.7945C40.2703 31.7722 40.1476 31.8614 40.1588 32.1848C40.1811 32.6979 40.1811 33.2109 40.1588 33.7239C40.1476 33.9805 40.248 34.0697 40.5045 34.0585C41.0176 34.0362 41.5306 34.0474 42.0436 34.0474C42.6459 34.0474 42.947 33.7537 42.947 33.1663C42.9545 32.2517 42.4972 31.7945 41.5752 31.7945ZM18.1538 31.7945H17.9195C17.3173 31.7945 17.0161 32.0919 17.0161 32.6867C17.0161 33.5938 17.4734 34.0474 18.388 34.0474C18.7672 34.0474 19.1352 34.0474 19.5144 34.0585C19.7375 34.0585 19.8156 33.9805 19.8379 33.7574C20.0498 31.8279 20.0275 31.7945 18.1538 31.7945ZM18.1538 31.7945H17.9195C17.3173 31.7945 17.0161 32.0919 17.0161 32.6867C17.0161 33.5938 17.4734 34.0474 18.388 34.0474C18.7672 34.0474 19.1352 34.0474 19.5144 34.0585C19.7375 34.0585 19.8156 33.9805 19.8379 33.7574C20.0498 31.8279 20.0275 31.7945 18.1538 31.7945ZM18.1538 31.7945H17.9195C17.3173 31.7945 17.0161 32.0919 17.0161 32.6867C17.0161 33.5938 17.4734 34.0474 18.388 34.0474C18.7672 34.0474 19.1352 34.0474 19.5144 34.0585C19.7375 34.0585 19.8156 33.9805 19.8379 33.7574C20.0498 31.8279 20.0275 31.7945 18.1538 31.7945ZM18.1538 31.7945H17.9195C17.3173 31.7945 17.0161 32.0919 17.0161 32.6867C17.0161 33.5938 17.4734 34.0474 18.388 34.0474C18.7672 34.0474 19.1352 34.0474 19.5144 34.0585C19.7375 34.0585 19.8156 33.9805 19.8379 33.7574C20.0498 31.8279 20.0275 31.7945 18.1538 31.7945ZM18.1538 31.7945H17.9195C17.3173 31.7945 17.0161 32.0919 17.0161 32.6867C17.0161 33.5938 17.4734 34.0474 18.388 34.0474C18.7672 34.0474 19.1352 34.0474 19.5144 34.0585C19.7375 34.0585 19.8156 33.9805 19.8379 33.7574C20.0498 31.8279 20.0275 31.7945 18.1538 31.7945ZM18.1538 31.7945H17.9195C17.3173 31.7945 17.0161 32.0919 17.0161 32.6867C17.0161 33.5938 17.4734 34.0474 18.388 34.0474C18.7672 34.0474 19.1352 34.0474 19.5144 34.0585C19.7375 34.0585 19.8156 33.9805 19.8379 33.7574C20.0498 31.8279 20.0275 31.7945 18.1538 31.7945ZM18.1538 31.7945H17.9195C17.3173 31.7945 17.0161 32.0919 17.0161 32.6867C17.0161 33.5938 17.4734 34.0474 18.388 34.0474C18.7672 34.0474 19.1352 34.0474 19.5144 34.0585C19.7375 34.0585 19.8156 33.9805 19.8379 33.7574C20.0498 31.8279 20.0275 31.7945 18.1538 31.7945ZM18.1538 31.7945H17.9195C17.3173 31.7945 17.0161 32.0919 17.0161 32.6867C17.0161 33.5938 17.4734 34.0474 18.388 34.0474C18.7672 34.0474 19.1352 34.0474 19.5144 34.0585C19.7375 34.0585 19.8156 33.9805 19.8379 33.7574C20.0498 31.8279 20.0275 31.7945 18.1538 31.7945ZM41.5752 31.7945C41.2406 31.7945 40.906 31.8168 40.5714 31.7945C40.2703 31.7722 40.1476 31.8614 40.1588 32.1848C40.1811 32.6979 40.1811 33.2109 40.1588 33.7239C40.1476 33.9805 40.248 34.0697 40.5045 34.0585C41.0176 34.0362 41.5306 34.0474 42.0436 34.0474C42.6459 34.0474 42.947 33.7537 42.947 33.1663C42.9545 32.2517 42.4972 31.7945 41.5752 31.7945ZM41.5752 31.7945C41.2406 31.7945 40.906 31.8168 40.5714 31.7945C40.2703 31.7722 40.1476 31.8614 40.1588 32.1848C40.1811 32.6979 40.1811 33.2109 40.1588 33.7239C40.1476 33.9805 40.248 34.0697 40.5045 34.0585C41.0176 34.0362 41.5306 34.0474 42.0436 34.0474C42.6459 34.0474 42.947 33.7537 42.947 33.1663C42.9545 32.2517 42.4972 31.7945 41.5752 31.7945ZM18.1538 31.7945H17.9195C17.3173 31.7945 17.0161 32.0919 17.0161 32.6867C17.0161 33.5938 17.4734 34.0474 18.388 34.0474C18.7672 34.0474 19.1352 34.0474 19.5144 34.0585C19.7375 34.0585 19.8156 33.9805 19.8379 33.7574C20.0498 31.8279 20.0275 31.7945 18.1538 31.7945ZM30.0206 15.8679C20.9309 15.8679 13.6033 23.2066 13.6033 32.3075C13.6033 41.4084 21.0089 48.7583 29.9983 48.736C39.0323 48.7137 46.4045 41.3192 46.3822 32.2963C46.3599 23.1954 39.0546 15.8567 30.0206 15.8679ZM29.831 18.1208C36.5898 18.0539 42.0325 22.7939 43.4935 28.2589H40.0472C39.6903 28.2589 39.3334 28.2478 38.9765 28.2701C37.9951 28.3035 37.0805 28.2589 36.2217 27.5563C35.4076 26.8871 34.3257 26.7421 33.2439 26.7421H26.7193C25.3475 26.731 24.1207 27.1659 23.0388 28.0024C22.8827 28.1251 22.76 28.2701 22.5369 28.2701C20.5182 28.2589 18.4995 28.2589 16.4808 28.2589C17.8972 22.9055 23.1838 18.1877 29.831 18.1208ZM36.6679 33.512C36.2329 35.04 35.7645 36.568 35.2849 38.0848C34.8164 39.557 33.5227 40.505 31.9278 40.5273C30.6675 40.5496 29.4072 40.5496 28.1358 40.5273C26.407 40.505 25.169 39.6016 24.656 37.951C24.1987 36.5011 23.7526 35.0512 23.3288 33.6013C22.615 31.1699 24.2433 29.0173 26.7751 29.0062C27.8458 28.995 28.9053 29.0062 29.976 29.0062C31.0467 29.0062 32.1843 28.995 33.2996 29.0062C35.7087 29.0285 37.337 31.1922 36.6679 33.512ZM15.9789 34.1812C15.8674 33.0994 15.7893 32.0175 15.912 30.9357C15.9455 30.6122 16.057 30.5119 16.3916 30.5119C17.8638 30.523 19.3471 30.5119 20.8305 30.523C21.0201 30.523 21.2655 30.4672 21.1539 30.813C20.6409 32.3633 20.9755 33.8466 21.4885 35.33C21.5443 35.475 21.5778 35.62 21.6558 35.8653C19.8156 35.4081 18.0757 34.9842 16.3358 34.5604C16.1127 34.5158 16.0012 34.4154 15.9789 34.1812ZM16.6704 36.9806C18.5776 37.4379 20.4067 37.884 22.2469 38.319C22.47 38.3748 22.4812 38.5532 22.5369 38.7205C22.9384 40.0143 23.6968 41.0404 24.801 41.8099C24.9348 41.8991 25.0687 41.9661 25.1021 42.1445C25.3475 43.3379 25.5929 44.5313 25.8382 45.7358C22.5927 45.0889 18.2541 41.7207 16.6704 36.9806ZM32.3739 43.1706C32.1397 44.1297 31.9501 45.1001 31.7717 46.0592C31.727 46.3046 31.6155 46.3827 31.3813 46.405C30.4556 46.5054 29.541 46.4942 28.6042 46.405C28.3365 46.3827 28.2473 46.2488 28.2027 46.0146C28.0131 45.0889 27.8235 44.1632 27.6116 43.2375C27.5335 42.8695 27.645 42.7691 28.0131 42.7802C28.6823 42.8137 29.3626 42.7914 30.0318 42.7914C30.701 42.7914 31.3701 42.8025 32.0393 42.7802C32.3293 42.7802 32.4631 42.8137 32.3739 43.1706ZM34.1361 45.7916C34.3815 44.5647 34.638 43.349 34.8834 42.1445C34.928 41.9438 35.0841 41.8657 35.2403 41.7541C36.311 41.018 37.0248 39.992 37.4374 38.7651C37.5043 38.5532 37.5378 38.3636 37.8055 38.2967C39.6123 37.8729 41.4079 37.4268 43.2928 36.9695C41.999 41.1742 38.0508 44.8101 34.1361 45.7916ZM43.7054 34.5493C41.9433 34.9619 40.1922 35.3969 38.352 35.8542C38.5639 34.8839 38.9319 34.0697 39.0435 33.1774C39.1661 32.2852 38.9988 31.4264 38.7646 30.523C40.4487 30.523 42.0771 30.523 43.7166 30.5119C43.9954 30.5119 44.04 30.6792 44.0512 30.8799C44.1404 31.9841 44.1627 33.0882 44.0066 34.1924C43.9731 34.3931 43.9174 34.4935 43.7054 34.5493ZM41.5752 31.7945C41.2406 31.7945 40.906 31.8168 40.5714 31.7945C40.2703 31.7722 40.1476 31.8614 40.1588 32.1848C40.1811 32.6979 40.1811 33.2109 40.1588 33.7239C40.1476 33.9805 40.248 34.0697 40.5045 34.0585C41.0176 34.0362 41.5306 34.0474 42.0436 34.0474C42.6459 34.0474 42.947 33.7537 42.947 33.1663C42.9545 32.2517 42.4972 31.7945 41.5752 31.7945ZM18.1538 31.7945H17.9195C17.3173 31.7945 17.0161 32.0919 17.0161 32.6867C17.0161 33.5938 17.4734 34.0474 18.388 34.0474C18.7672 34.0474 19.1352 34.0474 19.5144 34.0585C19.7375 34.0585 19.8156 33.9805 19.8379 33.7574C20.0498 31.8279 20.0275 31.7945 18.1538 31.7945ZM18.1538 31.7945H17.9195C17.3173 31.7945 17.0161 32.0919 17.0161 32.6867C17.0161 33.5938 17.4734 34.0474 18.388 34.0474C18.7672 34.0474 19.1352 34.0474 19.5144 34.0585C19.7375 34.0585 19.8156 33.9805 19.8379 33.7574C20.0498 31.8279 20.0275 31.7945 18.1538 31.7945ZM18.1538 31.7945H17.9195C17.3173 31.7945 17.0161 32.0919 17.0161 32.6867C17.0161 33.5938 17.4734 34.0474 18.388 34.0474C18.7672 34.0474 19.1352 34.0474 19.5144 34.0585C19.7375 34.0585 19.8156 33.9805 19.8379 33.7574C20.0498 31.8279 20.0275 31.7945 18.1538 31.7945ZM18.1538 31.7945H17.9195C17.3173 31.7945 17.0161 32.0919 17.0161 32.6867C17.0161 33.5938 17.4734 34.0474 18.388 34.0474C18.7672 34.0474 19.1352 34.0474 19.5144 34.0585C19.7375 34.0585 19.8156 33.9805 19.8379 33.7574C20.0498 31.8279 20.0275 31.7945 18.1538 31.7945ZM18.1538 31.7945H17.9195C17.3173 31.7945 17.0161 32.0919 17.0161 32.6867C17.0161 33.5938 17.4734 34.0474 18.388 34.0474C18.7672 34.0474 19.1352 34.0474 19.5144 34.0585C19.7375 34.0585 19.8156 33.9805 19.8379 33.7574C20.0498 31.8279 20.0275 31.7945 18.1538 31.7945ZM18.1538 31.7945H17.9195C17.3173 31.7945 17.0161 32.0919 17.0161 32.6867C17.0161 33.5938 17.4734 34.0474 18.388 34.0474C18.7672 34.0474 19.1352 34.0474 19.5144 34.0585C19.7375 34.0585 19.8156 33.9805 19.8379 33.7574C20.0498 31.8279 20.0275 31.7945 18.1538 31.7945ZM18.1538 31.7945H17.9195C17.3173 31.7945 17.0161 32.0919 17.0161 32.6867C17.0161 33.5938 17.4734 34.0474 18.388 34.0474C18.7672 34.0474 19.1352 34.0474 19.5144 34.0585C19.7375 34.0585 19.8156 33.9805 19.8379 33.7574C20.0498 31.8279 20.0275 31.7945 18.1538 31.7945ZM18.1538 31.7945H17.9195C17.3173 31.7945 17.0161 32.0919 17.0161 32.6867C17.0161 33.5938 17.4734 34.0474 18.388 34.0474C18.7672 34.0474 19.1352 34.0474 19.5144 34.0585C19.7375 34.0585 19.8156 33.9805 19.8379 33.7574C20.0498 31.8279 20.0275 31.7945 18.1538 31.7945ZM41.5752 31.7945C41.2406 31.7945 40.906 31.8168 40.5714 31.7945C40.2703 31.7722 40.1476 31.8614 40.1588 32.1848C40.1811 32.6979 40.1811 33.2109 40.1588 33.7239C40.1476 33.9805 40.248 34.0697 40.5045 34.0585C41.0176 34.0362 41.5306 34.0474 42.0436 34.0474C42.6459 34.0474 42.947 33.7537 42.947 33.1663C42.9545 32.2517 42.4972 31.7945 41.5752 31.7945ZM41.5752 31.7945C41.2406 31.7945 40.906 31.8168 40.5714 31.7945C40.2703 31.7722 40.1476 31.8614 40.1588 32.1848C40.1811 32.6979 40.1811 33.2109 40.1588 33.7239C40.1476 33.9805 40.248 34.0697 40.5045 34.0585C41.0176 34.0362 41.5306 34.0474 42.0436 34.0474C42.6459 34.0474 42.947 33.7537 42.947 33.1663C42.9545 32.2517 42.4972 31.7945 41.5752 31.7945ZM18.1538 31.7945H17.9195C17.3173 31.7945 17.0161 32.0919 17.0161 32.6867C17.0161 33.5938 17.4734 34.0474 18.388 34.0474C18.7672 34.0474 19.1352 34.0474 19.5144 34.0585C19.7375 34.0585 19.8156 33.9805 19.8379 33.7574C20.0498 31.8279 20.0275 31.7945 18.1538 31.7945ZM30.0206 15.8679C20.9309 15.8679 13.6033 23.2066 13.6033 32.3075C13.6033 41.4084 21.0089 48.7583 29.9983 48.736C39.0323 48.7137 46.4045 41.3192 46.3822 32.2963C46.3599 23.1954 39.0546 15.8567 30.0206 15.8679ZM29.831 18.1208C36.5898 18.0539 42.0325 22.7939 43.4935 28.2589H40.0472C39.6903 28.2589 39.3334 28.2478 38.9765 28.2701C37.9951 28.3035 37.0805 28.2589 36.2217 27.5563C35.4076 26.8871 34.3257 26.7421 33.2439 26.7421H26.7193C25.3475 26.731 24.1207 27.1659 23.0388 28.0024C22.8827 28.1251 22.76 28.2701 22.5369 28.2701C20.5182 28.2589 18.4995 28.2589 16.4808 28.2589C17.8972 22.9055 23.1838 18.1877 29.831 18.1208ZM36.6679 33.512C36.2329 35.04 35.7645 36.568 35.2849 38.0848C34.8164 39.557 33.5227 40.505 31.9278 40.5273C30.6675 40.5496 29.4072 40.5496 28.1358 40.5273C26.407 40.505 25.169 39.6016 24.656 37.951C24.1987 36.5011 23.7526 35.0512 23.3288 33.6013C22.615 31.1699 24.2433 29.0173 26.7751 29.0062C27.8458 28.995 28.9053 29.0062 29.976 29.0062C31.0467 29.0062 32.1843 28.995 33.2996 29.0062C35.7087 29.0285 37.337 31.1922 36.6679 33.512ZM15.9789 34.1812C15.8674 33.0994 15.7893 32.0175 15.912 30.9357C15.9455 30.6122 16.057 30.5119 16.3916 30.5119C17.8638 30.523 19.3471 30.5119 20.8305 30.523C21.0201 30.523 21.2655 30.4672 21.1539 30.813C20.6409 32.3633 20.9755 33.8466 21.4885 35.33C21.5443 35.475 21.5778 35.62 21.6558 35.8653C19.8156 35.4081 18.0757 34.9842 16.3358 34.5604C16.1127 34.5158 16.0012 34.4154 15.9789 34.1812ZM16.6704 36.9806C18.5776 37.4379 20.4067 37.884 22.2469 38.319C22.47 38.3748 22.4812 38.5532 22.5369 38.7205C22.9384 40.0143 23.6968 41.0404 24.801 41.8099C24.9348 41.8991 25.0687 41.9661 25.1021 42.1445C25.3475 43.3379 25.5929 44.5313 25.8382 45.7358C22.5927 45.0889 18.2541 41.7207 16.6704 36.9806ZM32.3739 43.1706C32.1397 44.1297 31.9501 45.1001 31.7717 46.0592C31.727 46.3046 31.6155 46.3827 31.3813 46.405C30.4556 46.5054 29.541 46.4942 28.6042 46.405C28.3365 46.3827 28.2473 46.2488 28.2027 46.0146C28.0131 45.0889 27.8235 44.1632 27.6116 43.2375C27.5335 42.8695 27.645 42.7691 28.0131 42.7802C28.6823 42.8137 29.3626 42.7914 30.0318 42.7914C30.701 42.7914 31.3701 42.8025 32.0393 42.7802C32.3293 42.7802 32.4631 42.8137 32.3739 43.1706ZM34.1361 45.7916C34.3815 44.5647 34.638 43.349 34.8834 42.1445C34.928 41.9438 35.0841 41.8657 35.2403 41.7541C36.311 41.018 37.0248 39.992 37.4374 38.7651C37.5043 38.5532 37.5378 38.3636 37.8055 38.2967C39.6123 37.8729 41.4079 37.4268 43.2928 36.9695C41.999 41.1742 38.0508 44.8101 34.1361 45.7916ZM43.7054 34.5493C41.9433 34.9619 40.1922 35.3969 38.352 35.8542C38.5639 34.8839 38.9319 34.0697 39.0435 33.1774C39.1661 32.2852 38.9988 31.4264 38.7646 30.523C40.4487 30.523 42.0771 30.523 43.7166 30.5119C43.9954 30.5119 44.04 30.6792 44.0512 30.8799C44.1404 31.9841 44.1627 33.0882 44.0066 34.1924C43.9731 34.3931 43.9174 34.4935 43.7054 34.5493ZM41.5752 31.7945C41.2406 31.7945 40.906 31.8168 40.5714 31.7945C40.2703 31.7722 40.1476 31.8614 40.1588 32.1848C40.1811 32.6979 40.1811 33.2109 40.1588 33.7239C40.1476 33.9805 40.248 34.0697 40.5045 34.0585C41.0176 34.0362 41.5306 34.0474 42.0436 34.0474C42.6459 34.0474 42.947 33.7537 42.947 33.1663C42.9545 32.2517 42.4972 31.7945 41.5752 31.7945ZM18.1538 31.7945H17.9195C17.3173 31.7945 17.0161 32.0919 17.0161 32.6867C17.0161 33.5938 17.4734 34.0474 18.388 34.0474C18.7672 34.0474 19.1352 34.0474 19.5144 34.0585C19.7375 34.0585 19.8156 33.9805 19.8379 33.7574C20.0498 31.8279 20.0275 31.7945 18.1538 31.7945ZM18.1538 31.7945H17.9195C17.3173 31.7945 17.0161 32.0919 17.0161 32.6867C17.0161 33.5938 17.4734 34.0474 18.388 34.0474C18.7672 34.0474 19.1352 34.0474 19.5144 34.0585C19.7375 34.0585 19.8156 33.9805 19.8379 33.7574C20.0498 31.8279 20.0275 31.7945 18.1538 31.7945ZM18.1538 31.7945H17.9195C17.3173 31.7945 17.0161 32.0919 17.0161 32.6867C17.0161 33.5938 17.4734 34.0474 18.388 34.0474C18.7672 34.0474 19.1352 34.0474 19.5144 34.0585C19.7375 34.0585 19.8156 33.9805 19.8379 33.7574C20.0498 31.8279 20.0275 31.7945 18.1538 31.7945ZM18.1538 31.7945H17.9195C17.3173 31.7945 17.0161 32.0919 17.0161 32.6867C17.0161 33.5938 17.4734 34.0474 18.388 34.0474C18.7672 34.0474 19.1352 34.0474 19.5144 34.0585C19.7375 34.0585 19.8156 33.9805 19.8379 33.7574C20.0498 31.8279 20.0275 31.7945 18.1538 31.7945ZM41.5752 31.7945C41.2406 31.7945 40.906 31.8168 40.5714 31.7945C40.2703 31.7722 40.1476 31.8614 40.1588 32.1848C40.1811 32.6979 40.1811 33.2109 40.1588 33.7239C40.1476 33.9805 40.248 34.0697 40.5045 34.0585C41.0176 34.0362 41.5306 34.0474 42.0436 34.0474C42.6459 34.0474 42.947 33.7537 42.947 33.1663C42.9545 32.2517 42.4972 31.7945 41.5752 31.7945ZM41.5752 31.7945C41.2406 31.7945 40.906 31.8168 40.5714 31.7945C40.2703 31.7722 40.1476 31.8614 40.1588 32.1848C40.1811 32.6979 40.1811 33.2109 40.1588 33.7239C40.1476 33.9805 40.248 34.0697 40.5045 34.0585C41.0176 34.0362 41.5306 34.0474 42.0436 34.0474C42.6459 34.0474 42.947 33.7537 42.947 33.1663C42.9545 32.2517 42.4972 31.7945 41.5752 31.7945ZM18.1538 31.7945H17.9195C17.3173 31.7945 17.0161 32.0919 17.0161 32.6867C17.0161 33.5938 17.4734 34.0474 18.388 34.0474C18.7672 34.0474 19.1352 34.0474 19.5144 34.0585C19.7375 34.0585 19.8156 33.9805 19.8379 33.7574C20.0498 31.8279 20.0275 31.7945 18.1538 31.7945ZM30.0206 15.8679C20.9309 15.8679 13.6033 23.2066 13.6033 32.3075C13.6033 41.4084 21.0089 48.7583 29.9983 48.736C39.0323 48.7137 46.4045 41.3192 46.3822 32.2963C46.3599 23.1954 39.0546 15.8567 30.0206 15.8679ZM29.831 18.1208C36.5898 18.0539 42.0325 22.7939 43.4935 28.2589H40.0472C39.6903 28.2589 39.3334 28.2478 38.9765 28.2701C37.9951 28.3035 37.0805 28.2589 36.2217 27.5563C35.4076 26.8871 34.3257 26.7421 33.2439 26.7421H26.7193C25.3475 26.731 24.1207 27.1659 23.0388 28.0024C22.8827 28.1251 22.76 28.2701 22.5369 28.2701C20.5182 28.2589 18.4995 28.2589 16.4808 28.2589C17.8972 22.9055 23.1838 18.1877 29.831 18.1208ZM36.6679 33.512C36.2329 35.04 35.7645 36.568 35.2849 38.0848C34.8164 39.557 33.5227 40.505 31.9278 40.5273C30.6675 40.5496 29.4072 40.5496 28.1358 40.5273C26.407 40.505 25.169 39.6016 24.656 37.951C24.1987 36.5011 23.7526 35.0512 23.3288 33.6013C22.615 31.1699 24.2433 29.0173 26.7751 29.0062C27.8458 28.995 28.9053 29.0062 29.976 29.0062C31.0467 29.0062 32.1843 28.995 33.2996 29.0062C35.7087 29.0285 37.337 31.1922 36.6679 33.512ZM15.9789 34.1812C15.8674 33.0994 15.7893 32.0175 15.912 30.9357C15.9455 30.6122 16.057 30.5119 16.3916 30.5119C17.8638 30.523 19.3471 30.5119 20.8305 30.523C21.0201 30.523 21.2655 30.4672 21.1539 30.813C20.6409 32.3633 20.9755 33.8466 21.4885 35.33C21.5443 35.475 21.5778 35.62 21.6558 35.8653C19.8156 35.4081 18.0757 34.9842 16.3358 34.5604C16.1127 34.5158 16.0012 34.4154 15.9789 34.1812ZM16.6704 36.9806C18.5776 37.4379 20.4067 37.884 22.2469 38.319C22.47 38.3748 22.4812 38.5532 22.5369 38.7205C22.9384 40.0143 23.6968 41.0404 24.801 41.8099C24.9348 41.8991 25.0687 41.9661 25.1021 42.1445C25.3475 43.3379 25.5929 44.5313 25.8382 45.7358C22.5927 45.0889 18.2541 41.7207 16.6704 36.9806ZM32.3739 43.1706C32.1397 44.1297 31.9501 45.1001 31.7717 46.0592C31.727 46.3046 31.6155 46.3827 31.3813 46.405C30.4556 46.5054 29.541 46.4942 28.6042 46.405C28.3365 46.3827 28.2473 46.2488 28.2027 46.0146C28.0131 45.0889 27.8235 44.1632 27.6116 43.2375C27.5335 42.8695 27.645 42.7691 28.0131 42.7802C28.6823 42.8137 29.3626 42.7914 30.0318 42.7914C30.701 42.7914 31.3701 42.8025 32.0393 42.7802C32.3293 42.7802 32.4631 42.8137 32.3739 43.1706ZM34.1361 45.7916C34.3815 44.5647 34.638 43.349 34.8834 42.1445C34.928 41.9438 35.0841 41.8657 35.2403 41.7541C36.311 41.018 37.0248 39.992 37.4374 38.7651C37.5043 38.5532 37.5378 38.3636 37.8055 38.2967C39.6123 37.8729 41.4079 37.4268 43.2928 36.9695C41.999 41.1742 38.0508 44.8101 34.1361 45.7916ZM43.7054 34.5493C41.9433 34.9619 40.1922 35.3969 38.352 35.8542C38.5639 34.8839 38.9319 34.0697 39.0435 33.1774C39.1661 32.2852 38.9988 31.4264 38.7646 30.523C40.4487 30.523 42.0771 30.523 43.7166 30.5119C43.9954 30.5119 44.04 30.6792 44.0512 30.8799C44.1404 31.9841 44.1627 33.0882 44.0066 34.1924C43.9731 34.3931 43.9174 34.4935 43.7054 34.5493ZM41.5752 31.7945C41.2406 31.7945 40.906 31.8168 40.5714 31.7945C40.2703 31.7722 40.1476 31.8614 40.1588 32.1848C40.1811 32.6979 40.1811 33.2109 40.1588 33.7239C40.1476 33.9805 40.248 34.0697 40.5045 34.0585C41.0176 34.0362 41.5306 34.0474 42.0436 34.0474C42.6459 34.0474 42.947 33.7537 42.947 33.1663C42.9545 32.2517 42.4972 31.7945 41.5752 31.7945ZM18.1538 31.7945H17.9195C17.3173 31.7945 17.0161 32.0919 17.0161 32.6867C17.0161 33.5938 17.4734 34.0474 18.388 34.0474C18.7672 34.0474 19.1352 34.0474 19.5144 34.0585C19.7375 34.0585 19.8156 33.9805 19.8379 33.7574C20.0498 31.8279 20.0275 31.7945 18.1538 31.7945ZM18.1538 31.7945H17.9195C17.3173 31.7945 17.0161 32.0919 17.0161 32.6867C17.0161 33.5938 17.4734 34.0474 18.388 34.0474C18.7672 34.0474 19.1352 34.0474 19.5144 34.0585C19.7375 34.0585 19.8156 33.9805 19.8379 33.7574C20.0498 31.8279 20.0275 31.7945 18.1538 31.7945ZM18.1538 31.7945H17.9195C17.3173 31.7945 17.0161 32.0919 17.0161 32.6867C17.0161 33.5938 17.4734 34.0474 18.388 34.0474C18.7672 34.0474 19.1352 34.0474 19.5144 34.0585C19.7375 34.0585 19.8156 33.9805 19.8379 33.7574C20.0498 31.8279 20.0275 31.7945 18.1538 31.7945ZM18.1538 31.7945H17.9195C17.3173 31.7945 17.0161 32.0919 17.0161 32.6867C17.0161 33.5938 17.4734 34.0474 18.388 34.0474C18.7672 34.0474 19.1352 34.0474 19.5144 34.0585C19.7375 34.0585 19.8156 33.9805 19.8379 33.7574C20.0498 31.8279 20.0275 31.7945 18.1538 31.7945ZM41.5752 31.7945C41.2406 31.7945 40.906 31.8168 40.5714 31.7945C40.2703 31.7722 40.1476 31.8614 40.1588 32.1848C40.1811 32.6979 40.1811 33.2109 40.1588 33.7239C40.1476 33.9805 40.248 34.0697 40.5045 34.0585C41.0176 34.0362 41.5306 34.0474 42.0436 34.0474C42.6459 34.0474 42.947 33.7537 42.947 33.1663C42.9545 32.2517 42.4972 31.7945 41.5752 31.7945ZM41.5752 31.7945C41.2406 31.7945 40.906 31.8168 40.5714 31.7945C40.2703 31.7722 40.1476 31.8614 40.1588 32.1848C40.1811 32.6979 40.1811 33.2109 40.1588 33.7239C40.1476 33.9805 40.248 34.0697 40.5045 34.0585C41.0176 34.0362 41.5306 34.0474 42.0436 34.0474C42.6459 34.0474 42.947 33.7537 42.947 33.1663C42.9545 32.2517 42.4972 31.7945 41.5752 31.7945ZM18.1538 31.7945H17.9195C17.3173 31.7945 17.0161 32.0919 17.0161 32.6867C17.0161 33.5938 17.4734 34.0474 18.388 34.0474C18.7672 34.0474 19.1352 34.0474 19.5144 34.0585C19.7375 34.0585 19.8156 33.9805 19.8379 33.7574C20.0498 31.8279 20.0275 31.7945 18.1538 31.7945ZM30.0206 15.8679C20.9309 15.8679 13.6033 23.2066 13.6033 32.3075C13.6033 41.4084 21.0089 48.7583 29.9983 48.736C39.0323 48.7137 46.4045 41.3192 46.3822 32.2963C46.3599 23.1954 39.0546 15.8567 30.0206 15.8679ZM29.831 18.1208C36.5898 18.0539 42.0325 22.7939 43.4935 28.2589H40.0472C39.6903 28.2589 39.3334 28.2478 38.9765 28.2701C37.9951 28.3035 37.0805 28.2589 36.2217 27.5563C35.4076 26.8871 34.3257 26.7421 33.2439 26.7421H26.7193C25.3475 26.731 24.1207 27.1659 23.0388 28.0024C22.8827 28.1251 22.76 28.2701 22.5369 28.2701C20.5182 28.2589 18.4995 28.2589 16.4808 28.2589C17.8972 22.9055 23.1838 18.1877 29.831 18.1208ZM36.6679 33.512C36.2329 35.04 35.7645 36.568 35.2849 38.0848C34.8164 39.557 33.5227 40.505 31.9278 40.5273C30.6675 40.5496 29.4072 40.5496 28.1358 40.5273C26.407 40.505 25.169 39.6016 24.656 37.951C24.1987 36.5011 23.7526 35.0512 23.3288 33.6013C22.615 31.1699 24.2433 29.0173 26.7751 29.0062C27.8458 28.995 28.9053 29.0062 29.976 29.0062C31.0467 29.0062 32.1843 28.995 33.2996 29.0062C35.7087 29.0285 37.337 31.1922 36.6679 33.512ZM15.9789 34.1812C15.8674 33.0994 15.7893 32.0175 15.912 30.9357C15.9455 30.6122 16.057 30.5119 16.3916 30.5119C17.8638 30.523 19.3471 30.5119 20.8305 30.523C21.0201 30.523 21.2655 30.4672 21.1539 30.813C20.6409 32.3633 20.9755 33.8466 21.4885 35.33C21.5443 35.475 21.5778 35.62 21.6558 35.8653C19.8156 35.4081 18.0757 34.9842 16.3358 34.5604C16.1127 34.5158 16.0012 34.4154 15.9789 34.1812ZM16.6704 36.9806C18.5776 37.4379 20.4067 37.884 22.2469 38.319C22.47 38.3748 22.4812 38.5532 22.5369 38.7205C22.9384 40.0143 23.6968 41.0404 24.801 41.8099C24.9348 41.8991 25.0687 41.9661 25.1021 42.1445C25.3475 43.3379 25.5929 44.5313 25.8382 45.7358C22.5927 45.0889 18.2541 41.7207 16.6704 36.9806ZM32.3739 43.1706C32.1397 44.1297 31.9501 45.1001 31.7717 46.0592C31.727 46.3046 31.6155 46.3827 31.3813 46.405C30.4556 46.5054 29.541 46.4942 28.6042 46.405C28.3365 46.3827 28.2473 46.2488 28.2027 46.0146C28.0131 45.0889 27.8235 44.1632 27.6116 43.2375C27.5335 42.8695 27.645 42.7691 28.0131 42.7802C28.6823 42.8137 29.3626 42.7914 30.0318 42.7914C30.701 42.7914 31.3701 42.8025 32.0393 42.7802C32.3293 42.7802 32.4631 42.8137 32.3739 43.1706ZM34.1361 45.7916C34.3815 44.5647 34.638 43.349 34.8834 42.1445C34.928 41.9438 35.0841 41.8657 35.2403 41.7541C36.311 41.018 37.0248 39.992 37.4374 38.7651C37.5043 38.5532 37.5378 38.3636 37.8055 38.2967C39.6123 37.8729 41.4079 37.4268 43.2928 36.9695C41.999 41.1742 38.0508 44.8101 34.1361 45.7916ZM43.7054 34.5493C41.9433 34.9619 40.1922 35.3969 38.352 35.8542C38.5639 34.8839 38.9319 34.0697 39.0435 33.1774C39.1661 32.2852 38.9988 31.4264 38.7646 30.523C40.4487 30.523 42.0771 30.523 43.7166 30.5119C43.9954 30.5119 44.04 30.6792 44.0512 30.8799C44.1404 31.9841 44.1627 33.0882 44.0066 34.1924C43.9731 34.3931 43.9174 34.4935 43.7054 34.5493ZM41.5752 31.7945C41.2406 31.7945 40.906 31.8168 40.5714 31.7945C40.2703 31.7722 40.1476 31.8614 40.1588 32.1848C40.1811 32.6979 40.1811 33.2109 40.1588 33.7239C40.1476 33.9805 40.248 34.0697 40.5045 34.0585C41.0176 34.0362 41.5306 34.0474 42.0436 34.0474C42.6459 34.0474 42.947 33.7537 42.947 33.1663C42.9545 32.2517 42.4972 31.7945 41.5752 31.7945ZM18.1538 31.7945H17.9195C17.3173 31.7945 17.0161 32.0919 17.0161 32.6867C17.0161 33.5938 17.4734 34.0474 18.388 34.0474C18.7672 34.0474 19.1352 34.0474 19.5144 34.0585C19.7375 34.0585 19.8156 33.9805 19.8379 33.7574C20.0498 31.8279 20.0275 31.7945 18.1538 31.7945ZM30.0206 15.8679C20.9309 15.8679 13.6033 23.2066 13.6033 32.3075C13.6033 41.4084 21.0089 48.7583 29.9983 48.736C39.0323 48.7137 46.4045 41.3192 46.3822 32.2963C46.3599 23.1954 39.0546 15.8567 30.0206 15.8679ZM29.831 18.1208C36.5898 18.0539 42.0325 22.7939 43.4935 28.2589H40.0472C39.6903 28.2589 39.3334 28.2478 38.9765 28.2701C37.9951 28.3035 37.0805 28.2589 36.2217 27.5563C35.4076 26.8871 34.3257 26.7421 33.2439 26.7421H26.7193C25.3475 26.731 24.1207 27.1659 23.0388 28.0024C22.8827 28.1251 22.76 28.2701 22.5369 28.2701C20.5182 28.2589 18.4995 28.2589 16.4808 28.2589C17.8972 22.9055 23.1838 18.1877 29.831 18.1208ZM36.6679 33.512C36.2329 35.04 35.7645 36.568 35.2849 38.0848C34.8164 39.557 33.5227 40.505 31.9278 40.5273C30.6675 40.5496 29.4072 40.5496 28.1358 40.5273C26.407 40.505 25.169 39.6016 24.656 37.951C24.1987 36.5011 23.7526 35.0512 23.3288 33.6013C22.615 31.1699 24.2433 29.0173 26.7751 29.0062C27.8458 28.995 28.9053 29.0062 29.976 29.0062C31.0467 29.0062 32.1843 28.995 33.2996 29.0062C35.7087 29.0285 37.337 31.1922 36.6679 33.512ZM15.9789 34.1812C15.8674 33.0994 15.7893 32.0175 15.912 30.9357C15.9455 30.6122 16.057 30.5119 16.3916 30.5119C17.8638 30.523 19.3471 30.5119 20.8305 30.523C21.0201 30.523 21.2655 30.4672 21.1539 30.813C20.6409 32.3633 20.9755 33.8466 21.4885 35.33C21.5443 35.475 21.5778 35.62 21.6558 35.8653C19.8156 35.4081 18.0757 34.9842 16.3358 34.5604C16.1127 34.5158 16.0012 34.4154 15.9789 34.1812ZM16.6704 36.9806C18.5776 37.4379 20.4067 37.884 22.2469 38.319C22.47 38.3748 22.4812 38.5532 22.5369 38.7205C22.9384 40.0143 23.6968 41.0404 24.801 41.8099C24.9348 41.8991 25.0687 41.9661 25.1021 42.1445C25.3475 43.3379 25.5929 44.5313 25.8382 45.7358C22.5927 45.0889 18.2541 41.7207 16.6704 36.9806ZM32.3739 43.1706C32.1397 44.1297 31.9501 45.1001 31.7717 46.0592C31.727 46.3046 31.6155 46.3827 31.3813 46.405C30.4556 46.5054 29.541 46.4942 28.6042 46.405C28.3365 46.3827 28.2473 46.2488 28.2027 46.0146C28.0131 45.0889 27.8235 44.1632 27.6116 43.2375C27.5335 42.8695 27.645 42.7691 28.0131 42.7802C28.6823 42.8137 29.3626 42.7914 30.0318 42.7914C30.701 42.7914 31.3701 42.8025 32.0393 42.7802C32.3293 42.7802 32.4631 42.8137 32.3739 43.1706ZM34.1361 45.7916C34.3815 44.5647 34.638 43.349 34.8834 42.1445C34.928 41.9438 35.0841 41.8657 35.2403 41.7541C36.311 41.018 37.0248 39.992 37.4374 38.7651C37.5043 38.5532 37.5378 38.3636 37.8055 38.2967C39.6123 37.8729 41.4079 37.4268 43.2928 36.9695C41.999 41.1742 38.0508 44.8101 34.1361 45.7916ZM43.7054 34.5493C41.9433 34.9619 40.1922 35.3969 38.352 35.8542C38.5639 34.8839 38.9319 34.0697 39.0435 33.1774C39.1661 32.2852 38.9988 31.4264 38.7646 30.523C40.4487 30.523 42.0771 30.523 43.7166 30.5119C43.9954 30.5119 44.04 30.6792 44.0512 30.8799C44.1404 31.9841 44.1627 33.0882 44.0066 34.1924C43.9731 34.3931 43.9174 34.4935 43.7054 34.5493ZM41.5752 31.7945C41.2406 31.7945 40.906 31.8168 40.5714 31.7945C40.2703 31.7722 40.1476 31.8614 40.1588 32.1848C40.1811 32.6979 40.1811 33.2109 40.1588 33.7239C40.1476 33.9805 40.248 34.0697 40.5045 34.0585C41.0176 34.0362 41.5306 34.0474 42.0436 34.0474C42.6459 34.0474 42.947 33.7537 42.947 33.1663C42.9545 32.2517 42.4972 31.7945 41.5752 31.7945ZM18.1538 31.7945H17.9195C17.3173 31.7945 17.0161 32.0919 17.0161 32.6867C17.0161 33.5938 17.4734 34.0474 18.388 34.0474C18.7672 34.0474 19.1352 34.0474 19.5144 34.0585C19.7375 34.0585 19.8156 33.9805 19.8379 33.7574C20.0498 31.8279 20.0275 31.7945 18.1538 31.7945ZM30.2771 12.4216C19.3471 12.3323 10.2128 21.121 10.1905 32.2517C10.1682 43.2152 19.0572 52.1377 29.9649 52.1377C40.8949 52.1488 49.7839 43.2487 49.795 32.2963C49.8062 21.4779 40.9283 12.5219 30.2771 12.4216ZM29.9649 49.8847C20.2282 49.8624 12.4211 41.9661 12.4434 32.1402C12.4434 22.5263 20.3955 14.6745 30.0764 14.6968C39.7238 14.7191 47.5644 22.6601 47.5421 32.3856C47.5086 42.033 39.6123 49.907 29.9649 49.8847ZM30.0206 15.8679C20.9309 15.8679 13.6033 23.2066 13.6033 32.3075C13.6033 41.4084 21.0089 48.7583 29.9983 48.736C39.0323 48.7137 46.4045 41.3192 46.3822 32.2963C46.3599 23.1954 39.0546 15.8567 30.0206 15.8679ZM29.831 18.1208C36.5898 18.0539 42.0325 22.7939 43.4935 28.2589H40.0472C39.6903 28.2589 39.3334 28.2478 38.9765 28.2701C37.9951 28.3035 37.0805 28.2589 36.2217 27.5563C35.4076 26.8871 34.3257 26.7421 33.2439 26.7421H26.7193C25.3475 26.731 24.1207 27.1659 23.0388 28.0024C22.8827 28.1251 22.76 28.2701 22.5369 28.2701C20.5182 28.2589 18.4995 28.2589 16.4808 28.2589C17.8972 22.9055 23.1838 18.1877 29.831 18.1208ZM36.6679 33.512C36.2329 35.04 35.7645 36.568 35.2849 38.0848C34.8164 39.557 33.5227 40.505 31.9278 40.5273C30.6675 40.5496 29.4072 40.5496 28.1358 40.5273C26.407 40.505 25.169 39.6016 24.656 37.951C24.1987 36.5011 23.7526 35.0512 23.3288 33.6013C22.615 31.1699 24.2433 29.0173 26.7751 29.0062C27.8458 28.995 28.9053 29.0062 29.976 29.0062C31.0467 29.0062 32.1843 28.995 33.2996 29.0062C35.7087 29.0285 37.337 31.1922 36.6679 33.512ZM15.9789 34.1812C15.8674 33.0994 15.7893 32.0175 15.912 30.9357C15.9455 30.6122 16.057 30.5119 16.3916 30.5119C17.8638 30.523 19.3471 30.5119 20.8305 30.523C21.0201 30.523 21.2655 30.4672 21.1539 30.813C20.6409 32.3633 20.9755 33.8466 21.4885 35.33C21.5443 35.475 21.5778 35.62 21.6558 35.8653C19.8156 35.4081 18.0757 34.9842 16.3358 34.5604C16.1127 34.5158 16.0012 34.4154 15.9789 34.1812ZM16.6704 36.9806C18.5776 37.4379 20.4067 37.884 22.2469 38.319C22.47 38.3748 22.4812 38.5532 22.5369 38.7205C22.9384 40.0143 23.6968 41.0404 24.801 41.8099C24.9348 41.8991 25.0687 41.9661 25.1021 42.1445C25.3475 43.3379 25.5929 44.5313 25.8382 45.7358C22.5927 45.0889 18.2541 41.7207 16.6704 36.9806ZM32.3739 43.1706C32.1397 44.1297 31.9501 45.1001 31.7717 46.0592C31.727 46.3046 31.6155 46.3827 31.3813 46.405C30.4556 46.5054 29.541 46.4942 28.6042 46.405C28.3365 46.3827 28.2473 46.2488 28.2027 46.0146C28.0131 45.0889 27.8235 44.1632 27.6116 43.2375C27.5335 42.8695 27.645 42.7691 28.0131 42.7802C28.6823 42.8137 29.3626 42.7914 30.0318 42.7914C30.701 42.7914 31.3701 42.8025 32.0393 42.7802C32.3293 42.7802 32.4631 42.8137 32.3739 43.1706ZM34.1361 45.7916C34.3815 44.5647 34.638 43.349 34.8834 42.1445C34.928 41.9438 35.0841 41.8657 35.2403 41.7541C36.311 41.018 37.0248 39.992 37.4374 38.7651C37.5043 38.5532 37.5378 38.3636 37.8055 38.2967C39.6123 37.8729 41.4079 37.4268 43.2928 36.9695C41.999 41.1742 38.0508 44.8101 34.1361 45.7916ZM43.7054 34.5493C41.9433 34.9619 40.1922 35.3969 38.352 35.8542C38.5639 34.8839 38.9319 34.0697 39.0435 33.1774C39.1661 32.2852 38.9988 31.4264 38.7646 30.523C40.4487 30.523 42.0771 30.523 43.7166 30.5119C43.9954 30.5119 44.04 30.6792 44.0512 30.8799C44.1404 31.9841 44.1627 33.0882 44.0066 34.1924C43.9731 34.3931 43.9174 34.4935 43.7054 34.5493ZM41.5752 31.7945C41.2406 31.7945 40.906 31.8168 40.5714 31.7945C40.2703 31.7722 40.1476 31.8614 40.1588 32.1848C40.1811 32.6979 40.1811 33.2109 40.1588 33.7239C40.1476 33.9805 40.248 34.0697 40.5045 34.0585C41.0176 34.0362 41.5306 34.0474 42.0436 34.0474C42.6459 34.0474 42.947 33.7537 42.947 33.1663C42.9545 32.2517 42.4972 31.7945 41.5752 31.7945ZM18.1538 31.7945H17.9195C17.3173 31.7945 17.0161 32.0919 17.0161 32.6867C17.0161 33.5938 17.4734 34.0474 18.388 34.0474C18.7672 34.0474 19.1352 34.0474 19.5144 34.0585C19.7375 34.0585 19.8156 33.9805 19.8379 33.7574C20.0498 31.8279 20.0275 31.7945 18.1538 31.7945ZM18.1538 31.7945H17.9195C17.3173 31.7945 17.0161 32.0919 17.0161 32.6867C17.0161 33.5938 17.4734 34.0474 18.388 34.0474C18.7672 34.0474 19.1352 34.0474 19.5144 34.0585C19.7375 34.0585 19.8156 33.9805 19.8379 33.7574C20.0498 31.8279 20.0275 31.7945 18.1538 31.7945ZM41.5752 31.7945C41.2406 31.7945 40.906 31.8168 40.5714 31.7945C40.2703 31.7722 40.1476 31.8614 40.1588 32.1848C40.1811 32.6979 40.1811 33.2109 40.1588 33.7239C40.1476 33.9805 40.248 34.0697 40.5045 34.0585C41.0176 34.0362 41.5306 34.0474 42.0436 34.0474C42.6459 34.0474 42.947 33.7537 42.947 33.1663C42.9545 32.2517 42.4972 31.7945 41.5752 31.7945ZM41.5752 31.7945C41.2406 31.7945 40.906 31.8168 40.5714 31.7945C40.2703 31.7722 40.1476 31.8614 40.1588 32.1848C40.1811 32.6979 40.1811 33.2109 40.1588 33.7239C40.1476 33.9805 40.248 34.0697 40.5045 34.0585C41.0176 34.0362 41.5306 34.0474 42.0436 34.0474C42.6459 34.0474 42.947 33.7537 42.947 33.1663C42.9545 32.2517 42.4972 31.7945 41.5752 31.7945ZM18.1538 31.7945H17.9195C17.3173 31.7945 17.0161 32.0919 17.0161 32.6867C17.0161 33.5938 17.4734 34.0474 18.388 34.0474C18.7672 34.0474 19.1352 34.0474 19.5144 34.0585C19.7375 34.0585 19.8156 33.9805 19.8379 33.7574C20.0498 31.8279 20.0275 31.7945 18.1538 31.7945ZM30.0206 15.8679C20.9309 15.8679 13.6033 23.2066 13.6033 32.3075C13.6033 41.4084 21.0089 48.7583 29.9983 48.736C39.0323 48.7137 46.4045 41.3192 46.3822 32.2963C46.3599 23.1954 39.0546 15.8567 30.0206 15.8679ZM29.831 18.1208C36.5898 18.0539 42.0325 22.7939 43.4935 28.2589H40.0472C39.6903 28.2589 39.3334 28.2478 38.9765 28.2701C37.9951 28.3035 37.0805 28.2589 36.2217 27.5563C35.4076 26.8871 34.3257 26.7421 33.2439 26.7421H26.7193C25.3475 26.731 24.1207 27.1659 23.0388 28.0024C22.8827 28.1251 22.76 28.2701 22.5369 28.2701C20.5182 28.2589 18.4995 28.2589 16.4808 28.2589C17.8972 22.9055 23.1838 18.1877 29.831 18.1208ZM36.6679 33.512C36.2329 35.04 35.7645 36.568 35.2849 38.0848C34.8164 39.557 33.5227 40.505 31.9278 40.5273C30.6675 40.5496 29.4072 40.5496 28.1358 40.5273C26.407 40.505 25.169 39.6016 24.656 37.951C24.1987 36.5011 23.7526 35.0512 23.3288 33.6013C22.615 31.1699 24.2433 29.0173 26.7751 29.0062C27.8458 28.995 28.9053 29.0062 29.976 29.0062C31.0467 29.0062 32.1843 28.995 33.2996 29.0062C35.7087 29.0285 37.337 31.1922 36.6679 33.512ZM15.9789 34.1812C15.8674 33.0994 15.7893 32.0175 15.912 30.9357C15.9455 30.6122 16.057 30.5119 16.3916 30.5119C17.8638 30.523 19.3471 30.5119 20.8305 30.523C21.0201 30.523 21.2655 30.4672 21.1539 30.813C20.6409 32.3633 20.9755 33.8466 21.4885 35.33C21.5443 35.475 21.5778 35.62 21.6558 35.8653C19.8156 35.4081 18.0757 34.9842 16.3358 34.5604C16.1127 34.5158 16.0012 34.4154 15.9789 34.1812ZM16.6704 36.9806C18.5776 37.4379 20.4067 37.884 22.2469 38.319C22.47 38.3748 22.4812 38.5532 22.5369 38.7205C22.9384 40.0143 23.6968 41.0404 24.801 41.8099C24.9348 41.8991 25.0687 41.9661 25.1021 42.1445C25.3475 43.3379 25.5929 44.5313 25.8382 45.7358C22.5927 45.0889 18.2541 41.7207 16.6704 36.9806ZM32.3739 43.1706C32.1397 44.1297 31.9501 45.1001 31.7717 46.0592C31.727 46.3046 31.6155 46.3827 31.3813 46.405C30.4556 46.5054 29.541 46.4942 28.6042 46.405C28.3365 46.3827 28.2473 46.2488 28.2027 46.0146C28.0131 45.0889 27.8235 44.1632 27.6116 43.2375C27.5335 42.8695 27.645 42.7691 28.0131 42.7802C28.6823 42.8137 29.3626 42.7914 30.0318 42.7914C30.701 42.7914 31.3701 42.8025 32.0393 42.7802C32.3293 42.7802 32.4631 42.8137 32.3739 43.1706ZM34.1361 45.7916C34.3815 44.5647 34.638 43.349 34.8834 42.1445C34.928 41.9438 35.0841 41.8657 35.2403 41.7541C36.311 41.018 37.0248 39.992 37.4374 38.7651C37.5043 38.5532 37.5378 38.3636 37.8055 38.2967C39.6123 37.8729 41.4079 37.4268 43.2928 36.9695C41.999 41.1742 38.0508 44.8101 34.1361 45.7916ZM43.7054 34.5493C41.9433 34.9619 40.1922 35.3969 38.352 35.8542C38.5639 34.8839 38.9319 34.0697 39.0435 33.1774C39.1661 32.2852 38.9988 31.4264 38.7646 30.523C40.4487 30.523 42.0771 30.523 43.7166 30.5119C43.9954 30.5119 44.04 30.6792 44.0512 30.8799C44.1404 31.9841 44.1627 33.0882 44.0066 34.1924C43.9731 34.3931 43.9174 34.4935 43.7054 34.5493ZM41.5752 31.7945C41.2406 31.7945 40.906 31.8168 40.5714 31.7945C40.2703 31.7722 40.1476 31.8614 40.1588 32.1848C40.1811 32.6979 40.1811 33.2109 40.1588 33.7239C40.1476 33.9805 40.248 34.0697 40.5045 34.0585C41.0176 34.0362 41.5306 34.0474 42.0436 34.0474C42.6459 34.0474 42.947 33.7537 42.947 33.1663C42.9545 32.2517 42.4972 31.7945 41.5752 31.7945ZM18.1538 31.7945H17.9195C17.3173 31.7945 17.0161 32.0919 17.0161 32.6867C17.0161 33.5938 17.4734 34.0474 18.388 34.0474C18.7672 34.0474 19.1352 34.0474 19.5144 34.0585C19.7375 34.0585 19.8156 33.9805 19.8379 33.7574C20.0498 31.8279 20.0275 31.7945 18.1538 31.7945ZM18.1538 31.7945H17.9195C17.3173 31.7945 17.0161 32.0919 17.0161 32.6867C17.0161 33.5938 17.4734 34.0474 18.388 34.0474C18.7672 34.0474 19.1352 34.0474 19.5144 34.0585C19.7375 34.0585 19.8156 33.9805 19.8379 33.7574C20.0498 31.8279 20.0275 31.7945 18.1538 31.7945ZM41.5752 31.7945C41.2406 31.7945 40.906 31.8168 40.5714 31.7945C40.2703 31.7722 40.1476 31.8614 40.1588 32.1848C40.1811 32.6979 40.1811 33.2109 40.1588 33.7239C40.1476 33.9805 40.248 34.0697 40.5045 34.0585C41.0176 34.0362 41.5306 34.0474 42.0436 34.0474C42.6459 34.0474 42.947 33.7537 42.947 33.1663C42.9545 32.2517 42.4972 31.7945 41.5752 31.7945ZM41.5752 31.7945C41.2406 31.7945 40.906 31.8168 40.5714 31.7945C40.2703 31.7722 40.1476 31.8614 40.1588 32.1848C40.1811 32.6979 40.1811 33.2109 40.1588 33.7239C40.1476 33.9805 40.248 34.0697 40.5045 34.0585C41.0176 34.0362 41.5306 34.0474 42.0436 34.0474C42.6459 34.0474 42.947 33.7537 42.947 33.1663C42.9545 32.2517 42.4972 31.7945 41.5752 31.7945ZM18.1538 31.7945H17.9195C17.3173 31.7945 17.0161 32.0919 17.0161 32.6867C17.0161 33.5938 17.4734 34.0474 18.388 34.0474C18.7672 34.0474 19.1352 34.0474 19.5144 34.0585C19.7375 34.0585 19.8156 33.9805 19.8379 33.7574C20.0498 31.8279 20.0275 31.7945 18.1538 31.7945ZM30.0206 15.8679C20.9309 15.8679 13.6033 23.2066 13.6033 32.3075C13.6033 41.4084 21.0089 48.7583 29.9983 48.736C39.0323 48.7137 46.4045 41.3192 46.3822 32.2963C46.3599 23.1954 39.0546 15.8567 30.0206 15.8679ZM29.831 18.1208C36.5898 18.0539 42.0325 22.7939 43.4935 28.2589H40.0472C39.6903 28.2589 39.3334 28.2478 38.9765 28.2701C37.9951 28.3035 37.0805 28.2589 36.2217 27.5563C35.4076 26.8871 34.3257 26.7421 33.2439 26.7421H26.7193C25.3475 26.731 24.1207 27.1659 23.0388 28.0024C22.8827 28.1251 22.76 28.2701 22.5369 28.2701C20.5182 28.2589 18.4995 28.2589 16.4808 28.2589C17.8972 22.9055 23.1838 18.1877 29.831 18.1208ZM36.6679 33.512C36.2329 35.04 35.7645 36.568 35.2849 38.0848C34.8164 39.557 33.5227 40.505 31.9278 40.5273C30.6675 40.5496 29.4072 40.5496 28.1358 40.5273C26.407 40.505 25.169 39.6016 24.656 37.951C24.1987 36.5011 23.7526 35.0512 23.3288 33.6013C22.615 31.1699 24.2433 29.0173 26.7751 29.0062C27.8458 28.995 28.9053 29.0062 29.976 29.0062C31.0467 29.0062 32.1843 28.995 33.2996 29.0062C35.7087 29.0285 37.337 31.1922 36.6679 33.512ZM15.9789 34.1812C15.8674 33.0994 15.7893 32.0175 15.912 30.9357C15.9455 30.6122 16.057 30.5119 16.3916 30.5119C17.8638 30.523 19.3471 30.5119 20.8305 30.523C21.0201 30.523 21.2655 30.4672 21.1539 30.813C20.6409 32.3633 20.9755 33.8466 21.4885 35.33C21.5443 35.475 21.5778 35.62 21.6558 35.8653C19.8156 35.4081 18.0757 34.9842 16.3358 34.5604C16.1127 34.5158 16.0012 34.4154 15.9789 34.1812ZM16.6704 36.9806C18.5776 37.4379 20.4067 37.884 22.2469 38.319C22.47 38.3748 22.4812 38.5532 22.5369 38.7205C22.9384 40.0143 23.6968 41.0404 24.801 41.8099C24.9348 41.8991 25.0687 41.9661 25.1021 42.1445C25.3475 43.3379 25.5929 44.5313 25.8382 45.7358C22.5927 45.0889 18.2541 41.7207 16.6704 36.9806ZM32.3739 43.1706C32.1397 44.1297 31.9501 45.1001 31.7717 46.0592C31.727 46.3046 31.6155 46.3827 31.3813 46.405C30.4556 46.5054 29.541 46.4942 28.6042 46.405C28.3365 46.3827 28.2473 46.2488 28.2027 46.0146C28.0131 45.0889 27.8235 44.1632 27.6116 43.2375C27.5335 42.8695 27.645 42.7691 28.0131 42.7802C28.6823 42.8137 29.3626 42.7914 30.0318 42.7914C30.701 42.7914 31.3701 42.8025 32.0393 42.7802C32.3293 42.7802 32.4631 42.8137 32.3739 43.1706ZM34.1361 45.7916C34.3815 44.5647 34.638 43.349 34.8834 42.1445C34.928 41.9438 35.0841 41.8657 35.2403 41.7541C36.311 41.018 37.0248 39.992 37.4374 38.7651C37.5043 38.5532 37.5378 38.3636 37.8055 38.2967C39.6123 37.8729 41.4079 37.4268 43.2928 36.9695C41.999 41.1742 38.0508 44.8101 34.1361 45.7916ZM43.7054 34.5493C41.9433 34.9619 40.1922 35.3969 38.352 35.8542C38.5639 34.8839 38.9319 34.0697 39.0435 33.1774C39.1661 32.2852 38.9988 31.4264 38.7646 30.523C40.4487 30.523 42.0771 30.523 43.7166 30.5119C43.9954 30.5119 44.04 30.6792 44.0512 30.8799C44.1404 31.9841 44.1627 33.0882 44.0066 34.1924C43.9731 34.3931 43.9174 34.4935 43.7054 34.5493ZM41.5752 31.7945C41.2406 31.7945 40.906 31.8168 40.5714 31.7945C40.2703 31.7722 40.1476 31.8614 40.1588 32.1848C40.1811 32.6979 40.1811 33.2109 40.1588 33.7239C40.1476 33.9805 40.248 34.0697 40.5045 34.0585C41.0176 34.0362 41.5306 34.0474 42.0436 34.0474C42.6459 34.0474 42.947 33.7537 42.947 33.1663C42.9545 32.2517 42.4972 31.7945 41.5752 31.7945ZM18.1538 31.7945H17.9195C17.3173 31.7945 17.0161 32.0919 17.0161 32.6867C17.0161 33.5938 17.4734 34.0474 18.388 34.0474C18.7672 34.0474 19.1352 34.0474 19.5144 34.0585C19.7375 34.0585 19.8156 33.9805 19.8379 33.7574C20.0498 31.8279 20.0275 31.7945 18.1538 31.7945ZM18.1538 31.7945H17.9195C17.3173 31.7945 17.0161 32.0919 17.0161 32.6867C17.0161 33.5938 17.4734 34.0474 18.388 34.0474C18.7672 34.0474 19.1352 34.0474 19.5144 34.0585C19.7375 34.0585 19.8156 33.9805 19.8379 33.7574C20.0498 31.8279 20.0275 31.7945 18.1538 31.7945ZM18.1538 31.7945H17.9195C17.3173 31.7945 17.0161 32.0919 17.0161 32.6867C17.0161 33.5938 17.4734 34.0474 18.388 34.0474C18.7672 34.0474 19.1352 34.0474 19.5144 34.0585C19.7375 34.0585 19.8156 33.9805 19.8379 33.7574C20.0498 31.8279 20.0275 31.7945 18.1538 31.7945ZM18.1538 31.7945H17.9195C17.3173 31.7945 17.0161 32.0919 17.0161 32.6867C17.0161 33.5938 17.4734 34.0474 18.388 34.0474C18.7672 34.0474 19.1352 34.0474 19.5144 34.0585C19.7375 34.0585 19.8156 33.9805 19.8379 33.7574C20.0498 31.8279 20.0275 31.7945 18.1538 31.7945ZM18.1538 31.7945H17.9195C17.3173 31.7945 17.0161 32.0919 17.0161 32.6867C17.0161 33.5938 17.4734 34.0474 18.388 34.0474C18.7672 34.0474 19.1352 34.0474 19.5144 34.0585C19.7375 34.0585 19.8156 33.9805 19.8379 33.7574C20.0498 31.8279 20.0275 31.7945 18.1538 31.7945ZM18.1538 31.7945H17.9195C17.3173 31.7945 17.0161 32.0919 17.0161 32.6867C17.0161 33.5938 17.4734 34.0474 18.388 34.0474C18.7672 34.0474 19.1352 34.0474 19.5144 34.0585C19.7375 34.0585 19.8156 33.9805 19.8379 33.7574C20.0498 31.8279 20.0275 31.7945 18.1538 31.7945ZM41.5752 31.7945C41.2406 31.7945 40.906 31.8168 40.5714 31.7945C40.2703 31.7722 40.1476 31.8614 40.1588 32.1848C40.1811 32.6979 40.1811 33.2109 40.1588 33.7239C40.1476 33.9805 40.248 34.0697 40.5045 34.0585C41.0176 34.0362 41.5306 34.0474 42.0436 34.0474C42.6459 34.0474 42.947 33.7537 42.947 33.1663C42.9545 32.2517 42.4972 31.7945 41.5752 31.7945ZM41.5752 31.7945C41.2406 31.7945 40.906 31.8168 40.5714 31.7945C40.2703 31.7722 40.1476 31.8614 40.1588 32.1848C40.1811 32.6979 40.1811 33.2109 40.1588 33.7239C40.1476 33.9805 40.248 34.0697 40.5045 34.0585C41.0176 34.0362 41.5306 34.0474 42.0436 34.0474C42.6459 34.0474 42.947 33.7537 42.947 33.1663C42.9545 32.2517 42.4972 31.7945 41.5752 31.7945ZM18.1538 31.7945H17.9195C17.3173 31.7945 17.0161 32.0919 17.0161 32.6867C17.0161 33.5938 17.4734 34.0474 18.388 34.0474C18.7672 34.0474 19.1352 34.0474 19.5144 34.0585C19.7375 34.0585 19.8156 33.9805 19.8379 33.7574C20.0498 31.8279 20.0275 31.7945 18.1538 31.7945ZM30.0206 15.8679C20.9309 15.8679 13.6033 23.2066 13.6033 32.3075C13.6033 41.4084 21.0089 48.7583 29.9983 48.736C39.0323 48.7137 46.4045 41.3192 46.3822 32.2963C46.3599 23.1954 39.0546 15.8567 30.0206 15.8679ZM29.831 18.1208C36.5898 18.0539 42.0325 22.7939 43.4935 28.2589H40.0472C39.6903 28.2589 39.3334 28.2478 38.9765 28.2701C37.9951 28.3035 37.0805 28.2589 36.2217 27.5563C35.4076 26.8871 34.3257 26.7421 33.2439 26.7421H26.7193C25.3475 26.731 24.1207 27.1659 23.0388 28.0024C22.8827 28.1251 22.76 28.2701 22.5369 28.2701C20.5182 28.2589 18.4995 28.2589 16.4808 28.2589C17.8972 22.9055 23.1838 18.1877 29.831 18.1208ZM36.6679 33.512C36.2329 35.04 35.7645 36.568 35.2849 38.0848C34.8164 39.557 33.5227 40.505 31.9278 40.5273C30.6675 40.5496 29.4072 40.5496 28.1358 40.5273C26.407 40.505 25.169 39.6016 24.656 37.951C24.1987 36.5011 23.7526 35.0512 23.3288 33.6013C22.615 31.1699 24.2433 29.0173 26.7751 29.0062C27.8458 28.995 28.9053 29.0062 29.976 29.0062C31.0467 29.0062 32.1843 28.995 33.2996 29.0062C35.7087 29.0285 37.337 31.1922 36.6679 33.512ZM15.9789 34.1812C15.8674 33.0994 15.7893 32.0175 15.912 30.9357C15.9455 30.6122 16.057 30.5119 16.3916 30.5119C17.8638 30.523 19.3471 30.5119 20.8305 30.523C21.0201 30.523 21.2655 30.4672 21.1539 30.813C20.6409 32.3633 20.9755 33.8466 21.4885 35.33C21.5443 35.475 21.5778 35.62 21.6558 35.8653C19.8156 35.4081 18.0757 34.9842 16.3358 34.5604C16.1127 34.5158 16.0012 34.4154 15.9789 34.1812ZM16.6704 36.9806C18.5776 37.4379 20.4067 37.884 22.2469 38.319C22.47 38.3748 22.4812 38.5532 22.5369 38.7205C22.9384 40.0143 23.6968 41.0404 24.801 41.8099C24.9348 41.8991 25.0687 41.9661 25.1021 42.1445C25.3475 43.3379 25.5929 44.5313 25.8382 45.7358C22.5927 45.0889 18.2541 41.7207 16.6704 36.9806ZM32.3739 43.1706C32.1397 44.1297 31.9501 45.1001 31.7717 46.0592C31.727 46.3046 31.6155 46.3827 31.3813 46.405C30.4556 46.5054 29.541 46.4942 28.6042 46.405C28.3365 46.3827 28.2473 46.2488 28.2027 46.0146C28.0131 45.0889 27.8235 44.1632 27.6116 43.2375C27.5335 42.8695 27.645 42.7691 28.0131 42.7802C28.6823 42.8137 29.3626 42.7914 30.0318 42.7914C30.701 42.7914 31.3701 42.8025 32.0393 42.7802C32.3293 42.7802 32.4631 42.8137 32.3739 43.1706ZM34.1361 45.7916C34.3815 44.5647 34.638 43.349 34.8834 42.1445C34.928 41.9438 35.0841 41.8657 35.2403 41.7541C36.311 41.018 37.0248 39.992 37.4374 38.7651C37.5043 38.5532 37.5378 38.3636 37.8055 38.2967C39.6123 37.8729 41.4079 37.4268 43.2928 36.9695C41.999 41.1742 38.0508 44.8101 34.1361 45.7916ZM43.7054 34.5493C41.9433 34.9619 40.1922 35.3969 38.352 35.8542C38.5639 34.8839 38.9319 34.0697 39.0435 33.1774C39.1661 32.2852 38.9988 31.4264 38.7646 30.523C40.4487 30.523 42.0771 30.523 43.7166 30.5119C43.9954 30.5119 44.04 30.6792 44.0512 30.8799C44.1404 31.9841 44.1627 33.0882 44.0066 34.1924C43.9731 34.3931 43.9174 34.4935 43.7054 34.5493ZM41.5752 31.7945C41.2406 31.7945 40.906 31.8168 40.5714 31.7945C40.2703 31.7722 40.1476 31.8614 40.1588 32.1848C40.1811 32.6979 40.1811 33.2109 40.1588 33.7239C40.1476 33.9805 40.248 34.0697 40.5045 34.0585C41.0176 34.0362 41.5306 34.0474 42.0436 34.0474C42.6459 34.0474 42.947 33.7537 42.947 33.1663C42.9545 32.2517 42.4972 31.7945 41.5752 31.7945ZM18.1538 31.7945H17.9195C17.3173 31.7945 17.0161 32.0919 17.0161 32.6867C17.0161 33.5938 17.4734 34.0474 18.388 34.0474C18.7672 34.0474 19.1352 34.0474 19.5144 34.0585C19.7375 34.0585 19.8156 33.9805 19.8379 33.7574C20.0498 31.8279 20.0275 31.7945 18.1538 31.7945ZM18.1538 31.7945H17.9195C17.3173 31.7945 17.0161 32.0919 17.0161 32.6867C17.0161 33.5938 17.4734 34.0474 18.388 34.0474C18.7672 34.0474 19.1352 34.0474 19.5144 34.0585C19.7375 34.0585 19.8156 33.9805 19.8379 33.7574C20.0498 31.8279 20.0275 31.7945 18.1538 31.7945ZM18.1538 31.7945H17.9195C17.3173 31.7945 17.0161 32.0919 17.0161 32.6867C17.0161 33.5938 17.4734 34.0474 18.388 34.0474C18.7672 34.0474 19.1352 34.0474 19.5144 34.0585C19.7375 34.0585 19.8156 33.9805 19.8379 33.7574C20.0498 31.8279 20.0275 31.7945 18.1538 31.7945ZM18.1538 31.7945H17.9195C17.3173 31.7945 17.0161 32.0919 17.0161 32.6867C17.0161 33.5938 17.4734 34.0474 18.388 34.0474C18.7672 34.0474 19.1352 34.0474 19.5144 34.0585C19.7375 34.0585 19.8156 33.9805 19.8379 33.7574C20.0498 31.8279 20.0275 31.7945 18.1538 31.7945ZM18.1538 31.7945H17.9195C17.3173 31.7945 17.0161 32.0919 17.0161 32.6867C17.0161 33.5938 17.4734 34.0474 18.388 34.0474C18.7672 34.0474 19.1352 34.0474 19.5144 34.0585C19.7375 34.0585 19.8156 33.9805 19.8379 33.7574C20.0498 31.8279 20.0275 31.7945 18.1538 31.7945ZM18.1538 31.7945H17.9195C17.3173 31.7945 17.0161 32.0919 17.0161 32.6867C17.0161 33.5938 17.4734 34.0474 18.388 34.0474C18.7672 34.0474 19.1352 34.0474 19.5144 34.0585C19.7375 34.0585 19.8156 33.9805 19.8379 33.7574C20.0498 31.8279 20.0275 31.7945 18.1538 31.7945ZM41.5752 31.7945C41.2406 31.7945 40.906 31.8168 40.5714 31.7945C40.2703 31.7722 40.1476 31.8614 40.1588 32.1848C40.1811 32.6979 40.1811 33.2109 40.1588 33.7239C40.1476 33.9805 40.248 34.0697 40.5045 34.0585C41.0176 34.0362 41.5306 34.0474 42.0436 34.0474C42.6459 34.0474 42.947 33.7537 42.947 33.1663C42.9545 32.2517 42.4972 31.7945 41.5752 31.7945ZM41.5752 31.7945C41.2406 31.7945 40.906 31.8168 40.5714 31.7945C40.2703 31.7722 40.1476 31.8614 40.1588 32.1848C40.1811 32.6979 40.1811 33.2109 40.1588 33.7239C40.1476 33.9805 40.248 34.0697 40.5045 34.0585C41.0176 34.0362 41.5306 34.0474 42.0436 34.0474C42.6459 34.0474 42.947 33.7537 42.947 33.1663C42.9545 32.2517 42.4972 31.7945 41.5752 31.7945ZM18.1538 31.7945H17.9195C17.3173 31.7945 17.0161 32.0919 17.0161 32.6867C17.0161 33.5938 17.4734 34.0474 18.388 34.0474C18.7672 34.0474 19.1352 34.0474 19.5144 34.0585C19.7375 34.0585 19.8156 33.9805 19.8379 33.7574C20.0498 31.8279 20.0275 31.7945 18.1538 31.7945ZM30.0206 15.8679C20.9309 15.8679 13.6033 23.2066 13.6033 32.3075C13.6033 41.4084 21.0089 48.7583 29.9983 48.736C39.0323 48.7137 46.4045 41.3192 46.3822 32.2963C46.3599 23.1954 39.0546 15.8567 30.0206 15.8679ZM29.831 18.1208C36.5898 18.0539 42.0325 22.7939 43.4935 28.2589H40.0472C39.6903 28.2589 39.3334 28.2478 38.9765 28.2701C37.9951 28.3035 37.0805 28.2589 36.2217 27.5563C35.4076 26.8871 34.3257 26.7421 33.2439 26.7421H26.7193C25.3475 26.731 24.1207 27.1659 23.0388 28.0024C22.8827 28.1251 22.76 28.2701 22.5369 28.2701C20.5182 28.2589 18.4995 28.2589 16.4808 28.2589C17.8972 22.9055 23.1838 18.1877 29.831 18.1208ZM36.6679 33.512C36.2329 35.04 35.7645 36.568 35.2849 38.0848C34.8164 39.557 33.5227 40.505 31.9278 40.5273C30.6675 40.5496 29.4072 40.5496 28.1358 40.5273C26.407 40.505 25.169 39.6016 24.656 37.951C24.1987 36.5011 23.7526 35.0512 23.3288 33.6013C22.615 31.1699 24.2433 29.0173 26.7751 29.0062C27.8458 28.995 28.9053 29.0062 29.976 29.0062C31.0467 29.0062 32.1843 28.995 33.2996 29.0062C35.7087 29.0285 37.337 31.1922 36.6679 33.512ZM15.9789 34.1812C15.8674 33.0994 15.7893 32.0175 15.912 30.9357C15.9455 30.6122 16.057 30.5119 16.3916 30.5119C17.8638 30.523 19.3471 30.5119 20.8305 30.523C21.0201 30.523 21.2655 30.4672 21.1539 30.813C20.6409 32.3633 20.9755 33.8466 21.4885 35.33C21.5443 35.475 21.5778 35.62 21.6558 35.8653C19.8156 35.4081 18.0757 34.9842 16.3358 34.5604C16.1127 34.5158 16.0012 34.4154 15.9789 34.1812ZM16.6704 36.9806C18.5776 37.4379 20.4067 37.884 22.2469 38.319C22.47 38.3748 22.4812 38.5532 22.5369 38.7205C22.9384 40.0143 23.6968 41.0404 24.801 41.8099C24.9348 41.8991 25.0687 41.9661 25.1021 42.1445C25.3475 43.3379 25.5929 44.5313 25.8382 45.7358C22.5927 45.0889 18.2541 41.7207 16.6704 36.9806ZM32.3739 43.1706C32.1397 44.1297 31.9501 45.1001 31.7717 46.0592C31.727 46.3046 31.6155 46.3827 31.3813 46.405C30.4556 46.5054 29.541 46.4942 28.6042 46.405C28.3365 46.3827 28.2473 46.2488 28.2027 46.0146C28.0131 45.0889 27.8235 44.1632 27.6116 43.2375C27.5335 42.8695 27.645 42.7691 28.0131 42.7802C28.6823 42.8137 29.3626 42.7914 30.0318 42.7914C30.701 42.7914 31.3701 42.8025 32.0393 42.7802C32.3293 42.7802 32.4631 42.8137 32.3739 43.1706ZM34.1361 45.7916C34.3815 44.5647 34.638 43.349 34.8834 42.1445C34.928 41.9438 35.0841 41.8657 35.2403 41.7541C36.311 41.018 37.0248 39.992 37.4374 38.7651C37.5043 38.5532 37.5378 38.3636 37.8055 38.2967C39.6123 37.8729 41.4079 37.4268 43.2928 36.9695C41.999 41.1742 38.0508 44.8101 34.1361 45.7916ZM43.7054 34.5493C41.9433 34.9619 40.1922 35.3969 38.352 35.8542C38.5639 34.8839 38.9319 34.0697 39.0435 33.1774C39.1661 32.2852 38.9988 31.4264 38.7646 30.523C40.4487 30.523 42.0771 30.523 43.7166 30.5119C43.9954 30.5119 44.04 30.6792 44.0512 30.8799C44.1404 31.9841 44.1627 33.0882 44.0066 34.1924C43.9731 34.3931 43.9174 34.4935 43.7054 34.5493ZM41.5752 31.7945C41.2406 31.7945 40.906 31.8168 40.5714 31.7945C40.2703 31.7722 40.1476 31.8614 40.1588 32.1848C40.1811 32.6979 40.1811 33.2109 40.1588 33.7239C40.1476 33.9805 40.248 34.0697 40.5045 34.0585C41.0176 34.0362 41.5306 34.0474 42.0436 34.0474C42.6459 34.0474 42.947 33.7537 42.947 33.1663C42.9545 32.2517 42.4972 31.7945 41.5752 31.7945ZM18.1538 31.7945H17.9195C17.3173 31.7945 17.0161 32.0919 17.0161 32.6867C17.0161 33.5938 17.4734 34.0474 18.388 34.0474C18.7672 34.0474 19.1352 34.0474 19.5144 34.0585C19.7375 34.0585 19.8156 33.9805 19.8379 33.7574C20.0498 31.8279 20.0275 31.7945 18.1538 31.7945ZM18.1538 31.7945H17.9195C17.3173 31.7945 17.0161 32.0919 17.0161 32.6867C17.0161 33.5938 17.4734 34.0474 18.388 34.0474C18.7672 34.0474 19.1352 34.0474 19.5144 34.0585C19.7375 34.0585 19.8156 33.9805 19.8379 33.7574C20.0498 31.8279 20.0275 31.7945 18.1538 31.7945ZM18.1538 31.7945H17.9195C17.3173 31.7945 17.0161 32.0919 17.0161 32.6867C17.0161 33.5938 17.4734 34.0474 18.388 34.0474C18.7672 34.0474 19.1352 34.0474 19.5144 34.0585C19.7375 34.0585 19.8156 33.9805 19.8379 33.7574C20.0498 31.8279 20.0275 31.7945 18.1538 31.7945ZM18.1538 31.7945H17.9195C17.3173 31.7945 17.0161 32.0919 17.0161 32.6867C17.0161 33.5938 17.4734 34.0474 18.388 34.0474C18.7672 34.0474 19.1352 34.0474 19.5144 34.0585C19.7375 34.0585 19.8156 33.9805 19.8379 33.7574C20.0498 31.8279 20.0275 31.7945 18.1538 31.7945ZM18.1538 31.7945H17.9195C17.3173 31.7945 17.0161 32.0919 17.0161 32.6867C17.0161 33.5938 17.4734 34.0474 18.388 34.0474C18.7672 34.0474 19.1352 34.0474 19.5144 34.0585C19.7375 34.0585 19.8156 33.9805 19.8379 33.7574C20.0498 31.8279 20.0275 31.7945 18.1538 31.7945ZM18.1538 31.7945H17.9195C17.3173 31.7945 17.0161 32.0919 17.0161 32.6867C17.0161 33.5938 17.4734 34.0474 18.388 34.0474C18.7672 34.0474 19.1352 34.0474 19.5144 34.0585C19.7375 34.0585 19.8156 33.9805 19.8379 33.7574C20.0498 31.8279 20.0275 31.7945 18.1538 31.7945ZM18.1538 31.7945H17.9195C17.3173 31.7945 17.0161 32.0919 17.0161 32.6867C17.0161 33.5938 17.4734 34.0474 18.388 34.0474C18.7672 34.0474 19.1352 34.0474 19.5144 34.0585C19.7375 34.0585 19.8156 33.9805 19.8379 33.7574C20.0498 31.8279 20.0275 31.7945 18.1538 31.7945ZM18.1538 31.7945H17.9195C17.3173 31.7945 17.0161 32.0919 17.0161 32.6867C17.0161 33.5938 17.4734 34.0474 18.388 34.0474C18.7672 34.0474 19.1352 34.0474 19.5144 34.0585C19.7375 34.0585 19.8156 33.9805 19.8379 33.7574C20.0498 31.8279 20.0275 31.7945 18.1538 31.7945ZM18.1538 31.7945H17.9195C17.3173 31.7945 17.0161 32.0919 17.0161 32.6867C17.0161 33.5938 17.4734 34.0474 18.388 34.0474C18.7672 34.0474 19.1352 34.0474 19.5144 34.0585C19.7375 34.0585 19.8156 33.9805 19.8379 33.7574C20.0498 31.8279 20.0275 31.7945 18.1538 31.7945ZM18.1538 31.7945H17.9195C17.3173 31.7945 17.0161 32.0919 17.0161 32.6867C17.0161 33.5938 17.4734 34.0474 18.388 34.0474C18.7672 34.0474 19.1352 34.0474 19.5144 34.0585C19.7375 34.0585 19.8156 33.9805 19.8379 33.7574C20.0498 31.8279 20.0275 31.7945 18.1538 31.7945ZM41.5752 31.7945C41.2406 31.7945 40.906 31.8168 40.5714 31.7945C40.2703 31.7722 40.1476 31.8614 40.1588 32.1848C40.1811 32.6979 40.1811 33.2109 40.1588 33.7239C40.1476 33.9805 40.248 34.0697 40.5045 34.0585C41.0176 34.0362 41.5306 34.0474 42.0436 34.0474C42.6459 34.0474 42.947 33.7537 42.947 33.1663C42.9545 32.2517 42.4972 31.7945 41.5752 31.7945ZM41.5752 31.7945C41.2406 31.7945 40.906 31.8168 40.5714 31.7945C40.2703 31.7722 40.1476 31.8614 40.1588 32.1848C40.1811 32.6979 40.1811 33.2109 40.1588 33.7239C40.1476 33.9805 40.248 34.0697 40.5045 34.0585C41.0176 34.0362 41.5306 34.0474 42.0436 34.0474C42.6459 34.0474 42.947 33.7537 42.947 33.1663C42.9545 32.2517 42.4972 31.7945 41.5752 31.7945ZM18.1538 31.7945H17.9195C17.3173 31.7945 17.0161 32.0919 17.0161 32.6867C17.0161 33.5938 17.4734 34.0474 18.388 34.0474C18.7672 34.0474 19.1352 34.0474 19.5144 34.0585C19.7375 34.0585 19.8156 33.9805 19.8379 33.7574C20.0498 31.8279 20.0275 31.7945 18.1538 31.7945ZM30.0206 15.8679C20.9309 15.8679 13.6033 23.2066 13.6033 32.3075C13.6033 41.4084 21.0089 48.7583 29.9983 48.736C39.0323 48.7137 46.4045 41.3192 46.3822 32.2963C46.3599 23.1954 39.0546 15.8567 30.0206 15.8679ZM29.831 18.1208C36.5898 18.0539 42.0325 22.7939 43.4935 28.2589H40.0472C39.6903 28.2589 39.3334 28.2478 38.9765 28.2701C37.9951 28.3035 37.0805 28.2589 36.2217 27.5563C35.4076 26.8871 34.3257 26.7421 33.2439 26.7421H26.7193C25.3475 26.731 24.1207 27.1659 23.0388 28.0024C22.8827 28.1251 22.76 28.2701 22.5369 28.2701C20.5182 28.2589 18.4995 28.2589 16.4808 28.2589C17.8972 22.9055 23.1838 18.1877 29.831 18.1208ZM36.6679 33.512C36.2329 35.04 35.7645 36.568 35.2849 38.0848C34.8164 39.557 33.5227 40.505 31.9278 40.5273C30.6675 40.5496 29.4072 40.5496 28.1358 40.5273C26.407 40.505 25.169 39.6016 24.656 37.951C24.1987 36.5011 23.7526 35.0512 23.3288 33.6013C22.615 31.1699 24.2433 29.0173 26.7751 29.0062C27.8458 28.995 28.9053 29.0062 29.976 29.0062C31.0467 29.0062 32.1843 28.995 33.2996 29.0062C35.7087 29.0285 37.337 31.1922 36.6679 33.512ZM15.9789 34.1812C15.8674 33.0994 15.7893 32.0175 15.912 30.9357C15.9455 30.6122 16.057 30.5119 16.3916 30.5119C17.8638 30.523 19.3471 30.5119 20.8305 30.523C21.0201 30.523 21.2655 30.4672 21.1539 30.813C20.6409 32.3633 20.9755 33.8466 21.4885 35.33C21.5443 35.475 21.5778 35.62 21.6558 35.8653C19.8156 35.4081 18.0757 34.9842 16.3358 34.5604C16.1127 34.5158 16.0012 34.4154 15.9789 34.1812ZM16.6704 36.9806C18.5776 37.4379 20.4067 37.884 22.2469 38.319C22.47 38.3748 22.4812 38.5532 22.5369 38.7205C22.9384 40.0143 23.6968 41.0404 24.801 41.8099C24.9348 41.8991 25.0687 41.9661 25.1021 42.1445C25.3475 43.3379 25.5929 44.5313 25.8382 45.7358C22.5927 45.0889 18.2541 41.7207 16.6704 36.9806ZM32.3739 43.1706C32.1397 44.1297 31.9501 45.1001 31.7717 46.0592C31.727 46.3046 31.6155 46.3827 31.3813 46.405C30.4556 46.5054 29.541 46.4942 28.6042 46.405C28.3365 46.3827 28.2473 46.2488 28.2027 46.0146C28.0131 45.0889 27.8235 44.1632 27.6116 43.2375C27.5335 42.8695 27.645 42.7691 28.0131 42.7802C28.6823 42.8137 29.3626 42.7914 30.0318 42.7914C30.701 42.7914 31.3701 42.8025 32.0393 42.7802C32.3293 42.7802 32.4631 42.8137 32.3739 43.1706ZM34.1361 45.7916C34.3815 44.5647 34.638 43.349 34.8834 42.1445C34.928 41.9438 35.0841 41.8657 35.2403 41.7541C36.311 41.018 37.0248 39.992 37.4374 38.7651C37.5043 38.5532 37.5378 38.3636 37.8055 38.2967C39.6123 37.8729 41.4079 37.4268 43.2928 36.9695C41.999 41.1742 38.0508 44.8101 34.1361 45.7916ZM43.7054 34.5493C41.9433 34.9619 40.1922 35.3969 38.352 35.8542C38.5639 34.8839 38.9319 34.0697 39.0435 33.1774C39.1661 32.2852 38.9988 31.4264 38.7646 30.523C40.4487 30.523 42.0771 30.523 43.7166 30.5119C43.9954 30.5119 44.04 30.6792 44.0512 30.8799C44.1404 31.9841 44.1627 33.0882 44.0066 34.1924C43.9731 34.3931 43.9174 34.4935 43.7054 34.5493ZM41.5752 31.7945C41.2406 31.7945 40.906 31.8168 40.5714 31.7945C40.2703 31.7722 40.1476 31.8614 40.1588 32.1848C40.1811 32.6979 40.1811 33.2109 40.1588 33.7239C40.1476 33.9805 40.248 34.0697 40.5045 34.0585C41.0176 34.0362 41.5306 34.0474 42.0436 34.0474C42.6459 34.0474 42.947 33.7537 42.947 33.1663C42.9545 32.2517 42.4972 31.7945 41.5752 31.7945ZM18.1538 31.7945H17.9195C17.3173 31.7945 17.0161 32.0919 17.0161 32.6867C17.0161 33.5938 17.4734 34.0474 18.388 34.0474C18.7672 34.0474 19.1352 34.0474 19.5144 34.0585C19.7375 34.0585 19.8156 33.9805 19.8379 33.7574C20.0498 31.8279 20.0275 31.7945 18.1538 31.7945ZM18.1538 31.7945H17.9195C17.3173 31.7945 17.0161 32.0919 17.0161 32.6867C17.0161 33.5938 17.4734 34.0474 18.388 34.0474C18.7672 34.0474 19.1352 34.0474 19.5144 34.0585C19.7375 34.0585 19.8156 33.9805 19.8379 33.7574C20.0498 31.8279 20.0275 31.7945 18.1538 31.7945ZM18.1538 31.7945H17.9195C17.3173 31.7945 17.0161 32.0919 17.0161 32.6867C17.0161 33.5938 17.4734 34.0474 18.388 34.0474C18.7672 34.0474 19.1352 34.0474 19.5144 34.0585C19.7375 34.0585 19.8156 33.9805 19.8379 33.7574C20.0498 31.8279 20.0275 31.7945 18.1538 31.7945ZM18.1538 31.7945H17.9195C17.3173 31.7945 17.0161 32.0919 17.0161 32.6867C17.0161 33.5938 17.4734 34.0474 18.388 34.0474C18.7672 34.0474 19.1352 34.0474 19.5144 34.0585C19.7375 34.0585 19.8156 33.9805 19.8379 33.7574C20.0498 31.8279 20.0275 31.7945 18.1538 31.7945ZM18.1538 31.7945H17.9195C17.3173 31.7945 17.0161 32.0919 17.0161 32.6867C17.0161 33.5938 17.4734 34.0474 18.388 34.0474C18.7672 34.0474 19.1352 34.0474 19.5144 34.0585C19.7375 34.0585 19.8156 33.9805 19.8379 33.7574C20.0498 31.8279 20.0275 31.7945 18.1538 31.7945ZM18.1538 31.7945H17.9195C17.3173 31.7945 17.0161 32.0919 17.0161 32.6867C17.0161 33.5938 17.4734 34.0474 18.388 34.0474C18.7672 34.0474 19.1352 34.0474 19.5144 34.0585C19.7375 34.0585 19.8156 33.9805 19.8379 33.7574C20.0498 31.8279 20.0275 31.7945 18.1538 31.7945ZM18.1538 31.7945H17.9195C17.3173 31.7945 17.0161 32.0919 17.0161 32.6867C17.0161 33.5938 17.4734 34.0474 18.388 34.0474C18.7672 34.0474 19.1352 34.0474 19.5144 34.0585C19.7375 34.0585 19.8156 33.9805 19.8379 33.7574C20.0498 31.8279 20.0275 31.7945 18.1538 31.7945ZM18.1538 31.7945H17.9195C17.3173 31.7945 17.0161 32.0919 17.0161 32.6867C17.0161 33.5938 17.4734 34.0474 18.388 34.0474C18.7672 34.0474 19.1352 34.0474 19.5144 34.0585C19.7375 34.0585 19.8156 33.9805 19.8379 33.7574C20.0498 31.8279 20.0275 31.7945 18.1538 31.7945ZM18.1538 31.7945H17.9195C17.3173 31.7945 17.0161 32.0919 17.0161 32.6867C17.0161 33.5938 17.4734 34.0474 18.388 34.0474C18.7672 34.0474 19.1352 34.0474 19.5144 34.0585C19.7375 34.0585 19.8156 33.9805 19.8379 33.7574C20.0498 31.8279 20.0275 31.7945 18.1538 31.7945ZM18.1538 31.7945H17.9195C17.3173 31.7945 17.0161 32.0919 17.0161 32.6867C17.0161 33.5938 17.4734 34.0474 18.388 34.0474C18.7672 34.0474 19.1352 34.0474 19.5144 34.0585C19.7375 34.0585 19.8156 33.9805 19.8379 33.7574C20.0498 31.8279 20.0275 31.7945 18.1538 31.7945ZM41.5752 31.7945C41.2406 31.7945 40.906 31.8168 40.5714 31.7945C40.2703 31.7722 40.1476 31.8614 40.1588 32.1848C40.1811 32.6979 40.1811 33.2109 40.1588 33.7239C40.1476 33.9805 40.248 34.0697 40.5045 34.0585C41.0176 34.0362 41.5306 34.0474 42.0436 34.0474C42.6459 34.0474 42.947 33.7537 42.947 33.1663C42.9545 32.2517 42.4972 31.7945 41.5752 31.7945ZM41.5752 31.7945C41.2406 31.7945 40.906 31.8168 40.5714 31.7945C40.2703 31.7722 40.1476 31.8614 40.1588 32.1848C40.1811 32.6979 40.1811 33.2109 40.1588 33.7239C40.1476 33.9805 40.248 34.0697 40.5045 34.0585C41.0176 34.0362 41.5306 34.0474 42.0436 34.0474C42.6459 34.0474 42.947 33.7537 42.947 33.1663C42.9545 32.2517 42.4972 31.7945 41.5752 31.7945ZM18.1538 31.7945H17.9195C17.3173 31.7945 17.0161 32.0919 17.0161 32.6867C17.0161 33.5938 17.4734 34.0474 18.388 34.0474C18.7672 34.0474 19.1352 34.0474 19.5144 34.0585C19.7375 34.0585 19.8156 33.9805 19.8379 33.7574C20.0498 31.8279 20.0275 31.7945 18.1538 31.7945ZM30.0206 15.8679C20.9309 15.8679 13.6033 23.2066 13.6033 32.3075C13.6033 41.4084 21.0089 48.7583 29.9983 48.736C39.0323 48.7137 46.4045 41.3192 46.3822 32.2963C46.3599 23.1954 39.0546 15.8567 30.0206 15.8679ZM29.831 18.1208C36.5898 18.0539 42.0325 22.7939 43.4935 28.2589H40.0472C39.6903 28.2589 39.3334 28.2478 38.9765 28.2701C37.9951 28.3035 37.0805 28.2589 36.2217 27.5563C35.4076 26.8871 34.3257 26.7421 33.2439 26.7421H26.7193C25.3475 26.731 24.1207 27.1659 23.0388 28.0024C22.8827 28.1251 22.76 28.2701 22.5369 28.2701C20.5182 28.2589 18.4995 28.2589 16.4808 28.2589C17.8972 22.9055 23.1838 18.1877 29.831 18.1208ZM36.6679 33.512C36.2329 35.04 35.7645 36.568 35.2849 38.0848C34.8164 39.557 33.5227 40.505 31.9278 40.5273C30.6675 40.5496 29.4072 40.5496 28.1358 40.5273C26.407 40.505 25.169 39.6016 24.656 37.951C24.1987 36.5011 23.7526 35.0512 23.3288 33.6013C22.615 31.1699 24.2433 29.0173 26.7751 29.0062C27.8458 28.995 28.9053 29.0062 29.976 29.0062C31.0467 29.0062 32.1843 28.995 33.2996 29.0062C35.7087 29.0285 37.337 31.1922 36.6679 33.512ZM15.9789 34.1812C15.8674 33.0994 15.7893 32.0175 15.912 30.9357C15.9455 30.6122 16.057 30.5119 16.3916 30.5119C17.8638 30.523 19.3471 30.5119 20.8305 30.523C21.0201 30.523 21.2655 30.4672 21.1539 30.813C20.6409 32.3633 20.9755 33.8466 21.4885 35.33C21.5443 35.475 21.5778 35.62 21.6558 35.8653C19.8156 35.4081 18.0757 34.9842 16.3358 34.5604C16.1127 34.5158 16.0012 34.4154 15.9789 34.1812ZM16.6704 36.9806C18.5776 37.4379 20.4067 37.884 22.2469 38.319C22.47 38.3748 22.4812 38.5532 22.5369 38.7205C22.9384 40.0143 23.6968 41.0404 24.801 41.8099C24.9348 41.8991 25.0687 41.9661 25.1021 42.1445C25.3475 43.3379 25.5929 44.5313 25.8382 45.7358C22.5927 45.0889 18.2541 41.7207 16.6704 36.9806ZM32.3739 43.1706C32.1397 44.1297 31.9501 45.1001 31.7717 46.0592C31.727 46.3046 31.6155 46.3827 31.3813 46.405C30.4556 46.5054 29.541 46.4942 28.6042 46.405C28.3365 46.3827 28.2473 46.2488 28.2027 46.0146C28.0131 45.0889 27.8235 44.1632 27.6116 43.2375C27.5335 42.8695 27.645 42.7691 28.0131 42.7802C28.6823 42.8137 29.3626 42.7914 30.0318 42.7914C30.701 42.7914 31.3701 42.8025 32.0393 42.7802C32.3293 42.7802 32.4631 42.8137 32.3739 43.1706ZM34.1361 45.7916C34.3815 44.5647 34.638 43.349 34.8834 42.1445C34.928 41.9438 35.0841 41.8657 35.2403 41.7541C36.311 41.018 37.0248 39.992 37.4374 38.7651C37.5043 38.5532 37.5378 38.3636 37.8055 38.2967C39.6123 37.8729 41.4079 37.4268 43.2928 36.9695C41.999 41.1742 38.0508 44.8101 34.1361 45.7916ZM43.7054 34.5493C41.9433 34.9619 40.1922 35.3969 38.352 35.8542C38.5639 34.8839 38.9319 34.0697 39.0435 33.1774C39.1661 32.2852 38.9988 31.4264 38.7646 30.523C40.4487 30.523 42.0771 30.523 43.7166 30.5119C43.9954 30.5119 44.04 30.6792 44.0512 30.8799C44.1404 31.9841 44.1627 33.0882 44.0066 34.1924C43.9731 34.3931 43.9174 34.4935 43.7054 34.5493ZM41.5752 31.7945C41.2406 31.7945 40.906 31.8168 40.5714 31.7945C40.2703 31.7722 40.1476 31.8614 40.1588 32.1848C40.1811 32.6979 40.1811 33.2109 40.1588 33.7239C40.1476 33.9805 40.248 34.0697 40.5045 34.0585C41.0176 34.0362 41.5306 34.0474 42.0436 34.0474C42.6459 34.0474 42.947 33.7537 42.947 33.1663C42.9545 32.2517 42.4972 31.7945 41.5752 31.7945ZM18.1538 31.7945H17.9195C17.3173 31.7945 17.0161 32.0919 17.0161 32.6867C17.0161 33.5938 17.4734 34.0474 18.388 34.0474C18.7672 34.0474 19.1352 34.0474 19.5144 34.0585C19.7375 34.0585 19.8156 33.9805 19.8379 33.7574C20.0498 31.8279 20.0275 31.7945 18.1538 31.7945ZM18.1538 31.7945H17.9195C17.3173 31.7945 17.0161 32.0919 17.0161 32.6867C17.0161 33.5938 17.4734 34.0474 18.388 34.0474C18.7672 34.0474 19.1352 34.0474 19.5144 34.0585C19.7375 34.0585 19.8156 33.9805 19.8379 33.7574C20.0498 31.8279 20.0275 31.7945 18.1538 31.7945ZM18.1538 31.7945H17.9195C17.3173 31.7945 17.0161 32.0919 17.0161 32.6867C17.0161 33.5938 17.4734 34.0474 18.388 34.0474C18.7672 34.0474 19.1352 34.0474 19.5144 34.0585C19.7375 34.0585 19.8156 33.9805 19.8379 33.7574C20.0498 31.8279 20.0275 31.7945 18.1538 31.7945ZM18.1538 31.7945H17.9195C17.3173 31.7945 17.0161 32.0919 17.0161 32.6867C17.0161 33.5938 17.4734 34.0474 18.388 34.0474C18.7672 34.0474 19.1352 34.0474 19.5144 34.0585C19.7375 34.0585 19.8156 33.9805 19.8379 33.7574C20.0498 31.8279 20.0275 31.7945 18.1538 31.7945ZM18.1538 31.7945H17.9195C17.3173 31.7945 17.0161 32.0919 17.0161 32.6867C17.0161 33.5938 17.4734 34.0474 18.388 34.0474C18.7672 34.0474 19.1352 34.0474 19.5144 34.0585C19.7375 34.0585 19.8156 33.9805 19.8379 33.7574C20.0498 31.8279 20.0275 31.7945 18.1538 31.7945Z" fill="#262626"/>
<path d="M45.0547 10.3806C45.0547 9.60737 45.4636 9.26906 46.2815 9.36572C50.2074 9.83415 53.5756 13.0908 54.2002 17.0056C54.4567 18.6116 54.4567 18.5782 52.8507 18.6228C52.2596 18.6339 52.0811 18.5001 52.0365 17.8755C51.8023 14.6969 49.0252 11.8863 45.9135 11.6075C45.341 11.5554 45.0547 11.2432 45.0547 10.6706C45.0547 10.5702 45.0547 10.4699 45.0547 10.3695V10.3806Z" fill="#262626"/>
<path d="M6.77736 18.6008C5.97434 18.6008 5.6286 18.1881 5.74013 17.3628C6.32009 12.9239 9.96714 9.55566 14.4618 9.28799C14.8187 9.26568 14.9637 9.3326 14.9303 9.72296C14.8968 10.1579 14.8968 10.5929 14.9303 11.0279C14.9637 11.4405 14.8299 11.5632 14.4172 11.5855C12.3316 11.7305 10.6586 12.6674 9.36488 14.3069C8.50609 15.3887 8.01535 16.6379 7.93728 17.9985C7.90382 18.5339 7.74768 18.69 7.25695 18.612C7.1008 18.5897 6.94466 18.612 6.78852 18.612L6.77736 18.6008Z" fill="#262626"/>
<path d="M48.6237 18.6009C48.5456 18.6009 48.4675 18.6009 48.3895 18.6009C47.843 18.6901 47.553 18.5563 47.4192 17.9206C47.2072 16.8945 46.4377 16.3257 45.4339 16.1472C45.1216 16.0915 45.0547 15.9911 45.0659 15.7123C45.0882 15.2215 45.0882 14.7308 45.0659 14.2289C45.0436 13.8943 45.1774 13.8497 45.4785 13.8609C47.6645 13.9724 49.7278 16.058 49.8059 18.2217C49.8059 18.5005 49.7613 18.6232 49.4602 18.6009C49.1813 18.5786 48.9137 18.6009 48.6348 18.6009H48.6237Z" fill="#262626"/>
<path d="M14.8966 15.0315C14.8966 15.1095 14.8966 15.1876 14.8966 15.2657C14.9746 15.8345 14.8631 16.1356 14.1716 16.2694C13.2124 16.4702 12.6325 17.2063 12.4763 18.1878C12.4206 18.5224 12.2979 18.6451 11.9522 18.6116C11.5172 18.5781 11.0822 18.5781 10.6472 18.6116C10.19 18.6451 10.1342 18.4666 10.2011 18.0651C10.5357 15.8679 11.9856 14.34 14.1605 13.9273C14.6512 13.8381 14.8966 14.0463 14.8966 14.5519C14.8966 14.708 14.8966 14.8642 14.8966 15.0315Z" fill="#262626"/>
<path d="M18.154 31.7948H17.9198C17.3175 31.7948 17.0164 32.0922 17.0164 32.687C17.0164 33.5941 17.4736 34.0477 18.3882 34.0477C18.7674 34.0477 19.1354 34.0477 19.5146 34.0588C19.7377 34.0588 19.8158 33.9808 19.8381 33.7577C20.05 31.8282 20.0277 31.7948 18.154 31.7948ZM18.154 31.7948H17.9198C17.3175 31.7948 17.0164 32.0922 17.0164 32.687C17.0164 33.5941 17.4736 34.0477 18.3882 34.0477C18.7674 34.0477 19.1354 34.0477 19.5146 34.0588C19.7377 34.0588 19.8158 33.9808 19.8381 33.7577C20.05 31.8282 20.0277 31.7948 18.154 31.7948ZM18.154 31.7948H17.9198C17.3175 31.7948 17.0164 32.0922 17.0164 32.687C17.0164 33.5941 17.4736 34.0477 18.3882 34.0477C18.7674 34.0477 19.1354 34.0477 19.5146 34.0588C19.7377 34.0588 19.8158 33.9808 19.8381 33.7577C20.05 31.8282 20.0277 31.7948 18.154 31.7948ZM18.154 31.7948H17.9198C17.3175 31.7948 17.0164 32.0922 17.0164 32.687C17.0164 33.5941 17.4736 34.0477 18.3882 34.0477C18.7674 34.0477 19.1354 34.0477 19.5146 34.0588C19.7377 34.0588 19.8158 33.9808 19.8381 33.7577C20.05 31.8282 20.0277 31.7948 18.154 31.7948ZM18.154 31.7948H17.9198C17.3175 31.7948 17.0164 32.0922 17.0164 32.687C17.0164 33.5941 17.4736 34.0477 18.3882 34.0477C18.7674 34.0477 19.1354 34.0477 19.5146 34.0588C19.7377 34.0588 19.8158 33.9808 19.8381 33.7577C20.05 31.8282 20.0277 31.7948 18.154 31.7948ZM41.5754 31.7948C41.2408 31.7948 40.9062 31.8171 40.5716 31.7948C40.2705 31.7725 40.1478 31.8617 40.159 32.1851C40.1813 32.6982 40.1813 33.2112 40.159 33.7242C40.1478 33.9808 40.2482 34.07 40.5047 34.0588C41.0178 34.0365 41.5308 34.0477 42.0438 34.0477C42.6461 34.0477 42.9472 33.754 42.9472 33.1666C42.9547 32.252 42.4974 31.7948 41.5754 31.7948ZM41.5754 31.7948C41.2408 31.7948 40.9062 31.8171 40.5716 31.7948C40.2705 31.7725 40.1478 31.8617 40.159 32.1851C40.1813 32.6982 40.1813 33.2112 40.159 33.7242C40.1478 33.9808 40.2482 34.07 40.5047 34.0588C41.0178 34.0365 41.5308 34.0477 42.0438 34.0477C42.6461 34.0477 42.9472 33.754 42.9472 33.1666C42.9547 32.252 42.4974 31.7948 41.5754 31.7948ZM18.154 31.7948H17.9198C17.3175 31.7948 17.0164 32.0922 17.0164 32.687C17.0164 33.5941 17.4736 34.0477 18.3882 34.0477C18.7674 34.0477 19.1354 34.0477 19.5146 34.0588C19.7377 34.0588 19.8158 33.9808 19.8381 33.7577C20.05 31.8282 20.0277 31.7948 18.154 31.7948ZM30.0208 15.8682C20.9311 15.8682 13.6035 23.2069 13.6035 32.3078C13.6035 41.4087 21.0091 48.7586 29.9985 48.7363C39.0325 48.714 46.4047 41.3195 46.3824 32.2966C46.3601 23.1957 39.0548 15.857 30.0208 15.8682ZM29.8312 18.1211C36.59 18.0542 42.0327 22.7942 43.4937 28.2592H40.0474C39.6905 28.2592 39.3336 28.2481 38.9767 28.2704C37.9953 28.3038 37.0807 28.2592 36.2219 27.5566C35.4078 26.8874 34.3259 26.7424 33.2441 26.7424H26.7195C25.3477 26.7313 24.1209 27.1662 23.039 28.0027C22.8829 28.1254 22.7602 28.2704 22.5371 28.2704C20.5184 28.2592 18.4997 28.2592 16.481 28.2592C17.8974 22.9058 23.184 18.188 29.8312 18.1211ZM36.6681 33.5123C36.2331 35.0403 35.7647 36.5683 35.2851 38.0851C34.8167 39.5573 33.5229 40.5053 31.928 40.5276C30.6677 40.5499 29.4074 40.5499 28.136 40.5276C26.4072 40.5053 25.1692 39.6019 24.6562 37.9513C24.1989 36.5014 23.7528 35.0515 23.329 33.6016C22.6152 31.1702 24.2435 29.0176 26.7753 29.0065C27.846 28.9953 28.9055 29.0065 29.9762 29.0065C31.0469 29.0065 32.1845 28.9953 33.2998 29.0065C35.7089 29.0288 37.3372 31.1925 36.6681 33.5123ZM15.9791 34.1815C15.8676 33.0997 15.7895 32.0178 15.9122 30.936C15.9457 30.6125 16.0572 30.5122 16.3918 30.5122C17.864 30.5233 19.3473 30.5122 20.8307 30.5233C21.0203 30.5233 21.2657 30.4675 21.1541 30.8133C20.6411 32.3636 20.9757 33.8469 21.4887 35.3303C21.5445 35.4753 21.578 35.6203 21.656 35.8656C19.8158 35.4084 18.0759 34.9845 16.336 34.5607C16.113 34.5161 16.0014 34.4157 15.9791 34.1815ZM16.6706 36.9809C18.5778 37.4382 20.4069 37.8843 22.2471 38.3193C22.4702 38.3751 22.4814 38.5535 22.5371 38.7208C22.9386 40.0146 23.697 41.0407 24.8012 41.8102C24.935 41.8994 25.0689 41.9664 25.1023 42.1448C25.3477 43.3382 25.5931 44.5316 25.8384 45.7361C22.5929 45.0892 18.2543 41.721 16.6706 36.9809ZM32.3741 43.1709C32.1399 44.13 31.9503 45.1004 31.7719 46.0595C31.7272 46.3049 31.6157 46.383 31.3815 46.4053C30.4558 46.5057 29.5412 46.4945 28.6044 46.4053C28.3367 46.383 28.2475 46.2491 28.2029 46.0149C28.0133 45.0892 27.8237 44.1635 27.6118 43.2378C27.5337 42.8698 27.6452 42.7694 28.0133 42.7805C28.6825 42.814 29.3628 42.7917 30.032 42.7917C30.7012 42.7917 31.3704 42.8028 32.0395 42.7805C32.3295 42.7805 32.4634 42.814 32.3741 43.1709ZM34.1363 45.7919C34.3817 44.565 34.6382 43.3493 34.8836 42.1448C34.9282 41.944 35.0843 41.866 35.2405 41.7544C36.3112 41.0183 37.025 39.9923 37.4376 38.7654C37.5045 38.5535 37.538 38.3639 37.8057 38.297C39.6125 37.8732 41.4081 37.4271 43.293 36.9698C41.9992 41.1745 38.051 44.8104 34.1363 45.7919ZM43.7056 34.5496C41.9435 34.9622 40.1924 35.3972 38.3522 35.8545C38.5641 34.8842 38.9321 34.07 39.0437 33.1777C39.1663 32.2855 38.999 31.4267 38.7648 30.5233C40.4489 30.5233 42.0773 30.5233 43.7168 30.5122C43.9956 30.5122 44.0402 30.6795 44.0514 30.8802C44.1406 31.9844 44.1629 33.0885 44.0068 34.1927C43.9733 34.3934 43.9176 34.4938 43.7056 34.5496ZM41.5754 31.7948C41.2408 31.7948 40.9062 31.8171 40.5716 31.7948C40.2705 31.7725 40.1478 31.8617 40.159 32.1851C40.1813 32.6982 40.1813 33.2112 40.159 33.7242C40.1478 33.9808 40.2482 34.07 40.5047 34.0588C41.0178 34.0365 41.5308 34.0477 42.0438 34.0477C42.6461 34.0477 42.9472 33.754 42.9472 33.1666C42.9547 32.252 42.4974 31.7948 41.5754 31.7948ZM18.154 31.7948H17.9198C17.3175 31.7948 17.0164 32.0922 17.0164 32.687C17.0164 33.5941 17.4736 34.0477 18.3882 34.0477C18.7674 34.0477 19.1354 34.0477 19.5146 34.0588C19.7377 34.0588 19.8158 33.9808 19.8381 33.7577C20.05 31.8282 20.0277 31.7948 18.154 31.7948ZM18.154 31.7948H17.9198C17.3175 31.7948 17.0164 32.0922 17.0164 32.687C17.0164 33.5941 17.4736 34.0477 18.3882 34.0477C18.7674 34.0477 19.1354 34.0477 19.5146 34.0588C19.7377 34.0588 19.8158 33.9808 19.8381 33.7577C20.05 31.8282 20.0277 31.7948 18.154 31.7948ZM18.154 31.7948H17.9198C17.3175 31.7948 17.0164 32.0922 17.0164 32.687C17.0164 33.5941 17.4736 34.0477 18.3882 34.0477C18.7674 34.0477 19.1354 34.0477 19.5146 34.0588C19.7377 34.0588 19.8158 33.9808 19.8381 33.7577C20.05 31.8282 20.0277 31.7948 18.154 31.7948ZM18.154 31.7948H17.9198C17.3175 31.7948 17.0164 32.0922 17.0164 32.687C17.0164 33.5941 17.4736 34.0477 18.3882 34.0477C18.7674 34.0477 19.1354 34.0477 19.5146 34.0588C19.7377 34.0588 19.8158 33.9808 19.8381 33.7577C20.05 31.8282 20.0277 31.7948 18.154 31.7948ZM18.154 31.7948H17.9198C17.3175 31.7948 17.0164 32.0922 17.0164 32.687C17.0164 33.5941 17.4736 34.0477 18.3882 34.0477C18.7674 34.0477 19.1354 34.0477 19.5146 34.0588C19.7377 34.0588 19.8158 33.9808 19.8381 33.7577C20.05 31.8282 20.0277 31.7948 18.154 31.7948Z" fill="#262626"/>
<path d="M18.154 31.7948H17.9198C17.3175 31.7948 17.0164 32.0922 17.0164 32.687C17.0164 33.5941 17.4736 34.0477 18.3882 34.0477C18.7674 34.0477 19.1354 34.0477 19.5146 34.0588C19.7377 34.0588 19.8158 33.9808 19.8381 33.7577C20.05 31.8282 20.0277 31.7948 18.154 31.7948ZM18.154 31.7948H17.9198C17.3175 31.7948 17.0164 32.0922 17.0164 32.687C17.0164 33.5941 17.4736 34.0477 18.3882 34.0477C18.7674 34.0477 19.1354 34.0477 19.5146 34.0588C19.7377 34.0588 19.8158 33.9808 19.8381 33.7577C20.05 31.8282 20.0277 31.7948 18.154 31.7948ZM18.154 31.7948H17.9198C17.3175 31.7948 17.0164 32.0922 17.0164 32.687C17.0164 33.5941 17.4736 34.0477 18.3882 34.0477C18.7674 34.0477 19.1354 34.0477 19.5146 34.0588C19.7377 34.0588 19.8158 33.9808 19.8381 33.7577C20.05 31.8282 20.0277 31.7948 18.154 31.7948ZM18.154 31.7948H17.9198C17.3175 31.7948 17.0164 32.0922 17.0164 32.687C17.0164 33.5941 17.4736 34.0477 18.3882 34.0477C18.7674 34.0477 19.1354 34.0477 19.5146 34.0588C19.7377 34.0588 19.8158 33.9808 19.8381 33.7577C20.05 31.8282 20.0277 31.7948 18.154 31.7948ZM18.154 31.7948H17.9198C17.3175 31.7948 17.0164 32.0922 17.0164 32.687C17.0164 33.5941 17.4736 34.0477 18.3882 34.0477C18.7674 34.0477 19.1354 34.0477 19.5146 34.0588C19.7377 34.0588 19.8158 33.9808 19.8381 33.7577C20.05 31.8282 20.0277 31.7948 18.154 31.7948ZM41.5754 31.7948C41.2408 31.7948 40.9062 31.8171 40.5716 31.7948C40.2705 31.7725 40.1478 31.8617 40.159 32.1851C40.1813 32.6982 40.1813 33.2112 40.159 33.7242C40.1478 33.9808 40.2482 34.07 40.5047 34.0588C41.0178 34.0365 41.5308 34.0477 42.0438 34.0477C42.6461 34.0477 42.9472 33.754 42.9472 33.1666C42.9547 32.252 42.4974 31.7948 41.5754 31.7948ZM41.5754 31.7948C41.2408 31.7948 40.9062 31.8171 40.5716 31.7948C40.2705 31.7725 40.1478 31.8617 40.159 32.1851C40.1813 32.6982 40.1813 33.2112 40.159 33.7242C40.1478 33.9808 40.2482 34.07 40.5047 34.0588C41.0178 34.0365 41.5308 34.0477 42.0438 34.0477C42.6461 34.0477 42.9472 33.754 42.9472 33.1666C42.9547 32.252 42.4974 31.7948 41.5754 31.7948ZM18.154 31.7948H17.9198C17.3175 31.7948 17.0164 32.0922 17.0164 32.687C17.0164 33.5941 17.4736 34.0477 18.3882 34.0477C18.7674 34.0477 19.1354 34.0477 19.5146 34.0588C19.7377 34.0588 19.8158 33.9808 19.8381 33.7577C20.05 31.8282 20.0277 31.7948 18.154 31.7948ZM30.0208 15.8682C20.9311 15.8682 13.6035 23.2069 13.6035 32.3078C13.6035 41.4087 21.0091 48.7586 29.9985 48.7363C39.0325 48.714 46.4047 41.3195 46.3824 32.2966C46.3601 23.1957 39.0548 15.857 30.0208 15.8682ZM29.8312 18.1211C36.59 18.0542 42.0327 22.7942 43.4937 28.2592H40.0474C39.6905 28.2592 39.3336 28.2481 38.9767 28.2704C37.9953 28.3038 37.0807 28.2592 36.2219 27.5566C35.4078 26.8874 34.3259 26.7424 33.2441 26.7424H26.7195C25.3477 26.7313 24.1209 27.1662 23.039 28.0027C22.8829 28.1254 22.7602 28.2704 22.5371 28.2704C20.5184 28.2592 18.4997 28.2592 16.481 28.2592C17.8974 22.9058 23.184 18.188 29.8312 18.1211ZM36.6681 33.5123C36.2331 35.0403 35.7647 36.5683 35.2851 38.0851C34.8167 39.5573 33.5229 40.5053 31.928 40.5276C30.6677 40.5499 29.4074 40.5499 28.136 40.5276C26.4072 40.5053 25.1692 39.6019 24.6562 37.9513C24.1989 36.5014 23.7528 35.0515 23.329 33.6016C22.6152 31.1702 24.2435 29.0176 26.7753 29.0065C27.846 28.9953 28.9055 29.0065 29.9762 29.0065C31.0469 29.0065 32.1845 28.9953 33.2998 29.0065C35.7089 29.0288 37.3372 31.1925 36.6681 33.5123ZM15.9791 34.1815C15.8676 33.0997 15.7895 32.0178 15.9122 30.936C15.9457 30.6125 16.0572 30.5122 16.3918 30.5122C17.864 30.5233 19.3473 30.5122 20.8307 30.5233C21.0203 30.5233 21.2657 30.4675 21.1541 30.8133C20.6411 32.3636 20.9757 33.8469 21.4887 35.3303C21.5445 35.4753 21.578 35.6203 21.656 35.8656C19.8158 35.4084 18.0759 34.9845 16.336 34.5607C16.113 34.5161 16.0014 34.4157 15.9791 34.1815ZM16.6706 36.9809C18.5778 37.4382 20.4069 37.8843 22.2471 38.3193C22.4702 38.3751 22.4814 38.5535 22.5371 38.7208C22.9386 40.0146 23.697 41.0407 24.8012 41.8102C24.935 41.8994 25.0689 41.9664 25.1023 42.1448C25.3477 43.3382 25.5931 44.5316 25.8384 45.7361C22.5929 45.0892 18.2543 41.721 16.6706 36.9809ZM32.3741 43.1709C32.1399 44.13 31.9503 45.1004 31.7719 46.0595C31.7272 46.3049 31.6157 46.383 31.3815 46.4053C30.4558 46.5057 29.5412 46.4945 28.6044 46.4053C28.3367 46.383 28.2475 46.2491 28.2029 46.0149C28.0133 45.0892 27.8237 44.1635 27.6118 43.2378C27.5337 42.8698 27.6452 42.7694 28.0133 42.7805C28.6825 42.814 29.3628 42.7917 30.032 42.7917C30.7012 42.7917 31.3704 42.8028 32.0395 42.7805C32.3295 42.7805 32.4634 42.814 32.3741 43.1709ZM34.1363 45.7919C34.3817 44.565 34.6382 43.3493 34.8836 42.1448C34.9282 41.944 35.0843 41.866 35.2405 41.7544C36.3112 41.0183 37.025 39.9923 37.4376 38.7654C37.5045 38.5535 37.538 38.3639 37.8057 38.297C39.6125 37.8732 41.4081 37.4271 43.293 36.9698C41.9992 41.1745 38.051 44.8104 34.1363 45.7919ZM43.7056 34.5496C41.9435 34.9622 40.1924 35.3972 38.3522 35.8545C38.5641 34.8842 38.9321 34.07 39.0437 33.1777C39.1663 32.2855 38.999 31.4267 38.7648 30.5233C40.4489 30.5233 42.0773 30.5233 43.7168 30.5122C43.9956 30.5122 44.0402 30.6795 44.0514 30.8802C44.1406 31.9844 44.1629 33.0885 44.0068 34.1927C43.9733 34.3934 43.9176 34.4938 43.7056 34.5496ZM41.5754 31.7948C41.2408 31.7948 40.9062 31.8171 40.5716 31.7948C40.2705 31.7725 40.1478 31.8617 40.159 32.1851C40.1813 32.6982 40.1813 33.2112 40.159 33.7242C40.1478 33.9808 40.2482 34.07 40.5047 34.0588C41.0178 34.0365 41.5308 34.0477 42.0438 34.0477C42.6461 34.0477 42.9472 33.754 42.9472 33.1666C42.9547 32.252 42.4974 31.7948 41.5754 31.7948ZM18.154 31.7948H17.9198C17.3175 31.7948 17.0164 32.0922 17.0164 32.687C17.0164 33.5941 17.4736 34.0477 18.3882 34.0477C18.7674 34.0477 19.1354 34.0477 19.5146 34.0588C19.7377 34.0588 19.8158 33.9808 19.8381 33.7577C20.05 31.8282 20.0277 31.7948 18.154 31.7948ZM18.154 31.7948H17.9198C17.3175 31.7948 17.0164 32.0922 17.0164 32.687C17.0164 33.5941 17.4736 34.0477 18.3882 34.0477C18.7674 34.0477 19.1354 34.0477 19.5146 34.0588C19.7377 34.0588 19.8158 33.9808 19.8381 33.7577C20.05 31.8282 20.0277 31.7948 18.154 31.7948ZM18.154 31.7948H17.9198C17.3175 31.7948 17.0164 32.0922 17.0164 32.687C17.0164 33.5941 17.4736 34.0477 18.3882 34.0477C18.7674 34.0477 19.1354 34.0477 19.5146 34.0588C19.7377 34.0588 19.8158 33.9808 19.8381 33.7577C20.05 31.8282 20.0277 31.7948 18.154 31.7948ZM18.154 31.7948H17.9198C17.3175 31.7948 17.0164 32.0922 17.0164 32.687C17.0164 33.5941 17.4736 34.0477 18.3882 34.0477C18.7674 34.0477 19.1354 34.0477 19.5146 34.0588C19.7377 34.0588 19.8158 33.9808 19.8381 33.7577C20.05 31.8282 20.0277 31.7948 18.154 31.7948ZM18.154 31.7948H17.9198C17.3175 31.7948 17.0164 32.0922 17.0164 32.687C17.0164 33.5941 17.4736 34.0477 18.3882 34.0477C18.7674 34.0477 19.1354 34.0477 19.5146 34.0588C19.7377 34.0588 19.8158 33.9808 19.8381 33.7577C20.05 31.8282 20.0277 31.7948 18.154 31.7948Z" fill="#262626"/>
<path d="M42.9473 33.1661C42.9473 33.7535 42.6462 34.0472 42.0439 34.0472C41.5309 34.0472 41.0178 34.036 40.5048 34.0583C40.2483 34.0695 40.1479 33.9802 40.159 33.7237C40.1813 33.2107 40.1813 32.6976 40.159 32.1846C40.1479 31.8612 40.2706 31.7719 40.5717 31.7942C40.9063 31.8166 41.2409 31.7942 41.5755 31.7942C42.4975 31.7942 42.9547 32.2515 42.9473 33.1661Z" fill="#262626"/>
<path d="M19.8374 33.7579C19.815 33.9809 19.737 34.059 19.5139 34.059C19.1347 34.0478 18.7667 34.0478 18.3875 34.0478C17.4729 34.0478 17.0156 33.5943 17.0156 32.6872C17.0156 32.0923 17.3168 31.7949 17.919 31.7949H18.1532C20.027 31.7949 20.0493 31.8284 19.8374 33.7579Z" fill="#262626"/>
<path d="M42.9473 33.1661C42.9473 33.7535 42.6462 34.0472 42.0439 34.0472C41.5309 34.0472 41.0178 34.036 40.5048 34.0583C40.2483 34.0695 40.1479 33.9802 40.159 33.7237C40.1813 33.2107 40.1813 32.6976 40.159 32.1846C40.1479 31.8612 40.2706 31.7719 40.5717 31.7942C40.9063 31.8166 41.2409 31.7942 41.5755 31.7942C42.4975 31.7942 42.9547 32.2515 42.9473 33.1661Z" fill="#262626"/>
<path d="M19.8374 33.7579C19.815 33.9809 19.737 34.059 19.5139 34.059C19.1347 34.0478 18.7667 34.0478 18.3875 34.0478C17.4729 34.0478 17.0156 33.5943 17.0156 32.6872C17.0156 32.0923 17.3168 31.7949 17.919 31.7949H18.1532C20.027 31.7949 20.0493 31.8284 19.8374 33.7579Z" fill="#262626"/>
</svg>
