<svg width="60" height="61" viewBox="0 0 60 61" fill="none" xmlns="http://www.w3.org/2000/svg">
<path d="M23.239 29.1049C23.1577 29.1965 23.056 29.3083 22.9441 29.4202C22.5475 29.8066 22.1713 30.4574 21.7442 30.4981C21.2967 30.5388 20.9408 29.8168 20.5442 29.4405C20.1781 29.1049 19.8425 28.7287 19.4765 28.3931C19.2934 28.2202 19.2832 28.1084 19.4663 27.9253C19.8629 27.5592 20.2391 27.183 20.6052 26.7966C20.7883 26.6034 20.9001 26.6237 21.073 26.7966C21.7238 27.4779 22.395 28.1287 23.056 28.7999C23.1373 28.8711 23.2492 28.9321 23.239 29.1049Z" fill="#262626"/>
<path d="M31.1097 25.017C31.1097 25.5763 31.3232 26.3186 31.0486 26.6237C30.7334 27 29.9707 26.6949 29.4013 26.7559C29.0148 26.7966 28.8623 26.6847 28.8826 26.2576C28.9131 25.3932 28.903 24.5289 28.8826 23.6645C28.8725 23.2984 28.9945 23.2069 29.3402 23.2272C29.7775 23.2476 30.225 23.2577 30.6622 23.2272C31.0995 23.1866 31.191 23.3696 31.1605 23.756C31.13 24.173 31.1605 24.6001 31.1605 25.017H31.1097Z" fill="#262626"/>
<path d="M40.5664 27.915C40.6986 28.0472 40.8104 28.1489 40.6172 28.3319C39.9054 29.0336 39.2037 29.7454 38.502 30.4471C38.4512 30.4979 38.3902 30.5386 38.319 30.5895C38.2377 30.5284 38.1868 30.4878 38.1258 30.4369C37.7292 30.0403 37.3428 29.6437 36.936 29.2675C36.753 29.0946 36.7631 28.9827 36.9462 28.8099C37.6377 28.1387 38.3088 27.4676 38.98 26.7761C39.163 26.5828 39.2647 26.6032 39.4376 26.7761C39.8037 27.1625 40.1901 27.5387 40.5664 27.915Z" fill="#262626"/>
<path d="M42.672 19.7391H35.1774C33.8452 19.7391 33.8656 19.7391 33.8961 18.4171C33.8961 18.0612 34.0486 18.0103 34.3435 18.0205C35.1062 18.0307 35.879 18.0205 36.6519 18.0205C37.8213 18.0205 38.5637 17.4816 38.9298 16.3731C39.2958 15.2545 39.6721 14.1258 40.028 12.997C40.5568 11.3496 39.5297 9.95646 37.801 9.94629H30.0217C27.3879 9.94629 24.7541 9.94629 22.1305 9.94629C20.6458 9.94629 19.5476 11.2784 19.934 12.6513C20.3001 13.9732 20.7373 15.285 21.1949 16.5867C21.5102 17.4917 22.3034 18.0002 23.2796 18.0103C23.8389 18.0205 24.3982 18.0103 24.9575 18.0103C26.1473 18.0103 26.1269 18.0103 26.1473 19.2103C26.1473 19.6374 26.0456 19.7493 25.6083 19.7391C22.8627 19.7187 20.117 19.7289 17.3714 19.7289C13.5987 19.7391 10.2429 22.1085 8.90055 25.6371C8.28024 27.2642 8.33109 28.9522 8.34126 30.6301C8.35143 33.1216 10.1819 34.952 12.6733 34.952C15.5918 34.9621 18.5103 34.9622 21.4288 34.9418C21.8458 34.9418 21.9068 35.0638 21.8152 35.4299C21.5509 36.5078 21.5305 37.5959 21.7034 38.684C22.4356 43.3008 26.971 46.504 31.547 45.6193C36.2553 44.7143 39.3162 40.128 38.2484 35.5418C38.1264 35.0232 38.2484 34.9418 38.7365 34.9418C41.6754 34.9622 44.6143 34.9723 47.5531 34.952C49.8005 34.9418 51.6512 33.1012 51.7021 30.8539C51.7123 30.1319 51.7123 29.3997 51.7021 28.6675C51.6512 23.7457 47.604 19.7391 42.672 19.7289V19.7391ZM23.8084 15.8037C23.3711 15.8138 23.2084 15.6613 23.0965 15.2647C22.8525 14.4105 22.5779 13.5461 22.2729 12.7021C22.1203 12.275 22.222 12.1835 22.6491 12.1937C25.11 12.2038 27.5709 12.1937 30.0217 12.1937C32.4724 12.1937 34.9028 12.214 37.3434 12.1835C37.8417 12.1835 37.923 12.3055 37.7501 12.7631C37.4451 13.6275 37.1807 14.5122 36.9061 15.3867C36.8248 15.6816 36.6824 15.8037 36.3468 15.8037C34.9435 15.7732 33.5402 15.8037 32.147 15.7833C31.7402 15.7732 31.6284 15.8952 31.6385 16.2918C31.6691 17.2883 31.6284 18.2849 31.6589 19.2815C31.6691 19.6781 31.5369 19.7594 31.1708 19.7493C30.3878 19.7187 29.5946 19.7289 28.8116 19.7493C28.4861 19.7594 28.3845 19.6679 28.3946 19.3323C28.415 18.3052 28.3845 17.268 28.4048 16.2308C28.415 15.8647 28.3031 15.7833 27.9574 15.7833C26.5744 15.8037 25.1914 15.7732 23.8084 15.8037ZM28.8929 37.3417C28.8929 39.2026 28.8929 41.0636 28.8929 42.9245C28.9031 43.3211 28.8116 43.4126 28.415 43.3008C25.771 42.6093 23.8287 40.0975 23.8186 37.3214C23.8186 34.5656 25.771 32.0436 28.415 31.3521C28.8116 31.2504 28.9031 31.3013 28.8929 31.7081C28.8929 33.5893 28.8929 35.4706 28.8929 37.3417ZM31.6487 43.3008C31.1911 43.4228 31.1504 43.2804 31.1504 42.8838C31.1606 41.0331 31.1606 39.1721 31.1606 37.3112C31.1606 35.4503 31.1708 33.63 31.1403 31.7894C31.1403 31.2708 31.2826 31.2403 31.7199 31.3725C34.374 32.1352 36.2553 34.6164 36.2248 37.362C36.2044 40.128 34.2927 42.5788 31.6487 43.3008ZM49.4649 30.62C49.4446 31.9013 48.6107 32.7453 47.3294 32.7453C44.0448 32.7555 40.7602 32.7453 37.4756 32.7555C37.201 32.7555 37.0485 32.6639 36.8756 32.4301C33.3571 27.7014 26.6862 27.7116 23.1576 32.4402C22.9949 32.6741 22.8322 32.7555 22.5576 32.7555C19.273 32.7453 15.9884 32.7555 12.7038 32.7453C11.4225 32.7453 10.5784 31.8911 10.5784 30.6098C10.5784 29.4099 10.4869 28.1896 10.8225 27.01C11.6767 23.9491 14.3308 21.9763 17.6358 21.9661C21.8051 21.9661 25.9744 21.9661 30.1437 21.9661C34.313 21.9661 38.2789 21.9458 42.3567 21.9661C45.3058 21.9864 47.5023 23.2677 48.8242 25.9422C49.2513 26.7964 49.4446 27.7116 49.4649 28.6573C49.4852 29.3183 49.4751 29.9691 49.4649 30.62Z" fill="#262626"/>
<path d="M31.1506 49.7075C31.1506 50.1651 31.1405 50.6227 31.1506 51.0905C31.1506 51.3346 31.0795 51.4566 30.8252 51.4159C30.8049 51.4159 30.7846 51.4159 30.7642 51.4159C30.1541 51.4057 29.3711 51.6091 28.9846 51.3142C28.6186 51.0295 28.9033 50.2058 28.8728 49.616C28.8728 49.5956 28.8728 49.5753 28.8728 49.555C28.9135 49.0262 28.6491 48.2025 28.9745 48.0296C29.4931 47.7652 30.2354 47.9381 30.8862 47.9178C31.1405 47.9178 31.1405 48.0805 31.1405 48.2635C31.1405 48.7415 31.1405 49.2194 31.1405 49.6973L31.1506 49.7075Z" fill="#262626"/>
<path d="M23.3814 45.5995C22.5678 46.4028 21.795 47.1452 21.0425 47.9079C20.8696 48.0807 20.7679 48.0502 20.6459 47.8875C20.6357 47.8773 20.6154 47.857 20.6052 47.8468C20.1883 47.3791 19.4154 47.013 19.4053 46.4842C19.4053 46.0673 20.1476 45.63 20.5544 45.2131C20.8493 44.908 21.1645 44.6334 21.4391 44.3182C21.6425 44.0945 21.7747 44.0334 22.0187 44.2877C22.4357 44.7351 22.8933 45.1317 23.3712 45.5893L23.3814 45.5995Z" fill="#262626"/>
<path d="M40.7804 46.5754C40.6381 46.6872 40.5059 46.7991 40.3737 46.9109C39.9669 47.277 39.6212 47.9787 39.1737 47.9685C38.7771 47.9583 38.4009 47.2872 38.0246 46.9109C37.9941 46.8804 37.9738 46.8601 37.9433 46.8296C37.5569 46.4025 37.0891 46.0669 36.7637 45.589C37.2213 45.1212 37.6789 44.6636 38.1365 44.1856C38.2585 44.0636 38.3399 44.0534 38.4619 44.1755C39.1737 44.8975 39.8957 45.6195 40.6177 46.3415C40.6686 46.3923 40.6991 46.4635 40.7804 46.5754Z" fill="#262626"/>
<path d="M17.6767 38.4398C17.1988 38.4398 16.7208 38.4296 16.2429 38.4398C15.9886 38.4398 15.8869 38.3584 15.9175 38.1143C15.9175 38.094 15.9175 38.0737 15.9175 38.0533C15.9581 37.4534 15.6632 36.6703 16.0395 36.3043C16.3344 36.0094 17.1276 36.2026 17.697 36.2127C18.2665 36.2229 19.019 35.9585 19.3343 36.3246C19.6088 36.6398 19.3851 37.3822 19.4258 37.9313C19.4563 38.3177 19.3648 38.4906 18.9377 38.4499C18.5207 38.4093 18.0936 38.4499 17.6767 38.4499V38.4398Z" fill="#262626"/>
<path d="M42.3567 38.4401C41.9703 38.4401 41.5839 38.3995 41.2076 38.4401C40.6687 38.5113 40.5568 38.2876 40.6077 37.8097C40.6483 37.3012 40.4348 36.6097 40.6992 36.3148C41.0042 35.9691 41.7059 36.2233 42.2245 36.203C42.7228 36.1826 43.2211 36.203 43.7194 36.203C43.9939 36.203 44.1465 36.2335 44.1261 36.569C44.0956 37.0877 44.1058 37.5961 44.1261 38.1147C44.1261 38.369 44.0448 38.4503 43.8007 38.4401C43.3228 38.43 42.8448 38.4401 42.3669 38.4401H42.3567Z" fill="#262626"/>
<path d="M23.239 29.1049C23.1577 29.1965 23.056 29.3083 22.9441 29.4202C22.5475 29.8066 22.1713 30.4574 21.7442 30.4981C21.2967 30.5388 20.9408 29.8168 20.5442 29.4405C20.1781 29.1049 19.8425 28.7287 19.4765 28.3931C19.2934 28.2202 19.2832 28.1084 19.4663 27.9253C19.8629 27.5592 20.2391 27.183 20.6052 26.7966C20.7883 26.6034 20.9001 26.6237 21.073 26.7966C21.7238 27.4779 22.395 28.1287 23.056 28.7999C23.1373 28.8711 23.2492 28.9321 23.239 29.1049Z" fill="#262626"/>
<path d="M31.1097 25.017C31.1097 25.5763 31.3232 26.3186 31.0486 26.6237C30.7334 27 29.9707 26.6949 29.4013 26.7559C29.0148 26.7966 28.8623 26.6847 28.8826 26.2576C28.9131 25.3932 28.903 24.5289 28.8826 23.6645C28.8725 23.2984 28.9945 23.2069 29.3402 23.2272C29.7775 23.2476 30.225 23.2577 30.6622 23.2272C31.0995 23.1866 31.191 23.3696 31.1605 23.756C31.13 24.173 31.1605 24.6001 31.1605 25.017H31.1097Z" fill="#262626"/>
<path d="M40.6172 28.3319C39.9054 29.0336 39.2037 29.7454 38.502 30.4471C38.4512 30.4979 38.3902 30.5386 38.319 30.5895C38.2377 30.5284 38.1868 30.4878 38.1258 30.4369C37.7292 30.0403 37.3428 29.6437 36.936 29.2675C36.753 29.0946 36.7631 28.9827 36.9462 28.8099C37.6377 28.1387 38.3088 27.4676 38.98 26.7761C39.163 26.5828 39.2647 26.6032 39.4376 26.7761C39.8037 27.1625 40.1901 27.5387 40.5664 27.915C40.6986 28.0472 40.8104 28.1489 40.6172 28.3319Z" fill="#262626"/>
<path d="M31.0486 26.6237C30.7334 27 29.9707 26.6949 29.4013 26.7559C29.0148 26.7966 28.8623 26.6847 28.8826 26.2576C28.9131 25.3932 28.903 24.5289 28.8826 23.6645C28.8725 23.2984 28.9945 23.2069 29.3402 23.2272C29.7775 23.2476 30.225 23.2577 30.6622 23.2272C31.0995 23.1866 31.191 23.3696 31.1605 23.756C31.13 24.173 31.1605 24.6001 31.1605 25.017H31.1097C31.1097 25.5763 31.3232 26.3186 31.0486 26.6237Z" fill="#262626"/>
<path d="M40.6172 28.3319C39.9054 29.0336 39.2037 29.7454 38.502 30.4471C38.4512 30.4979 38.3902 30.5386 38.319 30.5895C38.2377 30.5284 38.1868 30.4878 38.1258 30.4369C37.7292 30.0403 37.3428 29.6437 36.936 29.2675C36.753 29.0946 36.7631 28.9827 36.9462 28.8099C37.6377 28.1387 38.3088 27.4676 38.98 26.7761C39.163 26.5828 39.2647 26.6032 39.4376 26.7761C39.8037 27.1625 40.1901 27.5387 40.5664 27.915C40.6986 28.0472 40.8104 28.1489 40.6172 28.3319Z" fill="#262626"/>
<path d="M23.239 29.1049C23.1577 29.1965 23.056 29.3083 22.9441 29.4202C22.5475 29.8066 22.1713 30.4574 21.7442 30.4981C21.2967 30.5388 20.9408 29.8168 20.5442 29.4405C20.1781 29.1049 19.8425 28.7287 19.4765 28.3931C19.2934 28.2202 19.2832 28.1084 19.4663 27.9253C19.8629 27.5592 20.2391 27.183 20.6052 26.7966C20.7883 26.6034 20.9001 26.6237 21.073 26.7966C21.7238 27.4779 22.395 28.1287 23.056 28.7999C23.1373 28.8711 23.2492 28.9321 23.239 29.1049Z" fill="#262626"/>
</svg>
