<svg width="60" height="61" viewBox="0 0 60 61" fill="none" xmlns="http://www.w3.org/2000/svg">
<path d="M20.8685 36.5958C18.785 36.5843 17.125 38.2443 17.125 40.3279C17.125 42.4114 18.7735 44.0599 20.88 44.0599C22.9864 44.0599 24.5892 42.4 24.6121 40.3507C24.6235 38.2786 22.9521 36.5958 20.8685 36.5958ZM20.8571 42.171C19.8611 42.171 19.0025 41.3124 19.0139 40.3279C19.0254 39.3204 19.8725 38.4847 20.8685 38.4847C21.876 38.4962 22.7002 39.3319 22.7002 40.3393C22.6888 41.3467 21.8645 42.1824 20.8571 42.171Z" fill="#262626"/>
<path d="M39.1403 36.5959C37.0796 36.6074 35.4197 38.2559 35.4082 40.3166C35.4082 42.4116 37.1025 44.083 39.209 44.0601C41.2925 44.0487 42.9182 42.3772 42.8953 40.2593C42.8838 38.233 41.1895 36.573 39.1403 36.5959ZM39.1403 42.1826C38.1329 42.1597 37.32 41.324 37.3315 40.3166C37.3315 39.3091 38.1672 38.4849 39.1746 38.4849C40.1706 38.4963 41.0178 39.3435 41.0063 40.3509C40.9949 41.3355 40.1248 42.1941 39.1403 42.1826Z" fill="#262626"/>
<path d="M31.0236 21.6104C29.9933 21.5875 28.9744 21.6219 27.944 21.599C27.612 21.599 27.5319 21.7135 27.5319 22.034C27.5548 23.1101 27.5319 24.1977 27.5319 25.2853V28.5823C27.5319 28.777 27.4861 28.9372 27.7952 28.983C29.3636 29.1662 29.4208 29.1204 29.4208 27.5635C29.4208 27.4719 29.4323 27.3688 29.4208 27.2773C29.3751 26.9567 29.5239 26.888 29.8215 26.8995C30.2451 26.9109 30.6687 26.9109 31.0923 26.8995C32.5347 26.8079 33.6109 25.6516 33.588 24.2206C33.5765 22.801 32.4546 21.6562 31.0121 21.6219L31.0236 21.6104ZM30.9091 24.9991C30.7145 25.0105 30.5199 24.9991 30.2795 24.9991C30.039 24.9304 29.5811 25.1822 29.4781 24.896C29.3407 24.5183 29.4323 24.0489 29.4437 23.6253C29.4437 23.465 29.604 23.5108 29.7185 23.4994C30.1192 23.4994 30.5313 23.4879 30.932 23.5108C31.3785 23.5337 31.6761 23.7856 31.6761 24.2321C31.6876 24.7129 31.3899 24.9762 30.9091 24.9991ZM31.0236 21.6104C29.9933 21.5875 28.9744 21.6219 27.944 21.599C27.612 21.599 27.5319 21.7135 27.5319 22.034C27.5548 23.1101 27.5319 24.1977 27.5319 25.2853V28.5823C27.5319 28.777 27.4861 28.9372 27.7952 28.983C29.3636 29.1662 29.4208 29.1204 29.4208 27.5635C29.4208 27.4719 29.4323 27.3688 29.4208 27.2773C29.3751 26.9567 29.5239 26.888 29.8215 26.8995C30.2451 26.9109 30.6687 26.9109 31.0923 26.8995C32.5347 26.8079 33.6109 25.6516 33.588 24.2206C33.5765 22.801 32.4546 21.6562 31.0121 21.6219L31.0236 21.6104ZM30.9091 24.9991C30.7145 25.0105 30.5199 24.9991 30.2795 24.9991C30.039 24.9304 29.5811 25.1822 29.4781 24.896C29.3407 24.5183 29.4323 24.0489 29.4437 23.6253C29.4437 23.465 29.604 23.5108 29.7185 23.4994C30.1192 23.4994 30.5313 23.4879 30.932 23.5108C31.3785 23.5337 31.6761 23.7856 31.6761 24.2321C31.6876 24.7129 31.3899 24.9762 30.9091 24.9991ZM31.0236 21.6104C29.9933 21.5875 28.9744 21.6219 27.944 21.599C27.612 21.599 27.5319 21.7135 27.5319 22.034C27.5548 23.1101 27.5319 24.1977 27.5319 25.2853V28.5823C27.5319 28.777 27.4861 28.9372 27.7952 28.983C29.3636 29.1662 29.4208 29.1204 29.4208 27.5635C29.4208 27.4719 29.4323 27.3688 29.4208 27.2773C29.3751 26.9567 29.5239 26.888 29.8215 26.8995C30.2451 26.9109 30.6687 26.9109 31.0923 26.8995C32.5347 26.8079 33.6109 25.6516 33.588 24.2206C33.5765 22.801 32.4546 21.6562 31.0121 21.6219L31.0236 21.6104ZM30.9091 24.9991C30.7145 25.0105 30.5199 24.9991 30.2795 24.9991C30.039 24.9304 29.5811 25.1822 29.4781 24.896C29.3407 24.5183 29.4323 24.0489 29.4437 23.6253C29.4437 23.465 29.604 23.5108 29.7185 23.4994C30.1192 23.4994 30.5313 23.4879 30.932 23.5108C31.3785 23.5337 31.6761 23.7856 31.6761 24.2321C31.6876 24.7129 31.3899 24.9762 30.9091 24.9991ZM31.0236 21.6104C29.9933 21.5875 28.9744 21.6219 27.944 21.599C27.612 21.599 27.5319 21.7135 27.5319 22.034C27.5548 23.1101 27.5319 24.1977 27.5319 25.2853V28.5823C27.5319 28.777 27.4861 28.9372 27.7952 28.983C29.3636 29.1662 29.4208 29.1204 29.4208 27.5635C29.4208 27.4719 29.4323 27.3688 29.4208 27.2773C29.3751 26.9567 29.5239 26.888 29.8215 26.8995C30.2451 26.9109 30.6687 26.9109 31.0923 26.8995C32.5347 26.8079 33.6109 25.6516 33.588 24.2206C33.5765 22.801 32.4546 21.6562 31.0121 21.6219L31.0236 21.6104ZM30.9091 24.9991C30.7145 25.0105 30.5199 24.9991 30.2795 24.9991C30.039 24.9304 29.5811 25.1822 29.4781 24.896C29.3407 24.5183 29.4323 24.0489 29.4437 23.6253C29.4437 23.465 29.604 23.5108 29.7185 23.4994C30.1192 23.4994 30.5313 23.4879 30.932 23.5108C31.3785 23.5337 31.6761 23.7856 31.6761 24.2321C31.6876 24.7129 31.3899 24.9762 30.9091 24.9991ZM49.5352 30.8491C49.2834 29.75 48.4018 28.88 47.2799 28.7197C45.5627 28.4564 44.0058 28.7426 42.8266 30.2538C42.4145 28.9487 42.0252 27.7123 41.5215 26.4988C40.9148 24.9876 39.9302 23.9687 38.2588 23.7283C37.9497 23.6825 37.8352 23.4994 37.7551 23.2017C36.7934 19.7673 33.6338 17.3632 30.1192 17.3517C26.4558 17.3288 23.2961 19.6643 22.2887 23.1559C22.1856 23.4994 22.0483 23.6825 21.6934 23.7398C20.1708 23.9802 19.1748 24.8617 18.5795 26.2813C18.0414 27.552 17.6178 28.8685 17.1828 30.2652C17.0569 30.1164 16.9767 30.0134 16.8851 29.9103C15.6373 28.4679 13.4507 28.4221 12.2258 28.8456C10.9207 29.3036 10.3597 30.3568 10.3941 32.1771C10.417 33.8714 11.6991 35.1765 13.3935 35.2223C13.8514 35.2337 14.3093 35.2223 14.8588 35.2223C13.9544 36.4014 13.3477 37.6264 13.3591 39.0459C13.382 41.0608 13.4965 43.0642 14.0117 45.0219C14.1834 45.6858 14.3437 46.4414 14.8932 46.8078C15.5801 47.2657 15.4656 47.8495 15.477 48.4563C15.4885 48.731 15.477 48.9944 15.477 49.2691C15.4999 50.6314 16.4616 51.5816 17.8353 51.6045C18.4306 51.6045 19.0374 51.5587 19.6327 51.6045C22.0254 51.7991 23.0328 50.5399 22.8153 48.4677C22.7695 48.0671 22.9183 47.9526 23.3304 47.964C27.4632 47.9755 31.6074 47.9755 35.7402 47.9869C36.2096 47.9869 36.8049 47.8152 37.1025 48.0327C37.4231 48.2731 37.1827 48.9028 37.2056 49.3492C37.2628 50.6085 38.2245 51.5816 39.4838 51.5931C40.4111 51.616 41.3384 51.616 42.2656 51.5931C43.5364 51.5816 44.498 50.62 44.5324 49.3492C44.5438 48.7768 44.5324 48.193 44.5324 47.6091C44.5438 47.4718 44.4751 47.3 44.6583 47.197C45.4597 46.7849 45.7001 45.9949 45.9291 45.2165C46.49 43.3504 46.5587 41.4157 46.6503 39.481C46.719 38.0728 46.2725 36.825 45.4826 35.6802C45.391 35.5428 45.2078 35.4512 45.2651 35.2223H46.5358C47.0052 35.2223 47.4516 35.1192 47.8752 34.9132C49.3062 34.2263 49.9359 32.6808 49.5352 30.8491ZM29.9933 19.2407C33.3819 19.2178 36.1867 22.0455 36.1638 25.457C36.1409 28.8228 33.3819 31.5589 30.0047 31.5474C26.5932 31.5474 23.8571 28.7884 23.8571 25.3769C23.8571 21.9653 26.6275 19.2636 29.9933 19.2407ZM14.481 33.2875H13.3248C12.9813 33.2761 12.6951 33.1387 12.5349 32.8639C12.18 32.2801 12.2372 31.6504 12.4318 31.0322C12.4891 30.8262 12.6951 30.6545 12.8898 30.6201C14.5154 30.3454 16.1181 30.7918 15.9922 32.9899C15.9693 33.2646 15.8548 33.299 15.6373 33.299C15.2481 33.2875 14.8588 33.2875 14.481 33.2875ZM44.7384 39.8931C44.6125 41.5302 44.5553 43.1673 44.0859 44.77C43.9371 45.2852 43.7081 45.64 43.1243 45.6286C42.735 45.6286 42.6205 45.8232 42.6434 46.2125C42.6663 47.1627 42.6434 48.1128 42.6549 49.063C42.6549 49.4981 42.4946 49.7041 42.0481 49.6927C41.2697 49.6698 40.4912 49.6698 39.7242 49.6927C39.2319 49.7041 39.0831 49.4866 39.0945 49.0287C39.1174 48.1701 39.0831 47.3229 39.106 46.4643C39.1174 46.098 39.0258 45.9949 38.6366 45.9949C35.7517 46.0178 32.8667 45.9949 29.9818 45.9949C27.0969 45.9949 24.3035 46.0178 21.453 45.9949C20.9721 45.9949 20.8691 46.1209 20.892 46.5673C20.9149 47.4031 20.892 48.2273 20.9034 49.063C20.9149 49.5095 20.7546 49.7041 20.2967 49.6927C19.5182 49.6698 18.7512 49.6698 17.9727 49.6927C17.5262 49.7041 17.3545 49.5095 17.3545 49.063C17.3774 48.1014 17.3545 47.1283 17.366 46.1667C17.3774 45.8461 17.3316 45.6401 16.9538 45.6515C16.2898 45.6744 16.0265 45.2508 15.8777 44.6784C15.3969 42.7322 15.1679 40.7403 15.3053 38.7483C15.3969 37.3058 16.267 36.2182 17.5148 35.4741C17.8468 35.2795 18.0071 35.062 18.0872 34.6842C18.6482 32.1427 19.232 29.6012 20.2738 27.1971C20.5257 26.6018 20.7661 25.9722 21.4987 25.7547C21.8422 25.6516 21.9681 25.6745 22.0025 26.0752C22.3574 30.3225 25.8834 33.5165 30.1306 33.4707C34.2291 33.4249 37.6978 30.1965 38.0184 26.121C38.0527 25.6974 38.1672 25.6402 38.545 25.7775C38.9457 25.9149 39.1975 26.1668 39.3922 26.5102C40.2279 28.0557 40.6858 29.7272 41.1437 31.3986C41.4528 32.5319 41.7047 33.6882 41.9565 34.833C42.0138 35.0849 42.0939 35.2452 42.3229 35.3711C44.0401 36.39 44.8987 37.8668 44.7384 39.8931ZM47.6463 32.4633C47.589 32.967 47.1998 33.2532 46.6732 33.2875C46.261 33.299 45.8604 33.2875 45.4597 33.2875H44.9331C44.2843 33.2875 43.9867 32.967 44.0401 32.3259C44.1088 31.3871 44.8644 30.643 45.8031 30.5743C45.9176 30.5743 46.0321 30.5743 46.1466 30.5629C47.7836 30.4484 47.7951 31.1696 47.6463 32.4633ZM27.5434 28.5823C27.5434 28.777 27.4976 28.9372 27.8067 28.983C29.3751 29.1662 29.4323 29.1204 29.4323 27.5635C29.4323 27.4719 29.4437 27.3688 29.4323 27.2773C29.3865 26.9567 29.5353 26.888 29.833 26.8995C30.2566 26.9109 30.6801 26.9109 31.1037 26.8995C32.5462 26.8079 33.6223 25.6516 33.5994 24.2206C33.588 22.801 32.4661 21.6562 31.0236 21.6219C29.9933 21.599 28.9744 21.6333 27.944 21.6104C27.612 21.6104 27.5319 21.7249 27.5319 22.0455C27.5548 23.1216 27.5319 24.2092 27.5319 25.2967V28.5938L27.5434 28.5823ZM29.4437 23.6253C29.4437 23.465 29.604 23.5108 29.7185 23.4994C30.1192 23.4994 30.5313 23.4879 30.932 23.5108C31.3785 23.5337 31.6761 23.7856 31.6761 24.2321C31.6876 24.7129 31.3899 24.9762 30.9091 24.9991C30.7145 25.0105 30.5199 24.9991 30.2795 24.9991C30.039 24.9304 29.5811 25.1822 29.4781 24.896C29.3407 24.5183 29.4323 24.0489 29.4437 23.6253ZM31.0236 21.6104C29.9933 21.5875 28.9744 21.6219 27.944 21.599C27.612 21.599 27.5319 21.7135 27.5319 22.034C27.5548 23.1101 27.5319 24.1977 27.5319 25.2853V28.5823C27.5319 28.777 27.4861 28.9372 27.7952 28.983C29.3636 29.1662 29.4208 29.1204 29.4208 27.5635C29.4208 27.4719 29.4323 27.3688 29.4208 27.2773C29.3751 26.9567 29.5239 26.888 29.8215 26.8995C30.2451 26.9109 30.6687 26.9109 31.0923 26.8995C32.5347 26.8079 33.6109 25.6516 33.588 24.2206C33.5765 22.801 32.4546 21.6562 31.0121 21.6219L31.0236 21.6104ZM30.9091 24.9991C30.7145 25.0105 30.5199 24.9991 30.2795 24.9991C30.039 24.9304 29.5811 25.1822 29.4781 24.896C29.3407 24.5183 29.4323 24.0489 29.4437 23.6253C29.4437 23.465 29.604 23.5108 29.7185 23.4994C30.1192 23.4994 30.5313 23.4879 30.932 23.5108C31.3785 23.5337 31.6761 23.7856 31.6761 24.2321C31.6876 24.7129 31.3899 24.9762 30.9091 24.9991ZM31.0236 21.6104C29.9933 21.5875 28.9744 21.6219 27.944 21.599C27.612 21.599 27.5319 21.7135 27.5319 22.034C27.5548 23.1101 27.5319 24.1977 27.5319 25.2853V28.5823C27.5319 28.777 27.4861 28.9372 27.7952 28.983C29.3636 29.1662 29.4208 29.1204 29.4208 27.5635C29.4208 27.4719 29.4323 27.3688 29.4208 27.2773C29.3751 26.9567 29.5239 26.888 29.8215 26.8995C30.2451 26.9109 30.6687 26.9109 31.0923 26.8995C32.5347 26.8079 33.6109 25.6516 33.588 24.2206C33.5765 22.801 32.4546 21.6562 31.0121 21.6219L31.0236 21.6104ZM30.9091 24.9991C30.7145 25.0105 30.5199 24.9991 30.2795 24.9991C30.039 24.9304 29.5811 25.1822 29.4781 24.896C29.3407 24.5183 29.4323 24.0489 29.4437 23.6253C29.4437 23.465 29.604 23.5108 29.7185 23.4994C30.1192 23.4994 30.5313 23.4879 30.932 23.5108C31.3785 23.5337 31.6761 23.7856 31.6761 24.2321C31.6876 24.7129 31.3899 24.9762 30.9091 24.9991ZM31.0236 21.6104C29.9933 21.5875 28.9744 21.6219 27.944 21.599C27.612 21.599 27.5319 21.7135 27.5319 22.034C27.5548 23.1101 27.5319 24.1977 27.5319 25.2853V28.5823C27.5319 28.777 27.4861 28.9372 27.7952 28.983C29.3636 29.1662 29.4208 29.1204 29.4208 27.5635C29.4208 27.4719 29.4323 27.3688 29.4208 27.2773C29.3751 26.9567 29.5239 26.888 29.8215 26.8995C30.2451 26.9109 30.6687 26.9109 31.0923 26.8995C32.5347 26.8079 33.6109 25.6516 33.588 24.2206C33.5765 22.801 32.4546 21.6562 31.0121 21.6219L31.0236 21.6104ZM30.9091 24.9991C30.7145 25.0105 30.5199 24.9991 30.2795 24.9991C30.039 24.9304 29.5811 25.1822 29.4781 24.896C29.3407 24.5183 29.4323 24.0489 29.4437 23.6253C29.4437 23.465 29.604 23.5108 29.7185 23.4994C30.1192 23.4994 30.5313 23.4879 30.932 23.5108C31.3785 23.5337 31.6761 23.7856 31.6761 24.2321C31.6876 24.7129 31.3899 24.9762 30.9091 24.9991ZM31.0236 21.6104C29.9933 21.5875 28.9744 21.6219 27.944 21.599C27.612 21.599 27.5319 21.7135 27.5319 22.034C27.5548 23.1101 27.5319 24.1977 27.5319 25.2853V28.5823C27.5319 28.777 27.4861 28.9372 27.7952 28.983C29.3636 29.1662 29.4208 29.1204 29.4208 27.5635C29.4208 27.4719 29.4323 27.3688 29.4208 27.2773C29.3751 26.9567 29.5239 26.888 29.8215 26.8995C30.2451 26.9109 30.6687 26.9109 31.0923 26.8995C32.5347 26.8079 33.6109 25.6516 33.588 24.2206C33.5765 22.801 32.4546 21.6562 31.0121 21.6219L31.0236 21.6104ZM30.9091 24.9991C30.7145 25.0105 30.5199 24.9991 30.2795 24.9991C30.039 24.9304 29.5811 25.1822 29.4781 24.896C29.3407 24.5183 29.4323 24.0489 29.4437 23.6253C29.4437 23.465 29.604 23.5108 29.7185 23.4994C30.1192 23.4994 30.5313 23.4879 30.932 23.5108C31.3785 23.5337 31.6761 23.7856 31.6761 24.2321C31.6876 24.7129 31.3899 24.9762 30.9091 24.9991Z" fill="#262626"/>
<path d="M36.4491 12.5199C36.346 12.623 36.2316 12.7489 36.1171 12.8748C35.8194 13.1725 35.5447 13.6304 35.1898 13.7106C34.8578 13.7907 34.5716 13.2755 34.2396 13.0466C31.4462 11.1004 27.8172 11.2721 25.2414 13.493C24.9552 13.7449 24.7605 13.825 24.5201 13.4816C24.4743 13.4244 24.4171 13.3671 24.3599 13.3213C23.7569 12.7184 23.7951 12.1651 24.4743 11.6613C28.0118 9.00537 32.9688 9.21144 36.14 12.1422C36.2545 12.2452 36.4033 12.3139 36.4491 12.5199Z" fill="#262626"/>
<path d="M29.9931 13.9512C31.2409 13.9512 32.3285 14.3633 33.3016 15.1532C33.542 15.3478 33.5649 15.4967 33.313 15.6798C33.2329 15.7371 33.1757 15.8172 33.107 15.8859C32.8437 16.1492 32.6261 16.5156 32.317 16.63C31.9621 16.7674 31.7332 16.3095 31.4126 16.1607C30.2449 15.6455 29.1459 15.7256 28.1385 16.4927C27.8523 16.6987 27.7149 16.7216 27.4859 16.4469C27.2684 16.1836 27.0166 15.9317 26.7533 15.7142C26.4442 15.4623 26.5243 15.3135 26.799 15.096C27.7378 14.3519 28.8025 13.9512 30.0045 13.9512H29.9931Z" fill="#262626"/>
<path d="M20.8685 36.5958C18.785 36.5843 17.125 38.2443 17.125 40.3279C17.125 42.4114 18.7735 44.0599 20.88 44.0599C22.9864 44.0599 24.5892 42.4 24.6121 40.3507C24.6235 38.2786 22.9521 36.5958 20.8685 36.5958ZM20.8571 42.171C19.8611 42.171 19.0025 41.3124 19.0139 40.3279C19.0254 39.3204 19.8725 38.4847 20.8685 38.4847C21.876 38.4962 22.7002 39.3319 22.7002 40.3393C22.6888 41.3467 21.8645 42.1824 20.8571 42.171Z" fill="#262626"/>
<path d="M39.1403 36.5959C37.0796 36.6074 35.4197 38.2559 35.4082 40.3166C35.4082 42.4116 37.1025 44.083 39.209 44.0601C41.2925 44.0487 42.9182 42.3772 42.8953 40.2593C42.8838 38.233 41.1895 36.573 39.1403 36.5959ZM39.1403 42.1826C38.1329 42.1597 37.32 41.324 37.3315 40.3166C37.3315 39.3091 38.1672 38.4849 39.1746 38.4849C40.1706 38.4963 41.0178 39.3435 41.0063 40.3509C40.9949 41.3355 40.1248 42.1941 39.1403 42.1826Z" fill="#262626"/>
<path d="M31.0234 21.6101C29.993 21.5872 28.9741 21.6215 27.9438 21.5986C27.6118 21.5986 27.5317 21.7131 27.5317 22.0337C27.5546 23.1098 27.5317 24.1974 27.5317 25.2849V28.582C27.5317 28.7766 27.4859 28.9369 27.795 28.9827C29.3634 29.1658 29.4206 29.1201 29.4206 27.5631C29.4206 27.4715 29.4321 27.3685 29.4206 27.2769C29.3748 26.9564 29.5237 26.8877 29.8213 26.8991C30.2449 26.9106 30.6685 26.9106 31.0921 26.8991C32.5345 26.8075 33.6106 25.6513 33.5877 24.2203C33.5763 22.8007 32.4544 21.6559 31.0119 21.6215L31.0234 21.6101ZM30.9089 24.9987C30.7143 25.0102 30.5196 24.9987 30.2792 24.9987C30.0388 24.93 29.5809 25.1819 29.4779 24.8957C29.3405 24.5179 29.4321 24.0485 29.4435 23.625C29.4435 23.4647 29.6038 23.5105 29.7183 23.499C30.119 23.499 30.5311 23.4876 30.9318 23.5105C31.3783 23.5334 31.6759 23.7852 31.6759 24.2317C31.6874 24.7125 31.3897 24.9758 30.9089 24.9987Z" fill="#262626"/>
<path d="M39.1403 36.5959C37.0796 36.6074 35.4197 38.2559 35.4082 40.3166C35.4082 42.4116 37.1025 44.083 39.209 44.0601C41.2925 44.0487 42.9182 42.3772 42.8953 40.2593C42.8838 38.233 41.1895 36.573 39.1403 36.5959ZM39.1403 42.1826C38.1329 42.1597 37.32 41.324 37.3315 40.3166C37.3315 39.3091 38.1672 38.4849 39.1746 38.4849C40.1706 38.4963 41.0178 39.3435 41.0063 40.3509C40.9949 41.3355 40.1248 42.1941 39.1403 42.1826Z" fill="#262626"/>
<path d="M20.8685 36.5958C18.785 36.5843 17.125 38.2443 17.125 40.3279C17.125 42.4114 18.7735 44.0599 20.88 44.0599C22.9864 44.0599 24.5892 42.4 24.6121 40.3507C24.6235 38.2786 22.9521 36.5958 20.8685 36.5958ZM20.8571 42.171C19.8611 42.171 19.0025 41.3124 19.0139 40.3279C19.0254 39.3204 19.8725 38.4847 20.8685 38.4847C21.876 38.4962 22.7002 39.3319 22.7002 40.3393C22.6888 41.3467 21.8645 42.1824 20.8571 42.171Z" fill="#262626"/>
<path d="M31.0234 21.6101C29.993 21.5872 28.9741 21.6215 27.9438 21.5986C27.6118 21.5986 27.5317 21.7131 27.5317 22.0337C27.5546 23.1098 27.5317 24.1974 27.5317 25.2849V28.582C27.5317 28.7766 27.4859 28.9369 27.795 28.9827C29.3634 29.1658 29.4206 29.1201 29.4206 27.5631C29.4206 27.4715 29.4321 27.3685 29.4206 27.2769C29.3748 26.9564 29.5237 26.8877 29.8213 26.8991C30.2449 26.9106 30.6685 26.9106 31.0921 26.8991C32.5345 26.8075 33.6106 25.6513 33.5877 24.2203C33.5763 22.8007 32.4544 21.6559 31.0119 21.6215L31.0234 21.6101ZM30.9089 24.9987C30.7143 25.0102 30.5196 24.9987 30.2792 24.9987C30.0388 24.93 29.5809 25.1819 29.4779 24.8957C29.3405 24.5179 29.4321 24.0485 29.4435 23.625C29.4435 23.4647 29.6038 23.5105 29.7183 23.499C30.119 23.499 30.5311 23.4876 30.9318 23.5105C31.3783 23.5334 31.6759 23.7852 31.6759 24.2317C31.6874 24.7125 31.3897 24.9758 30.9089 24.9987Z" fill="#262626"/>
</svg>
