<svg width="60" height="60" viewBox="0 0 60 60" fill="none" xmlns="http://www.w3.org/2000/svg">
<path d="M43.8349 44.7229C45.2586 43.1299 46.2841 41.3776 46.991 39.4461C47.4988 38.0621 47.8174 36.6483 47.9369 35.1748C47.9668 34.8462 47.8672 34.7766 47.5685 34.7865C46.7322 34.8064 45.9058 34.7865 45.0695 34.7965C44.8006 34.7965 44.6812 34.7367 44.7011 34.438C44.721 33.9601 44.721 33.4723 44.7011 32.9844C44.7011 32.7256 44.7708 32.6359 45.0396 32.6459C45.856 32.6658 46.6724 32.6459 47.4888 32.6559C47.8373 32.6559 47.9767 32.616 47.9369 32.1979C47.5984 28.7331 46.304 25.6765 44.0838 22.9982C43.9046 22.7891 43.805 22.7593 43.5959 22.9783C42.9985 23.6056 42.3713 24.2029 41.764 24.8302C41.5748 25.0293 41.4752 25.0094 41.296 24.8302C40.9675 24.4718 40.6289 24.1332 40.2705 23.8047C40.0515 23.6056 40.0813 23.4861 40.2805 23.2969C40.8978 22.7095 41.4752 22.0922 42.0925 21.5048C42.3116 21.2957 42.2916 21.1862 42.0726 21.007C39.7528 19.0854 37.1243 17.8409 34.1573 17.3331C33.6993 17.2534 33.2314 17.2136 32.7734 17.1439C32.4946 17.1041 32.3951 17.1937 32.405 17.4824C32.4249 18.3287 32.405 19.185 32.415 20.0312C32.415 20.3001 32.3552 20.4295 32.0566 20.4096C31.4791 20.3598 30.9016 20.4693 30.3241 20.3498C30.3142 19.8022 30.3042 19.2546 30.2943 18.7071C30.2943 18.3088 30.2744 17.9105 30.2943 17.5123C30.3142 17.1837 30.2047 17.124 29.906 17.1539C26.7299 17.4725 23.8625 18.5577 21.3137 20.4793C20.6632 20.9705 20.6201 21.4948 21.1842 22.0524C21.6124 22.4805 22.0206 22.9086 22.4587 23.3168C22.6578 23.496 22.6379 23.6155 22.4587 23.7848C22.1002 24.1133 21.7518 24.4519 21.4332 24.8103C21.234 25.0393 21.1146 24.9895 20.9254 24.7904C20.338 24.183 19.7207 23.5956 19.1332 22.9783C18.9341 22.7692 18.8346 22.7692 18.6454 23.0082C16.4251 25.6665 15.1607 28.7132 14.7923 32.1481C14.7525 32.5165 14.8122 32.6758 15.2403 32.6559C16.0269 32.616 16.8035 32.6559 17.59 32.6359C17.9584 32.626 18.048 32.7554 18.0281 33.084C17.9982 33.5121 18.0082 33.9502 18.0281 34.3783C18.048 34.6869 17.9484 34.7865 17.6398 34.7766C16.8732 34.7566 16.1065 34.7965 15.3399 34.7566C14.8819 34.7367 14.7425 34.8562 14.8022 35.3242C15.1009 37.9924 15.9273 40.4815 17.4108 42.7317C17.7692 43.2693 18.1774 43.7771 18.5558 44.3048C18.7649 44.5935 18.9242 44.6931 19.2228 44.3545C19.7605 43.7572 20.3579 43.2195 20.9055 42.642C21.1146 42.423 21.2539 42.3533 21.4829 42.6221C21.7816 42.9806 22.1301 43.2992 22.4686 43.6178C22.6379 43.7771 22.6777 43.8866 22.4885 44.0758C21.3435 45.2008 20.2085 46.3259 19.0934 47.4709C18.8744 47.6899 18.7848 47.6302 18.5956 47.451C15.4693 44.474 13.4681 40.8698 12.8408 36.5986C11.9946 30.8438 13.488 25.6964 17.3312 21.3156C20.547 17.6417 24.649 15.5907 29.5077 15.0531C37.0148 14.2168 44.6115 18.4084 48.0564 25.1289C51.5212 31.8992 50.6052 40.3123 45.4578 46.0869C45.0296 46.5748 44.5517 47.0228 44.1137 47.5007C43.9544 47.67 43.8647 47.6899 43.6855 47.5007C42.5605 46.3558 41.4255 45.2307 40.2904 44.1056C40.1212 43.9364 40.0614 43.8169 40.2805 43.6377C40.7285 43.2494 41.0869 42.7615 41.5748 42.4131C41.9631 42.8013 42.3613 43.1797 42.7496 43.568C43.1081 43.9364 43.4665 44.3147 43.8349 44.703V44.7229Z" fill="#262626"/>
<path d="M35.3518 33.7616C35.312 35.4144 34.3164 36.8282 32.793 37.4156C31.2996 37.9831 29.5971 37.5948 28.482 36.42C27.3768 35.2551 27.098 33.5924 27.785 32.0691C27.9144 31.7903 27.8248 31.6608 27.6456 31.4816C26.2517 30.0977 24.8678 28.7038 23.464 27.3199C23.225 27.0809 23.1852 26.9415 23.464 26.7126C23.8921 26.3541 24.2206 25.8862 24.6886 25.5576C25.0868 25.936 25.4751 26.3143 25.8734 26.7026C26.9487 27.7679 28.024 28.8432 29.0893 29.9185C29.3183 30.1574 29.4875 30.2371 29.846 30.0778C32.4645 28.9229 35.4414 30.9241 35.3717 33.7517L35.3518 33.7616ZM31.3693 35.5438C32.4047 35.5438 33.2012 34.7473 33.2012 33.7118C33.2012 32.6963 32.3848 31.8799 31.3593 31.8799C30.3537 31.8799 29.5075 32.7162 29.5075 33.7218C29.5075 34.7373 30.3438 35.5538 31.3593 35.5438H31.3693Z" fill="#262626"/>
<path d="M14.7926 15.2229C14.7926 14.3666 14.8126 13.6199 14.7926 12.8732C14.7827 12.5546 14.8822 12.4749 15.1909 12.4849C15.6588 12.5048 16.1268 12.5048 16.5947 12.4849C16.8635 12.4749 16.9332 12.5646 16.9332 12.8234C16.9332 14.7251 16.9332 16.6168 16.9332 18.5184C16.9332 18.7773 16.8735 18.8569 16.6047 18.8569C14.703 18.847 12.8014 18.8569 10.9097 18.8569C10.6608 18.8569 10.5413 18.8171 10.5612 18.5284C10.5811 18.0306 10.5811 17.5328 10.5612 17.0349C10.5612 16.7761 10.6608 16.7363 10.8898 16.7363C11.6564 16.7462 12.423 16.7363 13.1897 16.7363C13.2395 16.5471 13.0801 16.4973 13.0005 16.4176C12.0546 15.4618 11.0988 14.4961 10.1331 13.5602C9.89413 13.3312 9.82443 13.1818 10.1132 12.9429C10.4517 12.6542 10.7703 12.3256 11.069 11.9871C11.2581 11.778 11.3876 11.788 11.5767 11.9871C12.5823 13.0126 13.5979 14.0182 14.6134 15.0238C14.6532 15.0636 14.703 15.1034 14.8225 15.2129L14.7926 15.2229Z" fill="#262626"/>
</svg>
