<svg width="60" height="61" viewBox="0 0 60 61" fill="none" xmlns="http://www.w3.org/2000/svg">
<path d="M32.3222 39.495C30.3564 39.5059 28.7401 41.1441 28.751 43.1099C28.7729 45.0866 30.3892 46.7029 32.3441 46.7029C34.2989 46.7029 35.948 45.0866 35.948 43.0771C35.9371 41.0676 34.3426 39.4841 32.3222 39.495ZM32.355 44.8681C31.3721 44.8572 30.5858 44.0927 30.5858 43.1208C30.5748 42.127 31.383 41.3079 32.3659 41.3079C33.3488 41.3079 34.1351 42.116 34.146 43.0771C34.1569 44.0709 33.3488 44.8681 32.355 44.8681ZM32.3222 39.495C30.3564 39.5059 28.7401 41.1441 28.751 43.1099C28.7729 45.0866 30.3892 46.7029 32.3441 46.7029C34.2989 46.7029 35.948 45.0866 35.948 43.0771C35.9371 41.0676 34.3426 39.4841 32.3222 39.495ZM32.355 44.8681C31.3721 44.8572 30.5858 44.0927 30.5858 43.1208C30.5748 42.127 31.383 41.3079 32.3659 41.3079C33.3488 41.3079 34.1351 42.116 34.146 43.0771C34.1569 44.0709 33.3488 44.8681 32.355 44.8681ZM32.3222 39.495C30.3564 39.5059 28.7401 41.1441 28.751 43.1099C28.7729 45.0866 30.3892 46.7029 32.3441 46.7029C34.2989 46.7029 35.948 45.0866 35.948 43.0771C35.9371 41.0676 34.3426 39.4841 32.3222 39.495ZM32.355 44.8681C31.3721 44.8572 30.5858 44.0927 30.5858 43.1208C30.5748 42.127 31.383 41.3079 32.3659 41.3079C33.3488 41.3079 34.1351 42.116 34.146 43.0771C34.1569 44.0709 33.3488 44.8681 32.355 44.8681ZM32.3222 39.495C30.3564 39.5059 28.7401 41.1441 28.751 43.1099C28.7729 45.0866 30.3892 46.7029 32.3441 46.7029C34.2989 46.7029 35.948 45.0866 35.948 43.0771C35.9371 41.0676 34.3426 39.4841 32.3222 39.495ZM32.355 44.8681C31.3721 44.8572 30.5858 44.0927 30.5858 43.1208C30.5748 42.127 31.383 41.3079 32.3659 41.3079C33.3488 41.3079 34.1351 42.116 34.146 43.0771C34.1569 44.0709 33.3488 44.8681 32.355 44.8681ZM41.4741 20.4377H34.561C33.2614 20.4377 33.2723 20.4377 33.316 19.1272C33.316 18.8541 33.4252 18.7777 33.6873 18.7777C34.4518 18.7995 35.2272 18.7995 35.9917 18.7777C36.7999 18.7668 37.4442 18.2972 37.7063 17.5545C38.0667 16.4624 38.4271 15.3812 38.7547 14.2782C39.126 13.0113 38.2524 11.8646 36.92 11.8646C32.3331 11.8537 27.7463 11.8537 23.1485 11.8646C21.7943 11.8646 20.9097 13.0223 21.2919 14.311C21.6086 15.3812 21.9581 16.4297 22.3185 17.489C22.6134 18.3408 23.2468 18.7668 24.1423 18.7886H25.6057C26.7088 18.7886 26.6869 18.7886 26.7197 19.9026C26.7306 20.3394 26.6105 20.4486 26.1736 20.4486C23.5744 20.4268 20.9752 20.4268 18.376 20.4486C15.1433 20.4704 12.3039 22.6765 11.3974 25.7781C10.9933 27.176 11.1244 28.6067 11.1135 30.0373C11.0916 32.1669 12.5878 33.6413 14.7283 33.6413C18.4634 33.6413 22.1984 33.6522 25.9334 33.6413C26.3375 33.6304 26.4685 33.7396 26.4357 34.1546C26.403 34.7225 26.403 35.3013 26.4357 35.8801C26.4576 36.2296 26.3265 36.306 25.9989 36.306C24.3498 36.2842 22.7117 36.3169 21.0735 36.2842C20.6257 36.2733 20.4838 36.3715 20.4947 36.8521C20.5165 40.9147 20.5165 44.9774 20.4947 49.04C20.4947 49.4987 20.6366 49.5751 21.0407 49.5642C24.0331 49.5533 27.0146 49.5533 29.996 49.5533C32.9775 49.5533 36.0354 49.5533 39.0605 49.5642C39.4318 49.5642 39.5629 49.4987 39.552 49.0946C39.541 44.9883 39.541 40.8929 39.552 36.7975C39.5629 36.3606 39.41 36.2842 39.0168 36.2842C37.3568 36.306 35.7077 36.2842 34.0477 36.306C33.7092 36.306 33.5891 36.2186 33.6109 35.8692C33.6437 35.3013 33.6437 34.7225 33.6109 34.1436C33.5781 33.7396 33.7092 33.6304 34.1242 33.6413C37.892 33.6522 41.6597 33.6522 45.4275 33.6413C47.4042 33.6413 48.9004 32.1778 48.9332 30.1902C48.9441 29.4148 48.9441 28.6285 48.9332 27.8422C48.8895 23.6485 45.6569 20.4595 41.4741 20.4486V20.4377ZM25.3218 47.3691C25.3327 47.6749 25.2126 47.7513 24.9286 47.7404C24.1751 47.7295 23.4324 47.7185 22.6789 47.7404C22.3622 47.7404 22.3185 47.6203 22.3185 47.3472C22.3294 45.862 22.3185 44.3876 22.3185 42.9024C22.3185 41.4171 22.3403 40.041 22.3076 38.6213C22.2967 38.1844 22.4386 38.0971 22.8318 38.108C23.5307 38.1408 24.2297 38.1298 24.9286 38.108C25.2017 38.108 25.3327 38.1408 25.3327 38.4684C25.3109 41.428 25.3218 44.3876 25.3218 47.3582V47.3691ZM24.4809 16.9866C24.1751 16.9975 24.0331 16.9102 23.9457 16.5935C23.7055 15.7525 23.4434 14.9335 23.1376 14.1144C22.9847 13.6885 23.1267 13.6666 23.4871 13.6666C25.6713 13.6775 27.8555 13.6666 30.0288 13.6666C32.2021 13.6666 34.3645 13.6775 36.5268 13.6666C36.92 13.6666 37.051 13.7212 36.8981 14.1471C36.6033 14.9444 36.363 15.7635 36.1227 16.5825C36.0245 16.9102 35.8716 16.9975 35.533 16.9975C34.3317 16.9648 33.1194 16.9975 31.9181 16.9757C31.5905 16.9648 31.5031 17.0631 31.514 17.3798C31.5359 18.2535 31.5031 19.1272 31.5359 20.0008C31.5468 20.3831 31.4048 20.4595 31.0554 20.4486C30.3783 20.4158 29.7012 20.4158 29.0131 20.4486C28.6418 20.4595 28.4998 20.3831 28.5107 19.9681C28.5544 19.0944 28.5108 18.2207 28.5326 17.347C28.5435 17.0522 28.4343 16.9757 28.1504 16.9757C26.9272 16.9866 25.704 16.9757 24.4809 16.9866ZM37.3241 38.108C37.6408 38.108 37.7281 38.1954 37.7281 38.5121C37.7172 41.4499 37.7172 44.3767 37.7281 47.3035C37.7281 47.653 37.6408 47.7513 37.2913 47.7404C35.6641 47.7295 34.0477 47.7404 32.4205 47.7404C30.7933 47.7404 29.2097 47.7295 27.6043 47.7404C27.2657 47.7404 27.1238 47.6967 27.1238 47.3035C27.1456 44.3767 27.1347 41.4389 27.1238 38.5121C27.1238 38.1844 27.2111 38.108 27.5279 38.108C30.7933 38.108 34.0587 38.108 37.3241 38.108ZM28.2705 35.9675C28.2923 35.2904 28.2705 34.6023 28.2705 33.9252C28.2705 33.6959 28.336 33.6304 28.5654 33.6304C29.5264 33.6413 30.4875 33.6413 31.4485 33.6304C31.6888 33.6304 31.7871 33.685 31.7762 33.9471C31.7652 34.6242 31.7652 35.3122 31.7762 35.9893C31.7762 36.2186 31.7106 36.2951 31.4813 36.2842C31.0008 36.2842 30.5312 36.2842 30.0615 36.2842C29.5919 36.2842 29.0896 36.2842 28.5981 36.2842C28.3469 36.2951 28.2705 36.2186 28.2705 35.9675ZM47.0766 30.4196C47.022 31.3151 46.2903 31.8175 45.2965 31.8284H14.9358C13.527 31.8284 12.9373 31.2277 12.9482 29.8189C12.9591 28.8032 12.8499 27.7876 13.0356 26.7828C13.5489 24.1072 15.7768 22.2833 18.5835 22.2506C20.0578 22.2287 21.5431 22.2397 23.0284 22.2397H41.4085C44.1607 22.2506 46.3667 23.9652 46.9674 26.5644C47.2622 27.8422 47.153 29.1418 47.0766 30.4196ZM32.3441 46.7029C34.3535 46.7029 35.948 45.0866 35.948 43.0771C35.9371 41.0676 34.3426 39.4841 32.3222 39.495C30.3564 39.5059 28.7401 41.1441 28.751 43.1099C28.7729 45.0866 30.3892 46.7029 32.3441 46.7029ZM32.3659 41.3079C33.316 41.3079 34.1351 42.116 34.146 43.0771C34.1569 44.0709 33.3488 44.8681 32.355 44.8681C31.3721 44.8572 30.5858 44.0927 30.5858 43.1208C30.5748 42.127 31.383 41.3079 32.3659 41.3079ZM32.3222 39.495C30.3564 39.5059 28.7401 41.1441 28.751 43.1099C28.7729 45.0866 30.3892 46.7029 32.3441 46.7029C34.2989 46.7029 35.948 45.0866 35.948 43.0771C35.9371 41.0676 34.3426 39.4841 32.3222 39.495ZM32.355 44.8681C31.3721 44.8572 30.5858 44.0927 30.5858 43.1208C30.5748 42.127 31.383 41.3079 32.3659 41.3079C33.3488 41.3079 34.1351 42.116 34.146 43.0771C34.1569 44.0709 33.3488 44.8681 32.355 44.8681ZM32.3222 39.495C30.3564 39.5059 28.7401 41.1441 28.751 43.1099C28.7729 45.0866 30.3892 46.7029 32.3441 46.7029C34.2989 46.7029 35.948 45.0866 35.948 43.0771C35.9371 41.0676 34.3426 39.4841 32.3222 39.495ZM32.355 44.8681C31.3721 44.8572 30.5858 44.0927 30.5858 43.1208C30.5748 42.127 31.383 41.3079 32.3659 41.3079C33.3488 41.3079 34.1351 42.116 34.146 43.0771C34.1569 44.0709 33.3488 44.8681 32.355 44.8681Z" fill="#262626"/>
<path d="M32.3232 39.4952C30.3574 39.5061 28.7411 41.1443 28.752 43.1101C28.7739 45.0868 30.3902 46.7031 32.345 46.7031C34.2999 46.7031 35.949 45.0868 35.949 43.0773C35.9381 41.0678 34.3436 39.4843 32.3232 39.4952ZM32.356 44.8683C31.3731 44.8574 30.5868 44.0929 30.5868 43.121C30.5758 42.1272 31.384 41.3081 32.3669 41.3081C33.3498 41.3081 34.1361 42.1162 34.147 43.0773C34.1579 44.0711 33.3498 44.8683 32.356 44.8683Z" fill="#262626"/>
<path d="M32.3232 39.4952C30.3574 39.5061 28.7411 41.1443 28.752 43.1101C28.7739 45.0868 30.3902 46.7031 32.345 46.7031C34.2999 46.7031 35.949 45.0868 35.949 43.0773C35.9381 41.0678 34.3436 39.4843 32.3232 39.4952ZM32.356 44.8683C31.3731 44.8574 30.5868 44.0929 30.5868 43.121C30.5758 42.1272 31.384 41.3081 32.3669 41.3081C33.3498 41.3081 34.1361 42.1162 34.147 43.0773C34.1579 44.0711 33.3498 44.8683 32.356 44.8683Z" fill="#262626"/>
</svg>
