<svg width="60" height="61" viewBox="0 0 60 61" fill="none" xmlns="http://www.w3.org/2000/svg">
<path d="M20.8612 30.9309C21.1791 31.4078 21.517 31.8648 21.8647 32.3418C20.732 33.1565 19.6192 33.9613 18.4866 34.7661C18.1388 34.2892 17.8209 33.8222 17.4731 33.3751C17.3439 33.1962 17.4135 33.1267 17.5427 33.0373C18.5362 32.3219 19.5298 31.6164 20.5134 30.9011C20.6525 30.8017 20.742 30.752 20.8612 30.9309Z" fill="#262626"/>
<path d="M26.1563 32.6399C26.5438 34.8854 26.0172 36.9321 24.666 38.7702C24.5169 38.9789 24.4076 38.9988 24.2089 38.8199C23.8811 38.5218 23.5333 38.2337 23.1756 37.9555C22.9968 37.8263 22.9769 37.7469 23.116 37.5581C25.739 33.8819 23.8413 29.0233 19.4298 28.1191C16.2504 27.4534 12.9319 29.7784 12.455 32.9876C12.2066 34.6767 12.5643 36.2068 13.5876 37.568C13.7069 37.7369 13.7069 37.8164 13.5479 37.9456C13.1703 38.2337 12.7928 38.5318 12.4351 38.8497C12.2562 39.0186 12.1768 38.959 12.0476 38.7901C10.9745 37.3594 10.438 35.7597 10.4082 33.8222C10.4181 29.9076 13.5777 26.44 17.5917 26.0922C21.7548 25.7346 25.4509 28.5364 26.1563 32.6399Z" fill="#262626"/>
<path d="M32.0092 30.5235C32.0191 30.7918 31.9098 30.8315 31.6813 30.8315C31.1249 30.8117 30.5685 30.8216 30.0121 30.8216C29.4557 30.8216 28.9192 30.8117 28.3827 30.8315C28.1045 30.8415 28.0349 30.752 28.0448 30.4937C28.0647 30.0367 28.0647 29.5896 28.0448 29.1425C28.0448 28.9338 28.1045 28.8643 28.3131 28.8643C29.4557 28.8742 30.5983 28.8742 31.7409 28.8643C31.9496 28.8643 32.0092 28.9239 31.9993 29.1325C31.9893 29.5995 31.9794 30.0665 32.0092 30.5235Z" fill="#262626"/>
<path d="M42.084 33.3849C42.1834 33.5538 42.1039 33.6035 41.9748 33.683C40.8123 34.3387 39.6498 34.9945 38.4972 35.6602C38.3581 35.7397 38.2687 35.7695 38.1793 35.6006C37.9309 35.1534 37.6726 34.7063 37.4143 34.2592C37.3546 34.1499 37.3248 34.0705 37.454 34.0009C38.6662 33.3153 39.8684 32.6298 41.0805 31.9442C41.1004 31.9343 41.1203 31.9144 41.1501 31.9045C41.2594 31.8747 41.2793 31.984 41.3091 32.0436C41.5674 32.4907 41.8158 32.9378 42.084 33.3849Z" fill="#262626"/>
<path d="M11.8689 23.7568C11.9087 23.3296 11.8888 22.9024 11.8789 22.4751C11.8689 22.2963 11.9186 22.2069 12.1173 22.2267C12.1968 22.2267 12.2763 22.2267 12.3558 22.2267C24.1396 22.2267 35.9134 22.2267 47.6972 22.2168C48.0946 22.2168 48.2337 22.3062 48.194 22.7136C48.1542 23.111 48.1741 23.5184 48.184 23.9158C48.194 24.1245 48.1244 24.2039 47.9158 24.1841C47.8263 24.1741 47.727 24.1841 47.6376 24.1841H30.0116C24.1097 24.1841 18.2079 24.1741 12.3061 24.1841C11.9484 24.194 11.8391 24.1046 11.8689 23.7568Z" fill="#262626"/>
<path d="M49.6148 34.3889C49.5254 36.0084 48.9789 37.469 48.0151 38.7706C47.8661 38.9693 47.7668 39.019 47.568 38.8202C47.2501 38.5222 46.9023 38.2539 46.5546 37.9856C46.3559 37.8366 46.3261 37.7472 46.485 37.5187C48.661 34.5181 47.7369 30.4941 44.488 28.7057C41.0204 26.798 36.5096 28.9739 35.8339 32.8787C35.5359 34.5876 35.8836 36.1475 36.9169 37.5385C37.066 37.7472 37.0362 37.8366 36.8573 37.9757C36.4897 38.2539 36.1221 38.552 35.7843 38.86C35.6154 39.009 35.5458 38.9892 35.4166 38.8202C34.1747 37.1411 33.5785 35.2732 33.8269 33.1867C34.2343 29.5999 36.6785 26.9371 40.1957 26.2019C40.6925 26.1025 41.1992 26.0528 41.6265 26.0628C46.2367 26.0727 49.8533 29.8682 49.6148 34.3889Z" fill="#262626"/>
<path d="M55.2588 22.2274C54.9905 19.664 53.0828 17.9551 50.4896 17.9551C43.6737 17.9551 36.8578 17.9551 30.0419 17.9551C23.226 17.9551 16.2908 17.9551 9.42524 17.9551C6.56375 17.9551 4.41763 20.4092 4.81506 23.231C4.98397 24.4034 5.19262 25.5658 5.3814 26.7283C6.0769 30.9113 6.7724 35.1042 7.4381 39.2871C7.8554 41.8803 9.6637 43.4601 12.2867 43.4601H37.285C40.8619 43.4601 44.4388 43.48 48.0156 43.4502C49.8637 43.4303 51.2447 42.5559 52.1191 40.9066C52.5264 40.1316 52.596 39.2772 52.7252 38.4525C53.5001 33.7628 54.2751 29.0831 55.0302 24.4034C55.1495 23.688 55.3383 22.9726 55.2588 22.2274ZM53.1127 23.996C52.2979 29.0135 51.4733 34.0212 50.6585 39.0387C50.4002 40.6185 49.3967 41.5028 47.797 41.5028H12.2271C10.5778 41.5028 9.63389 40.5986 9.35569 38.8599C8.78936 35.3227 8.19321 31.7856 7.61694 28.2584C7.3288 26.4601 7.03073 24.6716 6.74259 22.8733C6.53394 21.4823 7.62687 20.0813 9.03775 19.9323C9.26627 19.9124 9.48486 19.9025 9.71338 19.9025H50.43C51.9402 19.9025 53.0332 20.747 53.2816 22.1082C53.3909 22.754 53.2219 23.38 53.1127 23.996Z" fill="#262626"/>
<path d="M20.8612 30.9309C21.1791 31.4078 21.517 31.8648 21.8647 32.3418C20.732 33.1565 19.6192 33.9613 18.4866 34.7661C18.1388 34.2892 17.8209 33.8222 17.4731 33.3751C17.3439 33.1962 17.4135 33.1267 17.5427 33.0373C18.5362 32.3219 19.5298 31.6164 20.5134 30.9011C20.6525 30.8017 20.742 30.752 20.8612 30.9309Z" fill="#262626"/>
<path d="M26.1563 32.6399C26.5438 34.8854 26.0172 36.9321 24.666 38.7702C24.5169 38.9789 24.4076 38.9988 24.2089 38.8199C23.8811 38.5218 23.5333 38.2337 23.1756 37.9555C22.9968 37.8263 22.9769 37.7469 23.116 37.5581C25.739 33.8819 23.8413 29.0233 19.4298 28.1191C16.2504 27.4534 12.9319 29.7784 12.455 32.9876C12.2066 34.6767 12.5643 36.2068 13.5876 37.568C13.7069 37.7369 13.7069 37.8164 13.5479 37.9456C13.1703 38.2337 12.7928 38.5318 12.4351 38.8497C12.2562 39.0186 12.1768 38.959 12.0476 38.7901C10.9745 37.3594 10.438 35.7597 10.4082 33.8222C10.4181 29.9076 13.5777 26.44 17.5917 26.0922C21.7548 25.7346 25.4509 28.5364 26.1563 32.6399Z" fill="#262626"/>
<path d="M32.0092 30.5235C32.0191 30.7918 31.9098 30.8315 31.6813 30.8315C31.1249 30.8117 30.5685 30.8216 30.0121 30.8216C29.4557 30.8216 28.9192 30.8117 28.3827 30.8315C28.1045 30.8415 28.0349 30.752 28.0448 30.4937C28.0647 30.0367 28.0647 29.5896 28.0448 29.1425C28.0448 28.9338 28.1045 28.8643 28.3131 28.8643C29.4557 28.8742 30.5983 28.8742 31.7409 28.8643C31.9496 28.8643 32.0092 28.9239 31.9993 29.1325C31.9893 29.5995 31.9794 30.0665 32.0092 30.5235Z" fill="#262626"/>
<path d="M42.084 33.3849C42.1834 33.5538 42.1039 33.6035 41.9748 33.683C40.8123 34.3387 39.6498 34.9945 38.4972 35.6602C38.3581 35.7397 38.2687 35.7695 38.1793 35.6006C37.9309 35.1534 37.6726 34.7063 37.4143 34.2592C37.3546 34.1499 37.3248 34.0705 37.454 34.0009C38.6662 33.3153 39.8684 32.6298 41.0805 31.9442C41.1004 31.9343 41.1203 31.9144 41.1501 31.9045C41.2594 31.8747 41.2793 31.984 41.3091 32.0436C41.5674 32.4907 41.8158 32.9378 42.084 33.3849Z" fill="#262626"/>
<path d="M11.8689 23.7568C11.9087 23.3296 11.8888 22.9024 11.8789 22.4751C11.8689 22.2963 11.9186 22.2069 12.1173 22.2267C12.1968 22.2267 12.2763 22.2267 12.3558 22.2267C24.1396 22.2267 35.9134 22.2267 47.6972 22.2168C48.0946 22.2168 48.2337 22.3062 48.194 22.7136C48.1542 23.111 48.1741 23.5184 48.184 23.9158C48.194 24.1245 48.1244 24.2039 47.9158 24.1841C47.8263 24.1741 47.727 24.1841 47.6376 24.1841H30.0116C24.1097 24.1841 18.2079 24.1741 12.3061 24.1841C11.9484 24.194 11.8391 24.1046 11.8689 23.7568Z" fill="#262626"/>
<path d="M49.6148 34.3889C49.5254 36.0084 48.9789 37.469 48.0151 38.7706C47.8661 38.9693 47.7668 39.019 47.568 38.8202C47.2501 38.5222 46.9023 38.2539 46.5546 37.9856C46.3559 37.8366 46.3261 37.7472 46.485 37.5187C48.661 34.5181 47.7369 30.4941 44.488 28.7057C41.0204 26.798 36.5096 28.9739 35.8339 32.8787C35.5359 34.5876 35.8836 36.1475 36.9169 37.5385C37.066 37.7472 37.0362 37.8366 36.8573 37.9757C36.4897 38.2539 36.1221 38.552 35.7843 38.86C35.6154 39.009 35.5458 38.9892 35.4166 38.8202C34.1747 37.1411 33.5785 35.2732 33.8269 33.1867C34.2343 29.5999 36.6785 26.9371 40.1957 26.2019C40.6925 26.1025 41.1992 26.0528 41.6265 26.0628C46.2367 26.0727 49.8533 29.8682 49.6148 34.3889Z" fill="#262626"/>
<path d="M48.184 23.9158C48.194 24.1245 48.1244 24.2039 47.9158 24.1841C47.8263 24.1741 47.727 24.1841 47.6376 24.1841H30.0116C24.1097 24.1841 18.2079 24.1741 12.3061 24.1841C11.9484 24.194 11.8391 24.1046 11.8689 23.7568C11.9087 23.3296 11.8888 22.9024 11.8789 22.4751C11.8689 22.2963 11.9186 22.2069 12.1173 22.2267C12.1968 22.2267 12.2763 22.2267 12.3558 22.2267C24.1396 22.2267 35.9134 22.2267 47.6972 22.2168C48.0946 22.2168 48.2337 22.3062 48.194 22.7136C48.1542 23.111 48.1741 23.5184 48.184 23.9158Z" fill="#262626"/>
<path d="M49.6148 34.3889C49.5254 36.0084 48.9789 37.469 48.0151 38.7706C47.8661 38.9693 47.7668 39.019 47.568 38.8202C47.2501 38.5222 46.9023 38.2539 46.5546 37.9856C46.3559 37.8366 46.3261 37.7472 46.485 37.5187C48.661 34.5181 47.7369 30.4941 44.488 28.7057C41.0204 26.798 36.5096 28.9739 35.8339 32.8787C35.5359 34.5876 35.8836 36.1475 36.9169 37.5385C37.066 37.7472 37.0362 37.8366 36.8573 37.9757C36.4897 38.2539 36.1221 38.552 35.7843 38.86C35.6154 39.009 35.5458 38.9892 35.4166 38.8202C34.1747 37.1411 33.5785 35.2732 33.8269 33.1867C34.2343 29.5999 36.6785 26.9371 40.1957 26.2019C40.6925 26.1025 41.1992 26.0528 41.6265 26.0628C46.2367 26.0727 49.8533 29.8682 49.6148 34.3889Z" fill="#262626"/>
<path d="M24.666 38.7702C24.5169 38.9789 24.4076 38.9988 24.2089 38.8199C23.8811 38.5218 23.5333 38.2337 23.1756 37.9555C22.9968 37.8263 22.9769 37.7469 23.116 37.5581C25.739 33.8819 23.8413 29.0233 19.4298 28.1191C16.2504 27.4534 12.9319 29.7784 12.455 32.9876C12.2066 34.6767 12.5643 36.2068 13.5876 37.568C13.7069 37.7369 13.7069 37.8164 13.5479 37.9456C13.1703 38.2337 12.7928 38.5318 12.4351 38.8497C12.2562 39.0186 12.1768 38.959 12.0476 38.7901C10.9745 37.3594 10.438 35.7597 10.4082 33.8222C10.4181 29.9076 13.5777 26.44 17.5917 26.0922C21.7548 25.7346 25.4509 28.5364 26.1563 32.6399C26.5438 34.8854 26.0172 36.9321 24.666 38.7702Z" fill="#262626"/>
<path d="M41.9748 33.683C40.8123 34.3387 39.6498 34.9945 38.4972 35.6602C38.3581 35.7397 38.2687 35.7695 38.1793 35.6006C37.9309 35.1534 37.6726 34.7063 37.4143 34.2592C37.3546 34.1499 37.3248 34.0705 37.454 34.0009C38.6662 33.3153 39.8684 32.6298 41.0805 31.9442C41.1004 31.9343 41.1203 31.9144 41.1501 31.9045C41.2594 31.8747 41.2793 31.984 41.3091 32.0436C41.5674 32.4907 41.8158 32.9378 42.084 33.3849C42.1834 33.5538 42.1039 33.6035 41.9748 33.683Z" fill="#262626"/>
<path d="M21.8647 32.3418C20.732 33.1565 19.6192 33.9613 18.4866 34.7661C18.1388 34.2892 17.8209 33.8222 17.4731 33.3751C17.3439 33.1962 17.4135 33.1267 17.5427 33.0373C18.5362 32.3219 19.5298 31.6164 20.5134 30.9011C20.6525 30.8017 20.742 30.752 20.8612 30.9309C21.1791 31.4078 21.517 31.8648 21.8647 32.3418Z" fill="#262626"/>
<path d="M32.0092 30.5235C32.0191 30.7918 31.9098 30.8315 31.6813 30.8315C31.1249 30.8117 30.5685 30.8216 30.0121 30.8216C29.4557 30.8216 28.9192 30.8117 28.3827 30.8315C28.1045 30.8415 28.0349 30.752 28.0448 30.4937C28.0647 30.0367 28.0647 29.5896 28.0448 29.1425C28.0448 28.9338 28.1045 28.8643 28.3131 28.8643C29.4557 28.8742 30.5983 28.8742 31.7409 28.8643C31.9496 28.8643 32.0092 28.9239 31.9993 29.1325C31.9893 29.5995 31.9794 30.0665 32.0092 30.5235Z" fill="#262626"/>
</svg>
