<svg width="60" height="60" viewBox="0 0 60 60" fill="none" xmlns="http://www.w3.org/2000/svg">
<path d="M37.8069 33.5228C32.3545 30.4443 25.3536 30.8986 20.2907 34.8024C16.1087 38.0201 14.0688 42.3504 13.8926 47.608H15.9048C15.9882 46.8291 16.0902 46.078 16.1458 45.327C16.1737 44.9282 16.3498 44.8448 16.7115 44.8448C18.8164 44.8633 20.9213 44.854 23.0355 44.854C23.1745 44.854 23.3136 44.8819 23.4156 44.8911C23.2395 45.7999 23.0633 46.6808 22.8778 47.5988C23.0911 47.6173 23.1745 47.6359 23.2487 47.6359H24.9549C25.5854 44.3997 27.1989 42.7491 29.7674 42.6471C30.9729 42.5915 32.0578 42.9161 33.0221 43.6486C34.3203 44.6408 34.9416 46.0039 35.0343 47.608H37.1299C36.9445 46.6622 36.7683 45.772 36.5921 44.8911H43.8156C43.9176 45.8091 44.0196 46.7086 44.1123 47.5988H46.0503C46.2079 43.0737 43.8063 36.9073 37.8069 33.5228ZM42.0445 42.7955C39.8839 42.7955 37.7327 42.8048 35.5721 42.7862C35.3218 42.7862 35.025 42.6657 34.8396 42.4988C32.03 39.9117 27.9314 39.9302 25.1218 42.5544C24.9827 42.6842 24.7787 42.7862 24.6118 42.7862C22.1082 42.8048 19.6046 42.7955 17.1009 42.7955C17.036 42.7955 16.9711 42.777 16.9062 42.7584C18.1302 38.6599 22.646 34.0885 28.868 33.6063C36.3696 33.0406 41.6736 38.1777 43.1387 42.7955H42.0445Z" fill="#262626"/>
<path d="M10.6103 47.5992H8.57031C8.79286 40.4129 11.5747 34.4969 17.4165 30.3335C24.8346 25.048 32.7999 24.5937 40.7095 29.1002C47.7382 33.106 51.1134 39.5041 51.4751 47.6178H49.4073C49.2218 41.3494 46.7924 36.2031 41.8964 32.3271C38.1224 29.332 33.7735 27.9782 28.961 28.2378C23.8332 28.516 19.475 30.556 15.9514 34.2836C12.437 37.9927 10.7216 42.4621 10.6103 47.5899V47.5992Z" fill="#262626"/>
<path d="M19.7995 11.834C17.3237 11.8247 15.3023 13.8462 15.3116 16.322C15.3116 18.8164 17.3145 20.8193 19.7995 20.81C22.2939 20.8007 24.2783 18.7978 24.2597 16.3035C24.2412 13.8276 22.2568 11.834 19.7995 11.834ZM19.7624 18.7793C18.4365 18.77 17.3608 17.6573 17.3608 16.3127C17.3608 14.9682 18.4365 13.8926 19.7903 13.8926C21.1441 13.8926 22.2197 14.9682 22.229 16.322C22.2383 17.6665 21.1163 18.7885 19.7624 18.7793Z" fill="#262626"/>
<path d="M26.6621 14.6811V12.7246H35.9533V14.6811H26.6621Z" fill="#262626"/>
<path d="M44.6504 19.9568H42.7031V12.6406H44.6504V19.9568Z" fill="#262626"/>
<path d="M26.6621 19.9385V17.9541H33.0695V19.9385H26.6621Z" fill="#262626"/>
<path d="M36.3799 19.9287V17.9443H39.9499V19.9287H36.3799Z" fill="#262626"/>
<path d="M38.3174 14.6719V12.7246H39.9494V14.6719H38.3174Z" fill="#262626"/>
</svg>
