<svg width="60" height="60" viewBox="0 0 60 60" fill="none" xmlns="http://www.w3.org/2000/svg">
<path d="M30.0066 10.291C19.1692 10.291 10.3033 19.1079 10.291 29.8842C10.291 40.8073 19.0834 49.6732 29.9087 49.6855C40.8563 49.6855 49.71 40.8808 49.71 30.0066C49.6977 19.1324 40.8686 10.291 30.0066 10.291ZM29.9821 47.7139C20.2223 47.7017 12.2136 39.6685 12.2748 29.9576C12.3238 20.1978 20.2835 12.2626 30.0066 12.2871C39.7787 12.2993 47.7874 20.3203 47.7262 30.0434C47.6649 39.8032 39.7052 47.7384 29.9821 47.7139Z" fill="#262626"/>
<path d="M22 30.422C22.184 30.4688 22.312 30.5 22.432 30.5234C24.576 30.9449 26.72 31.3741 28.864 31.8033C29.04 31.8345 29.208 31.858 29.336 32.0609C30.112 33.333 30.912 34.5973 31.704 35.8616C32.136 36.5484 32.568 37.2352 33.056 38C34.048 32.9662 35.016 28.0182 36 23C31.304 25.4896 26.68 27.948 22 30.422ZM32.416 34.5349C32.128 34.0822 31.888 33.7076 31.648 33.333C31.168 32.5682 30.688 31.8111 30.224 31.0385C30.088 30.8122 29.912 30.7029 29.648 30.6483C28.448 30.422 27.248 30.18 26.048 29.9459C25.976 29.9303 25.912 29.9069 25.76 29.86C28.592 28.3616 31.368 26.8944 34.208 25.3803C33.608 28.4553 33.016 31.4443 32.416 34.5349Z" fill="#262626"/>
</svg>
