<svg width="60" height="60" viewBox="0 0 60 60" fill="none" xmlns="http://www.w3.org/2000/svg">
<path d="M39.6064 38.3944C39.3684 37.9362 39.2098 37.3898 38.8485 37.0462C38.637 36.8435 38.2493 37.3017 37.9144 37.3986C37.8791 37.4075 37.8439 37.3898 37.7646 37.381V23.3606C37.7646 23.0434 37.747 22.7173 37.7117 22.3913C37.4914 20.338 35.8259 18.7782 33.7638 18.7518C31.2875 18.7253 28.8024 18.7165 26.3262 18.7518C24.0614 18.787 22.343 20.5847 22.3342 22.8583C22.3254 23.7484 22.3254 24.6472 22.3254 25.5373V37.5308C21.9729 37.3546 21.6733 37.2048 21.3737 37.055C21.2327 36.9757 21.1269 36.9228 21.03 37.1255C20.8097 37.5925 20.4131 38.0508 20.4043 38.5266C20.4043 38.791 21.1005 38.9232 21.4706 39.1347C21.6292 39.2228 21.779 39.3197 21.9465 39.3814C22.2813 39.496 22.343 39.7163 22.3342 40.0423C22.3166 41.6902 22.3254 43.347 22.3342 45.0037C22.3342 47.4183 24.0967 49.1719 26.5201 49.1719C28.8113 49.1807 31.0936 49.1807 33.376 49.1807C36.0374 49.1719 37.7558 47.4623 37.7646 44.801C37.7734 43.4263 37.8263 42.0604 37.747 40.6945C37.6941 39.8397 37.8703 39.2492 38.7692 39.0025C38.9983 38.9408 39.2186 38.791 39.4389 38.6676C39.5359 38.6147 39.6945 38.5795 39.6064 38.3944ZM24.1231 23.0257C24.1143 22.5146 24.2024 22.03 24.502 21.5893C24.9515 20.9284 25.5771 20.5847 26.3614 20.5759C28.8024 20.5583 31.2523 20.5583 33.6933 20.5759C34.9887 20.5847 35.9052 21.5717 35.9316 22.92C35.9434 23.531 35.6467 23.8365 35.0416 23.8365H29.9745C28.2825 23.8365 26.5905 23.8453 24.8986 23.8365C23.9997 23.8277 24.1319 23.9863 24.1231 23.0257ZM26.6346 28.1105C26.4584 28.1105 26.2733 28.1457 26.1587 27.9518C25.7269 27.2116 25.2863 26.4802 24.7928 25.6518C28.1944 25.6518 31.4814 25.6606 34.7684 25.6518C35.1649 25.6518 35.1385 25.7752 34.9711 26.0396C34.6098 26.6388 34.2396 27.2292 33.896 27.8373C33.7638 28.0664 33.614 28.1193 33.376 28.1193C31.1289 28.1193 28.8818 28.1193 26.6346 28.1193V28.1105ZM33.2967 30.3223C33.2527 31.7588 33.2262 33.1952 33.2086 34.6316C33.2086 34.9841 33.1117 35.1251 32.7239 35.1163C30.891 35.0986 29.058 35.0986 27.225 35.1163C26.9254 35.1163 26.7756 35.081 26.7756 34.7197C26.7668 33.2569 26.7315 31.8028 26.6787 30.3488C26.6699 30.0227 26.7492 29.9258 27.084 29.9346C28.0534 29.9522 29.0228 29.9346 30.0009 29.9346C30.9791 29.9346 31.9396 29.9522 32.909 29.9346C33.2086 29.9346 33.3055 30.0051 33.2967 30.3223ZM24.8721 29.9258C24.8545 31.5913 24.8721 33.2657 24.9867 34.94C25.0396 35.8212 24.6078 36.4117 24.1407 37.1607V28.1545C24.5285 28.7626 24.881 29.2208 24.8721 29.9258ZM26.2821 37.1431C26.3879 36.958 26.5377 36.9228 26.7315 36.9228H33.4201C33.5611 36.9228 33.7109 36.914 33.799 37.0726C34.319 37.9803 34.8477 38.8967 35.3941 39.8485C31.8074 40.5887 28.3001 40.5799 24.7135 39.8485C25.2599 38.9056 25.771 38.0243 26.2821 37.1431ZM34.9975 34.9576C35.0768 33.204 35.0856 31.4415 35.1121 29.6879C35.1121 29.0446 35.5879 28.648 35.914 28.181V36.8875C35.5351 36.2795 34.9623 35.7948 34.9975 34.9576ZM25.5419 47.198C25.0836 46.9953 24.7135 46.7045 24.458 46.2727C24.3875 46.1493 24.2465 46.0259 24.3258 45.8849C24.4051 45.7439 24.5813 45.8497 24.7047 45.8232C25.5154 45.8409 25.9296 46.255 25.9032 46.96C25.8856 47.2508 25.7886 47.3037 25.5419 47.198ZM35.6849 46.1317C35.4205 46.6868 34.8301 47.1451 34.1603 47.2596C33.8695 46.0964 34.7155 45.7792 35.491 45.8144C35.7642 45.8232 35.7906 45.9025 35.6849 46.1317ZM35.9404 43.5937C35.9581 43.9462 35.8259 44.0255 35.5086 44.0079C34.6538 43.955 33.8695 44.1753 33.2086 44.7393C32.5565 45.3033 32.2216 46.0171 32.2921 46.8895C32.3186 47.2685 32.1952 47.3742 31.8163 47.3566C31.2082 47.3213 30.6002 47.3478 29.9833 47.3478C29.3664 47.3478 28.6879 47.3389 28.0446 47.3566C27.789 47.3566 27.6833 47.2861 27.7009 47.0217C27.8771 45.0918 26.1411 43.8845 24.5637 44.0079C24.2024 44.0343 24.0967 43.9198 24.1143 43.5585C24.1407 43.0385 24.1319 42.5186 24.1143 41.9987C24.1055 41.6902 24.1672 41.5845 24.502 41.655C28.1768 42.4129 31.8603 42.3952 35.5262 41.6726C35.8435 41.6021 35.9492 41.6462 35.9404 41.9811C35.914 42.5186 35.9052 43.0562 35.9404 43.5937Z" fill="#262626"/>
<path d="M30.0805 10.309C35.456 10.309 40.8403 10.309 46.2159 10.3002C46.6565 10.3002 46.771 10.3972 46.771 10.8466C46.7534 20.6195 46.7534 30.3923 46.771 40.1652C46.771 40.597 46.6917 40.7468 46.2247 40.738C44.9381 40.7028 44.9381 40.738 44.9381 39.4426C44.9381 30.5333 44.9381 21.6241 44.9469 12.7236C44.9469 12.2742 44.8764 12.1244 44.3741 12.1244C34.8039 12.142 25.2337 12.142 15.6547 12.1244C15.2141 12.1244 15.0907 12.2213 15.0995 12.6707C15.1172 21.8091 15.0995 30.9563 15.126 40.0947C15.126 40.6323 14.985 40.7468 14.4739 40.7292C13.2842 40.6939 13.2842 40.7204 13.2842 39.5131C13.2842 29.9782 13.2842 20.4344 13.2754 10.8995C13.2754 10.4148 13.39 10.2826 13.8834 10.2914C19.2854 10.309 24.6785 10.3002 30.0805 10.3002V10.309Z" fill="#262626"/>
<path d="M18.0694 20.1264C17.4231 20.1264 17.1529 19.7945 17.2586 19.1306C17.7521 15.9494 20.3518 13.5612 23.5242 13.3674C23.8591 13.3497 23.9736 13.4379 23.9472 13.7727C23.9208 14.1869 24.0618 14.6628 23.9031 14.9976C23.7269 15.3766 23.1805 15.2091 22.8016 15.3061C20.6954 15.8348 19.1885 17.5797 19.0211 19.7475C18.9947 20.0471 18.9154 20.1617 18.6157 20.1264C18.4395 20.1088 18.2544 20.1264 18.0782 20.1264H18.0694Z" fill="#262626"/>
<path d="M41.9057 20.1257H41.8528C41.3123 20.1257 41.0039 19.8496 40.9275 19.2974C40.6279 17.1648 38.8126 15.4728 36.4773 15.1996C36.116 15.1556 36.0103 15.0498 36.0543 14.7238C36.072 14.5828 36.0543 14.433 36.0543 14.292C36.0543 13.6457 36.3716 13.3579 37.0061 13.4284C39.9934 13.7897 42.5402 16.4334 42.7693 19.4384C42.8046 19.8907 42.5901 20.1169 42.126 20.1169C42.0555 20.1169 41.985 20.1169 41.9145 20.1169L41.9057 20.1257Z" fill="#262626"/>
<path d="M38.9712 20.1264C38.8831 20.1264 38.7861 20.1176 38.698 20.1264C38.2838 20.1793 38.0547 20.1176 37.9578 19.5888C37.8168 18.831 37.2616 18.3287 36.4861 18.1877C36.116 18.1172 36.0102 17.9762 36.0543 17.6237C36.0807 17.4298 36.0543 17.2271 36.0543 17.0333C36.0543 16.1961 36.0543 16.1785 36.8915 16.3988C38.4865 16.8129 39.4559 17.8352 39.7995 19.4478C39.9405 20.1088 39.9141 20.1264 39.2267 20.1264C39.1386 20.1264 39.0505 20.1264 38.9536 20.1264H38.9712Z" fill="#262626"/>
<path d="M20.9943 20.126C19.9721 20.126 19.9633 20.1172 20.2453 19.1302C20.6507 17.6762 21.9284 16.5394 23.3472 16.3455C23.7702 16.2926 24.017 16.3455 23.9288 16.839C23.9112 16.9271 23.92 17.0152 23.9288 17.1034C23.9993 17.7114 23.9465 18.152 23.1622 18.3106C22.5453 18.434 22.1223 18.9716 22.0166 19.6149C21.9373 20.0907 21.717 20.1877 21.3116 20.126C21.2058 20.1084 21.1001 20.126 20.9855 20.126H20.9943Z" fill="#262626"/>
</svg>
