<svg width="85" height="40" viewBox="0 0 85 40" fill="none" xmlns="http://www.w3.org/2000/svg">
<path d="M4.94078 7.47559C5.47411 7.47559 5.94078 7.41225 6.34078 7.28559C6.74078 7.15225 7.07411 6.96892 7.34078 6.73559C7.60745 6.50225 7.80745 6.22559 7.94078 5.90559C8.07412 5.57892 8.14078 5.21892 8.14078 4.82558C8.14078 4.03892 7.88078 3.43892 7.36078 3.02559C6.84078 2.61225 6.05411 2.40559 5.00078 2.40559H3.10078V7.47559H4.94078ZM11.7208 14.9756H9.63078C9.21745 14.9756 8.91745 14.8156 8.73078 14.4956L5.37078 9.64559C5.25745 9.47892 5.13411 9.35892 5.00078 9.28559C4.86745 9.21225 4.66745 9.17559 4.40078 9.17559H3.10078V14.9756H0.760781V0.575585H5.00078C5.94745 0.575585 6.76078 0.672252 7.44078 0.865586C8.12745 1.05892 8.69078 1.33559 9.13078 1.69559C9.57078 2.04892 9.89411 2.47559 10.1008 2.97559C10.3141 3.47559 10.4208 4.03225 10.4208 4.64559C10.4208 5.14559 10.3441 5.61225 10.1908 6.04559C10.0441 6.47892 9.82745 6.87225 9.54078 7.22559C9.26078 7.57892 8.91412 7.88559 8.50078 8.14559C8.08745 8.40559 7.61745 8.60892 7.09078 8.75559C7.37745 8.92892 7.62412 9.17225 7.83078 9.48559L11.7208 14.9756ZM19.082 8.72559C19.082 8.36559 19.0287 8.03225 18.922 7.72559C18.822 7.41225 18.672 7.14225 18.472 6.91559C18.272 6.68225 18.022 6.50225 17.722 6.37559C17.4287 6.24225 17.0887 6.17559 16.702 6.17559C15.922 6.17559 15.3087 6.39892 14.862 6.84559C14.4154 7.29225 14.132 7.91892 14.012 8.72559H19.082ZM13.952 10.0456C13.9787 10.6256 14.0687 11.1289 14.222 11.5556C14.3754 11.9756 14.5787 12.3256 14.832 12.6056C15.092 12.8856 15.3987 13.0956 15.752 13.2356C16.112 13.3689 16.512 13.4356 16.952 13.4356C17.372 13.4356 17.7354 13.3889 18.042 13.2956C18.3487 13.1956 18.6154 13.0889 18.842 12.9756C19.0687 12.8556 19.262 12.7489 19.422 12.6556C19.582 12.5556 19.7287 12.5056 19.862 12.5056C20.0354 12.5056 20.1687 12.5723 20.262 12.7056L20.872 13.4956C20.6187 13.7956 20.332 14.0489 20.012 14.2556C19.692 14.4623 19.352 14.6323 18.992 14.7656C18.632 14.8923 18.262 14.9823 17.882 15.0356C17.502 15.0956 17.132 15.1256 16.772 15.1256C16.0654 15.1256 15.4087 15.0089 14.802 14.7756C14.202 14.5356 13.6787 14.1856 13.232 13.7256C12.792 13.2656 12.4454 12.6956 12.192 12.0156C11.9454 11.3356 11.822 10.5523 11.822 9.66559C11.822 8.95892 11.932 8.29892 12.152 7.68559C12.3787 7.07225 12.6987 6.53892 13.112 6.08559C13.532 5.63225 14.0387 5.27559 14.632 5.01559C15.232 4.74892 15.9087 4.61559 16.662 4.61559C17.2887 4.61559 17.8687 4.71892 18.402 4.92559C18.9354 5.12559 19.3954 5.42225 19.782 5.81559C20.1687 6.20892 20.4687 6.69225 20.682 7.26559C20.902 7.83225 21.012 8.47892 21.012 9.20559C21.012 9.53892 20.9754 9.76225 20.902 9.87559C20.8287 9.98892 20.6954 10.0456 20.502 10.0456H13.952ZM31.7627 4.77558L27.6627 14.9756H25.7227L21.6227 4.77558H23.3927C23.5593 4.77558 23.696 4.81892 23.8027 4.90559C23.916 4.98559 23.9893 5.08225 24.0227 5.19559L26.2827 11.1356C26.376 11.4156 26.4593 11.6923 26.5327 11.9656C26.606 12.2389 26.6693 12.5156 26.7227 12.7956C26.776 12.5156 26.8393 12.2423 26.9127 11.9756C26.9927 11.7023 27.0793 11.4223 27.1727 11.1356L29.4727 5.19559C29.5127 5.07559 29.586 4.97559 29.6927 4.89559C29.7993 4.81559 29.9293 4.77558 30.0827 4.77558H31.7627ZM39.6289 8.72559C39.6289 8.36559 39.5756 8.03225 39.4689 7.72559C39.3689 7.41225 39.2189 7.14225 39.0189 6.91559C38.8189 6.68225 38.5689 6.50225 38.2689 6.37559C37.9756 6.24225 37.6356 6.17559 37.2489 6.17559C36.4689 6.17559 35.8556 6.39892 35.4089 6.84559C34.9622 7.29225 34.6789 7.91892 34.5589 8.72559H39.6289ZM34.4989 10.0456C34.5256 10.6256 34.6156 11.1289 34.7689 11.5556C34.9222 11.9756 35.1256 12.3256 35.3789 12.6056C35.6389 12.8856 35.9456 13.0956 36.2989 13.2356C36.6589 13.3689 37.0589 13.4356 37.4989 13.4356C37.9189 13.4356 38.2822 13.3889 38.5889 13.2956C38.8956 13.1956 39.1622 13.0889 39.3889 12.9756C39.6156 12.8556 39.8089 12.7489 39.9689 12.6556C40.1289 12.5556 40.2756 12.5056 40.4089 12.5056C40.5822 12.5056 40.7156 12.5723 40.8089 12.7056L41.4189 13.4956C41.1656 13.7956 40.8789 14.0489 40.5589 14.2556C40.2389 14.4623 39.8989 14.6323 39.5389 14.7656C39.1789 14.8923 38.8089 14.9823 38.4289 15.0356C38.0489 15.0956 37.6789 15.1256 37.3189 15.1256C36.6122 15.1256 35.9556 15.0089 35.3489 14.7756C34.7489 14.5356 34.2256 14.1856 33.7789 13.7256C33.3389 13.2656 32.9922 12.6956 32.7389 12.0156C32.4922 11.3356 32.3689 10.5523 32.3689 9.66559C32.3689 8.95892 32.4789 8.29892 32.6989 7.68559C32.9256 7.07225 33.2456 6.53892 33.6589 6.08559C34.0789 5.63225 34.5856 5.27559 35.1789 5.01559C35.7789 4.74892 36.4556 4.61559 37.2089 4.61559C37.8356 4.61559 38.4156 4.71892 38.9489 4.92559C39.4822 5.12559 39.9422 5.42225 40.3289 5.81559C40.7156 6.20892 41.0156 6.69225 41.2289 7.26559C41.4489 7.83225 41.5589 8.47892 41.5589 9.20559C41.5589 9.53892 41.5222 9.76225 41.4489 9.87559C41.3756 9.98892 41.2422 10.0456 41.0489 10.0456H34.4989ZM45.5939 6.66559C45.9139 6.01892 46.3006 5.51225 46.7539 5.14559C47.2072 4.77225 47.7506 4.58559 48.3839 4.58559C48.6039 4.58559 48.8106 4.61225 49.0039 4.66559C49.1972 4.71225 49.3706 4.78559 49.5239 4.88559L49.3739 6.50559C49.3472 6.61892 49.3039 6.69892 49.2439 6.74559C49.1906 6.78559 49.1172 6.80559 49.0239 6.80559C48.9239 6.80559 48.7806 6.78892 48.5939 6.75559C48.4072 6.71559 48.2106 6.69559 48.0039 6.69559C47.7039 6.69559 47.4372 6.73892 47.2039 6.82559C46.9772 6.91225 46.7706 7.03892 46.5839 7.20559C46.4039 7.37225 46.2439 7.57559 46.1039 7.81559C45.9639 8.05559 45.8339 8.32892 45.7139 8.63559V14.9756H43.5639V4.77558H44.8139C45.0406 4.77558 45.1972 4.81892 45.2839 4.90559C45.3706 4.98559 45.4306 5.12892 45.4639 5.33559L45.5939 6.66559ZM56.9781 6.62559C56.9248 6.71892 56.8648 6.78559 56.7981 6.82559C56.7315 6.86559 56.6481 6.88559 56.5481 6.88559C56.4348 6.88559 56.3115 6.85225 56.1781 6.78559C56.0448 6.71225 55.8881 6.63225 55.7081 6.54559C55.5281 6.45892 55.3148 6.38225 55.0681 6.31559C54.8281 6.24225 54.5448 6.20559 54.2181 6.20559C53.9515 6.20559 53.7081 6.23892 53.4881 6.30559C53.2748 6.36559 53.0915 6.45559 52.9381 6.57559C52.7915 6.68892 52.6781 6.82559 52.5981 6.98559C52.5181 7.13892 52.4781 7.30559 52.4781 7.48559C52.4781 7.72559 52.5515 7.92559 52.6981 8.08559C52.8448 8.24559 53.0381 8.38559 53.2781 8.50559C53.5181 8.61892 53.7915 8.72225 54.0981 8.81559C54.4048 8.90892 54.7181 9.00892 55.0381 9.11559C55.3581 9.22225 55.6715 9.34559 55.9781 9.48559C56.2848 9.62559 56.5581 9.79892 56.7981 10.0056C57.0381 10.2056 57.2315 10.4523 57.3781 10.7456C57.5248 11.0323 57.5981 11.3823 57.5981 11.7956C57.5981 12.2756 57.5115 12.7189 57.3381 13.1256C57.1648 13.5323 56.9115 13.8856 56.5781 14.1856C56.2448 14.4856 55.8281 14.7189 55.3281 14.8856C54.8348 15.0523 54.2681 15.1356 53.6281 15.1356C53.2748 15.1356 52.9315 15.1023 52.5981 15.0356C52.2715 14.9756 51.9581 14.8923 51.6581 14.7856C51.3648 14.6723 51.0881 14.5389 50.8281 14.3856C50.5748 14.2323 50.3481 14.0656 50.1481 13.8856L50.6481 13.0656C50.7081 12.9656 50.7815 12.8889 50.8681 12.8356C50.9615 12.7756 51.0748 12.7456 51.2081 12.7456C51.3481 12.7456 51.4848 12.7923 51.6181 12.8856C51.7581 12.9723 51.9181 13.0689 52.0981 13.1756C52.2848 13.2823 52.5081 13.3823 52.7681 13.4756C53.0281 13.5623 53.3515 13.6056 53.7381 13.6056C54.0581 13.6056 54.3348 13.5689 54.5681 13.4956C54.8015 13.4156 54.9948 13.3089 55.1481 13.1756C55.3015 13.0423 55.4148 12.8923 55.4881 12.7256C55.5615 12.5523 55.5981 12.3689 55.5981 12.1756C55.5981 11.9156 55.5248 11.7023 55.3781 11.5356C55.2315 11.3689 55.0348 11.2256 54.7881 11.1056C54.5481 10.9856 54.2715 10.8789 53.9581 10.7856C53.6515 10.6923 53.3381 10.5923 53.0181 10.4856C52.6981 10.3789 52.3815 10.2556 52.0681 10.1156C51.7615 9.97559 51.4848 9.79892 51.2381 9.58559C50.9981 9.36559 50.8048 9.10225 50.6581 8.79559C50.5115 8.48225 50.4381 8.10225 50.4381 7.65559C50.4381 7.24892 50.5181 6.86225 50.6781 6.49559C50.8448 6.12892 51.0848 5.80559 51.3981 5.52559C51.7181 5.24559 52.1081 5.02559 52.5681 4.86559C53.0348 4.69892 53.5715 4.61559 54.1781 4.61559C54.8648 4.61559 55.4881 4.72559 56.0481 4.94559C56.6081 5.16559 57.0781 5.46559 57.4581 5.84559L56.9781 6.62559ZM61.8586 4.77558V14.9756H59.7086V4.77558H61.8586ZM62.2186 1.69559C62.2186 1.88892 62.1786 2.07225 62.0986 2.24559C62.0253 2.41892 61.9219 2.57225 61.7886 2.70558C61.6553 2.83225 61.4986 2.93559 61.3186 3.01558C61.1453 3.08892 60.9586 3.12559 60.7586 3.12559C60.5653 3.12559 60.3819 3.08892 60.2086 3.01558C60.0419 2.93559 59.8953 2.83225 59.7686 2.70558C59.6419 2.57225 59.5386 2.41892 59.4586 2.24559C59.3853 2.07225 59.3486 1.88892 59.3486 1.69559C59.3486 1.49559 59.3853 1.30892 59.4586 1.13559C59.5386 0.962252 59.6419 0.812252 59.7686 0.685586C59.8953 0.552252 60.0419 0.448918 60.2086 0.375586C60.3819 0.295585 60.5653 0.255585 60.7586 0.255585C60.9586 0.255585 61.1453 0.295585 61.3186 0.375586C61.4986 0.448918 61.6553 0.552252 61.7886 0.685586C61.9219 0.812252 62.0253 0.962252 62.0986 1.13559C62.1786 1.30892 62.2186 1.49559 62.2186 1.69559ZM66.57 6.12559C66.79 5.89892 67.0167 5.69559 67.25 5.51559C67.49 5.32892 67.7433 5.16892 68.01 5.03559C68.2767 4.90225 68.56 4.79892 68.86 4.72558C69.16 4.65225 69.4867 4.61559 69.84 4.61559C70.4 4.61559 70.89 4.70892 71.31 4.89559C71.7367 5.08225 72.0933 5.34559 72.38 5.68559C72.6733 6.02559 72.8933 6.43559 73.04 6.91559C73.1867 7.38892 73.26 7.91225 73.26 8.48559V14.9756H71.12V8.48559C71.12 7.79892 70.96 7.26559 70.64 6.88559C70.3267 6.50559 69.8467 6.31559 69.2 6.31559C68.72 6.31559 68.2733 6.42559 67.86 6.64559C67.4533 6.86559 67.07 7.16559 66.71 7.54559V14.9756H64.56V4.77558H65.86C66.1533 4.77558 66.34 4.91225 66.42 5.18559L66.57 6.12559ZM79.4109 9.78559C80.0776 9.78559 80.5776 9.61559 80.9109 9.27559C81.2443 8.93559 81.4109 8.49225 81.4109 7.94559C81.4109 7.38559 81.2443 6.94225 80.9109 6.61559C80.5776 6.28892 80.0776 6.12559 79.4109 6.12559C78.7509 6.12559 78.2509 6.28892 77.9109 6.61559C77.5776 6.94225 77.4109 7.38559 77.4109 7.94559C77.4109 8.21225 77.4543 8.45892 77.5409 8.68559C77.6276 8.91225 77.7543 9.10892 77.9209 9.27559C78.0876 9.43559 78.2943 9.56225 78.5409 9.65559C78.7943 9.74225 79.0843 9.78559 79.4109 9.78559ZM82.4009 15.4756C82.4009 15.2489 82.3343 15.0689 82.2009 14.9356C82.0743 14.7956 81.9009 14.6889 81.6809 14.6156C81.4609 14.5356 81.2043 14.4789 80.9109 14.4456C80.6176 14.4056 80.3043 14.3789 79.9709 14.3656C79.6443 14.3456 79.3076 14.3289 78.9609 14.3156C78.6209 14.2956 78.2909 14.2623 77.9709 14.2156C77.6509 14.3823 77.3876 14.5823 77.1809 14.8156C76.9809 15.0489 76.8809 15.3189 76.8809 15.6256C76.8809 15.8256 76.9309 16.0123 77.0309 16.1856C77.1376 16.3589 77.2976 16.5089 77.5109 16.6356C77.7309 16.7623 78.0076 16.8623 78.3409 16.9356C78.6809 17.0089 79.0876 17.0456 79.5609 17.0456C80.5076 17.0456 81.2176 16.8989 81.6909 16.6056C82.1643 16.3123 82.4009 15.9356 82.4009 15.4756ZM84.5609 5.14559V5.94559C84.5609 6.21225 84.4009 6.37559 84.0809 6.43559L83.0609 6.60559C83.2343 6.99225 83.3209 7.42225 83.3209 7.89559C83.3209 8.39559 83.2209 8.84892 83.0209 9.25559C82.8276 9.66225 82.5576 10.0089 82.2109 10.2956C81.8643 10.5823 81.4509 10.8023 80.9709 10.9556C80.4909 11.1089 79.9709 11.1856 79.4109 11.1856C79.1976 11.1856 78.9876 11.1756 78.7809 11.1556C78.5809 11.1289 78.3843 11.0956 78.1909 11.0556C77.9976 11.1689 77.8543 11.2889 77.7609 11.4156C77.6676 11.5423 77.6209 11.6723 77.6209 11.8056C77.6209 12.0256 77.7176 12.1889 77.9109 12.2956C78.1043 12.4023 78.3576 12.4789 78.6709 12.5256C78.9909 12.5723 79.3543 12.6023 79.7609 12.6156C80.1676 12.6289 80.5809 12.6523 81.0009 12.6856C81.4209 12.7189 81.8343 12.7756 82.2409 12.8556C82.6476 12.9289 83.0076 13.0556 83.3209 13.2356C83.6409 13.4089 83.8976 13.6456 84.0909 13.9456C84.2843 14.2456 84.3809 14.6356 84.3809 15.1156C84.3809 15.5556 84.2709 15.9856 84.0509 16.4056C83.8309 16.8256 83.5109 17.1989 83.0909 17.5256C82.6776 17.8523 82.1709 18.1123 81.5709 18.3056C80.9709 18.5056 80.2876 18.6056 79.5209 18.6056C78.7609 18.6056 78.0976 18.5323 77.5309 18.3856C76.9709 18.2389 76.5009 18.0389 76.1209 17.7856C75.7476 17.5389 75.4676 17.2523 75.2809 16.9256C75.1009 16.5989 75.0109 16.2589 75.0109 15.9056C75.0109 15.4256 75.1609 15.0156 75.4609 14.6756C75.7676 14.3356 76.1809 14.0689 76.7009 13.8756C76.4209 13.7423 76.1943 13.5589 76.0209 13.3256C75.8543 13.0923 75.7709 12.7856 75.7709 12.4056C75.7709 12.1056 75.8809 11.7923 76.1009 11.4656C76.3209 11.1389 76.6509 10.8623 77.0909 10.6356C76.5843 10.3556 76.1843 9.98559 75.8909 9.52559C75.5976 9.05892 75.4509 8.51559 75.4509 7.89559C75.4509 7.38892 75.5476 6.93225 75.7409 6.52559C75.9409 6.11892 76.2176 5.77225 76.5709 5.48559C76.9243 5.19892 77.3409 4.97892 77.8209 4.82558C78.3076 4.67225 78.8376 4.59558 79.4109 4.59558C80.2909 4.59558 81.0576 4.77892 81.7109 5.14559H84.5609ZM19.7842 35.7656C19.9109 35.7656 20.0209 35.8156 20.1142 35.9156L21.0442 36.9256C20.4576 37.6323 19.7376 38.1789 18.8842 38.5656C18.0309 38.9456 17.0109 39.1356 15.8242 39.1356C14.7709 39.1356 13.8176 38.9556 12.9642 38.5956C12.1176 38.2289 11.3942 37.7223 10.7942 37.0756C10.1942 36.4223 9.73089 35.6456 9.40422 34.7456C9.08422 33.8456 8.92422 32.8556 8.92422 31.7756C8.92422 30.6956 9.09422 29.7056 9.43422 28.8056C9.78089 27.8989 10.2642 27.1223 10.8842 26.4756C11.5109 25.8223 12.2576 25.3156 13.1242 24.9556C13.9976 24.5956 14.9576 24.4156 16.0042 24.4156C17.0442 24.4156 17.9609 24.5856 18.7542 24.9256C19.5542 25.2589 20.2476 25.7056 20.8342 26.2656L20.0642 27.3556C20.0109 27.4289 19.9476 27.4923 19.8742 27.5456C19.8009 27.5989 19.7009 27.6256 19.5742 27.6256C19.4409 27.6256 19.2876 27.5656 19.1142 27.4456C18.9476 27.3189 18.7309 27.1823 18.4642 27.0356C18.2042 26.8823 17.8742 26.7456 17.4742 26.6256C17.0809 26.4989 16.5876 26.4356 15.9942 26.4356C15.3076 26.4356 14.6776 26.5556 14.1042 26.7956C13.5309 27.0356 13.0376 27.3856 12.6242 27.8456C12.2109 28.3056 11.8876 28.8656 11.6542 29.5256C11.4276 30.1856 11.3142 30.9356 11.3142 31.7756C11.3142 32.6223 11.4342 33.3789 11.6742 34.0456C11.9142 34.7056 12.2442 35.2656 12.6642 35.7256C13.0842 36.1789 13.5776 36.5256 14.1442 36.7656C14.7109 37.0056 15.3209 37.1256 15.9742 37.1256C16.3742 37.1256 16.7309 37.1056 17.0442 37.0656C17.3642 37.0189 17.6576 36.9489 17.9242 36.8556C18.1909 36.7556 18.4409 36.6323 18.6742 36.4856C18.9142 36.3389 19.1509 36.1589 19.3842 35.9456C19.5176 35.8256 19.6509 35.7656 19.7842 35.7656ZM28.1155 34.5156C27.3488 34.5423 26.7021 34.6056 26.1755 34.7056C25.6488 34.7989 25.2221 34.9223 24.8955 35.0756C24.5688 35.2223 24.3321 35.3989 24.1855 35.6056C24.0455 35.8123 23.9755 36.0389 23.9755 36.2856C23.9755 36.5256 24.0121 36.7323 24.0855 36.9056C24.1655 37.0723 24.2721 37.2123 24.4055 37.3256C24.5455 37.4323 24.7055 37.5123 24.8855 37.5656C25.0721 37.6123 25.2755 37.6356 25.4955 37.6356C26.0555 37.6356 26.5355 37.5323 26.9355 37.3256C27.3421 37.1123 27.7355 36.8056 28.1155 36.4056V34.5156ZM22.4155 30.1956C23.5688 29.1223 24.9421 28.5856 26.5355 28.5856C27.1221 28.5856 27.6421 28.6823 28.0955 28.8756C28.5555 29.0623 28.9388 29.3289 29.2455 29.6756C29.5588 30.0223 29.7955 30.4356 29.9555 30.9156C30.1221 31.3889 30.2055 31.9156 30.2055 32.4956V38.9756H29.2455C29.0388 38.9756 28.8821 38.9456 28.7755 38.8856C28.6688 38.8189 28.5788 38.6889 28.5055 38.4956L28.2955 37.6656C28.0355 37.8989 27.7788 38.1089 27.5255 38.2956C27.2721 38.4756 27.0088 38.6289 26.7355 38.7556C26.4688 38.8823 26.1788 38.9756 25.8655 39.0356C25.5588 39.1023 25.2188 39.1356 24.8455 39.1356C24.4321 39.1356 24.0455 39.0789 23.6855 38.9656C23.3321 38.8523 23.0255 38.6823 22.7655 38.4556C22.5055 38.2223 22.2988 37.9356 22.1455 37.5956C21.9988 37.2556 21.9255 36.8556 21.9255 36.3956C21.9255 36.0023 22.0288 35.6189 22.2355 35.2456C22.4488 34.8723 22.7955 34.5389 23.2755 34.2456C23.7621 33.9456 24.3988 33.6989 25.1855 33.5056C25.9788 33.3123 26.9555 33.2023 28.1155 33.1756V32.4956C28.1155 31.7623 27.9588 31.2156 27.6455 30.8556C27.3321 30.4956 26.8721 30.3156 26.2655 30.3156C25.8521 30.3156 25.5055 30.3689 25.2255 30.4756C24.9455 30.5756 24.7021 30.6856 24.4955 30.8056C24.2888 30.9256 24.1055 31.0389 23.9455 31.1456C23.7855 31.2456 23.6155 31.2956 23.4355 31.2956C23.2888 31.2956 23.1621 31.2589 23.0555 31.1856C22.9555 31.1056 22.8721 31.0089 22.8055 30.8956L22.4155 30.1956ZM32.7241 38.9756V28.7756H34.0241C34.3174 28.7756 34.5041 28.9123 34.5841 29.1856L34.7241 30.0756C34.9107 29.8623 35.1041 29.6689 35.3041 29.4956C35.5041 29.3156 35.7174 29.1623 35.9441 29.0356C36.1774 28.9023 36.4241 28.7989 36.6841 28.7256C36.9507 28.6523 37.2374 28.6156 37.5441 28.6156C37.8707 28.6156 38.1707 28.6623 38.4441 28.7556C38.7174 28.8489 38.9574 28.9823 39.1641 29.1556C39.3774 29.3289 39.5607 29.5389 39.7141 29.7856C39.8674 30.0323 39.9941 30.3089 40.0941 30.6156C40.2474 30.2623 40.4407 29.9589 40.6741 29.7056C40.9074 29.4523 41.1674 29.2456 41.4541 29.0856C41.7407 28.9256 42.0441 28.8089 42.3641 28.7356C42.6907 28.6556 43.0207 28.6156 43.3541 28.6156C43.9007 28.6156 44.3874 28.7023 44.8141 28.8756C45.2474 29.0489 45.6107 29.3023 45.9041 29.6356C46.2041 29.9623 46.4307 30.3656 46.5841 30.8456C46.7374 31.3256 46.8141 31.8723 46.8141 32.4856V38.9756H44.6641V32.4856C44.6641 31.7656 44.5074 31.2256 44.1941 30.8656C43.8874 30.4989 43.4307 30.3156 42.8241 30.3156C42.5507 30.3156 42.2941 30.3623 42.0541 30.4556C41.8141 30.5489 41.6041 30.6856 41.4241 30.8656C41.2441 31.0456 41.1007 31.2723 40.9941 31.5456C40.8941 31.8123 40.8441 32.1256 40.8441 32.4856V38.9756H38.6941V32.4856C38.6941 31.7389 38.5441 31.1923 38.2441 30.8456C37.9441 30.4923 37.5041 30.3156 36.9241 30.3156C36.5241 30.3156 36.1541 30.4189 35.8141 30.6256C35.4741 30.8256 35.1607 31.1023 34.8741 31.4556V38.9756H32.7241ZM56.0156 32.7256C56.0156 32.3656 55.9623 32.0323 55.8556 31.7256C55.7556 31.4123 55.6056 31.1423 55.4056 30.9156C55.2056 30.6823 54.9556 30.5023 54.6556 30.3756C54.3623 30.2423 54.0223 30.1756 53.6356 30.1756C52.8556 30.1756 52.2423 30.3989 51.7956 30.8456C51.349 31.2923 51.0656 31.9189 50.9456 32.7256H56.0156ZM50.8856 34.0456C50.9123 34.6256 51.0023 35.1289 51.1556 35.5556C51.309 35.9756 51.5123 36.3256 51.7656 36.6056C52.0256 36.8856 52.3323 37.0956 52.6856 37.2356C53.0456 37.3689 53.4456 37.4356 53.8856 37.4356C54.3056 37.4356 54.669 37.3889 54.9756 37.2956C55.2823 37.1956 55.549 37.0889 55.7756 36.9756C56.0023 36.8556 56.1956 36.7489 56.3556 36.6556C56.5156 36.5556 56.6623 36.5056 56.7956 36.5056C56.969 36.5056 57.1023 36.5723 57.1956 36.7056L57.8056 37.4956C57.5523 37.7956 57.2656 38.0489 56.9456 38.2556C56.6256 38.4623 56.2856 38.6323 55.9256 38.7656C55.5656 38.8923 55.1956 38.9823 54.8156 39.0356C54.4356 39.0956 54.0656 39.1256 53.7056 39.1256C52.999 39.1256 52.3423 39.0089 51.7356 38.7756C51.1356 38.5356 50.6123 38.1856 50.1656 37.7256C49.7256 37.2656 49.379 36.6956 49.1256 36.0156C48.879 35.3356 48.7556 34.5523 48.7556 33.6656C48.7556 32.9589 48.8656 32.2989 49.0856 31.6856C49.3123 31.0723 49.6323 30.5389 50.0456 30.0856C50.4656 29.6323 50.9723 29.2756 51.5656 29.0156C52.1656 28.7489 52.8423 28.6156 53.5956 28.6156C54.2223 28.6156 54.8023 28.7189 55.3356 28.9256C55.869 29.1256 56.329 29.4223 56.7156 29.8156C57.1023 30.2089 57.4023 30.6923 57.6156 31.2656C57.8356 31.8323 57.9456 32.4789 57.9456 33.2056C57.9456 33.5389 57.909 33.7623 57.8356 33.8756C57.7623 33.9889 57.629 34.0456 57.4356 34.0456H50.8856ZM61.9806 30.6656C62.3006 30.0189 62.6873 29.5123 63.1406 29.1456C63.594 28.7723 64.1373 28.5856 64.7706 28.5856C64.9906 28.5856 65.1973 28.6123 65.3906 28.6656C65.584 28.7123 65.7573 28.7856 65.9106 28.8856L65.7606 30.5056C65.734 30.6189 65.6906 30.6989 65.6306 30.7456C65.5773 30.7856 65.504 30.8056 65.4106 30.8056C65.3106 30.8056 65.1673 30.7889 64.9806 30.7556C64.794 30.7156 64.5973 30.6956 64.3906 30.6956C64.0906 30.6956 63.824 30.7389 63.5906 30.8256C63.364 30.9123 63.1573 31.0389 62.9706 31.2056C62.7906 31.3723 62.6306 31.5756 62.4906 31.8156C62.3506 32.0556 62.2206 32.3289 62.1006 32.6356V38.9756H59.9506V28.7756H61.2006C61.4273 28.7756 61.584 28.8189 61.6706 28.9056C61.7573 28.9856 61.8173 29.1289 61.8506 29.3356L61.9806 30.6656ZM72.6272 34.5156C71.8605 34.5423 71.2139 34.6056 70.6872 34.7056C70.1605 34.7989 69.7339 34.9223 69.4072 35.0756C69.0805 35.2223 68.8439 35.3989 68.6972 35.6056C68.5572 35.8123 68.4872 36.0389 68.4872 36.2856C68.4872 36.5256 68.5239 36.7323 68.5972 36.9056C68.6772 37.0723 68.7839 37.2123 68.9172 37.3256C69.0572 37.4323 69.2172 37.5123 69.3972 37.5656C69.5839 37.6123 69.7872 37.6356 70.0072 37.6356C70.5672 37.6356 71.0472 37.5323 71.4472 37.3256C71.8539 37.1123 72.2472 36.8056 72.6272 36.4056V34.5156ZM66.9272 30.1956C68.0805 29.1223 69.4539 28.5856 71.0472 28.5856C71.6339 28.5856 72.1539 28.6823 72.6072 28.8756C73.0672 29.0623 73.4505 29.3289 73.7572 29.6756C74.0705 30.0223 74.3072 30.4356 74.4672 30.9156C74.6339 31.3889 74.7172 31.9156 74.7172 32.4956V38.9756H73.7572C73.5505 38.9756 73.3939 38.9456 73.2872 38.8856C73.1805 38.8189 73.0905 38.6889 73.0172 38.4956L72.8072 37.6656C72.5472 37.8989 72.2905 38.1089 72.0372 38.2956C71.7839 38.4756 71.5205 38.6289 71.2472 38.7556C70.9805 38.8823 70.6905 38.9756 70.3772 39.0356C70.0705 39.1023 69.7305 39.1356 69.3572 39.1356C68.9439 39.1356 68.5572 39.0789 68.1972 38.9656C67.8439 38.8523 67.5372 38.6823 67.2772 38.4556C67.0172 38.2223 66.8105 37.9356 66.6572 37.5956C66.5105 37.2556 66.4372 36.8556 66.4372 36.3956C66.4372 36.0023 66.5405 35.6189 66.7472 35.2456C66.9605 34.8723 67.3072 34.5389 67.7872 34.2456C68.2739 33.9456 68.9105 33.6989 69.6972 33.5056C70.4905 33.3123 71.4672 33.2023 72.6272 33.1756V32.4956C72.6272 31.7623 72.4705 31.2156 72.1572 30.8556C71.8439 30.4956 71.3839 30.3156 70.7772 30.3156C70.3639 30.3156 70.0172 30.3689 69.7372 30.4756C69.4572 30.5756 69.2139 30.6856 69.0072 30.8056C68.8005 30.9256 68.6172 31.0389 68.4572 31.1456C68.2972 31.2456 68.1272 31.2956 67.9472 31.2956C67.8005 31.2956 67.6739 31.2589 67.5672 31.1856C67.4672 31.1056 67.3839 31.0089 67.3172 30.8956L66.9272 30.1956Z" fill="#262626"/>
</svg>
