<svg width="60" height="60" viewBox="0 0 60 60" fill="none" xmlns="http://www.w3.org/2000/svg">
<path d="M41.0095 8.78877V25.8378C40.8398 25.5581 40.7499 25.4383 40.6899 25.3084C40.0308 23.9401 39.3716 22.5718 38.7423 21.1835C38.6125 20.9138 38.5426 20.5942 38.5326 20.2946C38.4627 17.2683 38.3928 14.2421 38.3328 11.2158C38.3229 10.4068 38.3328 9.58779 38.3328 8.79876H36.2954C36.3753 12.624 36.4452 16.3794 36.5251 20.1648H23.6709C23.6709 19.7153 23.6609 19.2858 23.6709 18.8664C23.7408 15.6603 23.8007 12.4642 23.8906 9.26818C23.9006 8.87866 23.7808 8.72884 23.4012 8.74882C22.9218 8.75881 22.4324 8.74882 21.8631 8.74882C21.8631 9.06843 21.8731 9.35807 21.8631 9.64771C21.8032 12.7839 21.7133 15.93 21.6933 19.0661C21.6833 20.1947 21.4836 21.2035 20.8144 22.1323C20.2751 22.8714 19.8556 23.6904 19.3862 24.4795C19.3063 24.5993 19.2164 24.6992 19.1265 24.809C19.0865 24.7991 19.0466 24.7791 19.0066 24.7691V8.75881H17.0391V32.6294C17.0491 35.9853 19.516 38.4622 22.8919 38.4622C27.6061 38.4722 32.3302 38.4722 37.0544 38.4622C40.5801 38.4622 43.0071 36.0252 43.0071 32.4996V8.78877H41.0095ZM21.7333 24.1898C22.0129 23.7204 22.3425 23.2809 22.5723 22.7815C22.8419 22.2023 23.2214 22.0125 23.8806 22.0225C28.0455 22.0524 32.2004 22.0424 36.3553 22.0225C36.7847 22.0225 37.0145 22.1423 37.1942 22.5418C37.9733 24.2397 38.7923 25.9177 39.6312 27.6755H39.6113C39.6113 27.6755 39.6612 27.7754 39.6812 27.8253C33.0194 28.6743 26.4375 28.5045 19.7657 27.7255C19.7957 27.6755 19.8256 27.6356 19.8456 27.5856C19.8057 27.5856 19.7557 27.5856 19.7158 27.5756C20.4249 26.3871 21.0741 25.2885 21.7333 24.1898ZM40.9796 33.1987H37.7935V35.0365H40.0507C40.0008 35.0964 39.9409 35.1463 39.8909 35.1963H40.1007C39.2817 36.0852 38.4127 36.4747 37.384 36.4847C35.6861 36.5046 33.9882 36.4947 32.2903 36.4947H22.802C21.7233 36.4947 20.8044 36.1151 19.9555 35.2162H20.0553C20.0054 35.1663 19.9555 35.1164 19.9055 35.0664H22.003V33.2287H19.0766V33.0789H19.0266V29.5033C26.3276 30.3722 33.6087 30.542 40.9296 29.5232V29.693C40.9296 29.693 40.9596 29.683 40.9796 29.683V33.1987Z" fill="#262626"/>
<path d="M21.6936 47.2611C22.143 46.8316 22.5925 46.4121 23.0519 45.9727C27.6463 49.6881 32.2805 49.7081 36.9548 45.9727C37.3543 46.3921 37.7938 46.8516 38.2332 47.311C34.1982 51.6656 26.3479 52.0651 21.6836 47.2711L21.6936 47.2611Z" fill="#262626"/>
<path d="M33.1093 42.0676C33.5388 42.517 33.9683 42.9565 34.3978 43.406C32.59 45.6432 28.0755 46.1126 25.4688 43.3261C25.7983 43.0364 26.1379 42.7468 26.4675 42.4471C26.6073 42.3173 26.7472 42.1875 26.887 42.0576C28.9445 43.7455 31.2416 43.6357 33.1093 42.0576V42.0676Z" fill="#262626"/>
</svg>
