<svg width="60" height="60" viewBox="0 0 60 60" fill="none" xmlns="http://www.w3.org/2000/svg">
<path d="M30.0286 10.8047C19.5418 10.8047 11.084 19.321 11.0938 29.8566C11.0938 40.2069 19.6588 48.6745 30.1067 48.6647C40.4667 48.6549 48.9635 40.1289 48.9538 29.7493C48.944 19.282 40.4667 10.8047 30.0286 10.8047ZM29.9116 46.8307C20.5368 46.8112 12.8985 39.1046 12.918 29.6908C12.9473 20.2087 20.6149 12.6289 30.1652 12.6387C39.4814 12.6582 47.1588 20.3843 47.149 29.7493C47.1295 39.2119 39.4327 46.8405 29.9116 46.8307Z" fill="#262626"/>
<path d="M30.0282 14.082C21.4144 14.0918 14.4004 21.0863 14.3906 29.7001C14.3906 38.353 21.3949 45.3865 30.0185 45.3768C38.6031 45.3768 45.6659 38.353 45.6659 29.8172C45.6756 21.1155 38.6811 14.082 30.0282 14.082ZM30.1648 15.9258C37.4129 15.9941 42.3101 21.5155 43.2563 26.0419H41.315C40.0176 26.0419 38.7201 26.0614 37.4227 26.0322C37.1691 26.0322 36.8666 25.9249 36.6715 25.7688C35.657 24.9981 34.5352 24.5689 33.267 24.5689C31.1208 24.5689 28.9844 24.5786 26.848 24.5689C25.5311 24.5689 24.3702 24.9786 23.3557 25.8078C23.2093 25.9249 23.0142 26.0322 22.8484 26.0322C20.8291 26.0517 18.8097 26.0419 16.7904 26.0419C17.7659 21.3692 22.8386 15.8575 30.1648 15.9258ZM36.6325 31.0366C36.2033 32.4414 35.7741 33.8461 35.3351 35.2509C34.8181 36.8995 33.5206 37.836 31.7939 37.836C30.5843 37.836 29.3746 37.8457 28.165 37.836C26.5554 37.8262 25.2384 36.88 24.7507 35.3679C24.2824 33.8949 23.8239 32.4316 23.4044 30.9488C22.7313 28.6271 24.3897 26.4224 26.809 26.3834C27.8821 26.3736 28.9454 26.3834 30.0185 26.3834C31.0916 26.3834 32.1256 26.3736 33.1694 26.3834C35.6765 26.4029 37.3447 28.6466 36.6325 31.0366ZM16.3514 31.6804C16.1758 30.4318 16.1368 29.1831 16.3514 27.8759H21.8339C21.0047 29.7782 21.6095 31.5439 22.2631 33.4071C21.668 33.2608 21.1705 33.1437 20.6632 33.0267C19.356 32.7047 18.0488 32.4023 16.7514 32.0609C16.5856 32.0219 16.3807 31.8268 16.3514 31.6804ZM16.9465 34.0217C17.366 34.1095 17.7464 34.1973 18.1269 34.2851C19.5219 34.6265 20.9169 34.9777 22.3119 35.2996C22.6826 35.3874 22.9167 35.524 23.0337 35.924C23.3752 37.1043 24.0971 38.0311 25.1019 38.7432C25.2774 38.87 25.4335 39.1042 25.4823 39.309C25.7359 40.3821 25.9506 41.4649 26.1749 42.538C26.2042 42.6746 26.2042 42.8111 26.2237 42.9575C21.9412 41.9624 18.0488 38.0408 16.9465 34.0217ZM31.8525 43.2404C31.833 43.3282 31.6574 43.4452 31.5501 43.4452C30.5355 43.4648 29.521 43.4648 28.5064 43.4452C28.3991 43.4452 28.2235 43.2989 28.1943 43.1916C27.9309 42.0307 27.6967 40.8699 27.4334 39.6505H32.6134C32.3597 40.8601 32.1159 42.0502 31.8525 43.2404ZM33.784 42.977C34.0571 41.6991 34.301 40.4797 34.5742 39.27C34.6229 39.0749 34.7693 38.8603 34.9351 38.7432C35.9789 38.0116 36.7008 37.0556 37.052 35.8264C37.1398 35.5435 37.2861 35.3972 37.5788 35.3289C39.3152 34.9192 41.0516 34.4997 42.7881 34.0802C42.8856 34.0607 42.9832 34.0607 43.1002 34.051C42.0272 37.9823 38.1738 41.9234 33.784 42.977ZM43.4222 32.0414C41.6272 32.4901 39.8225 32.9096 38.0178 33.3388C37.9885 33.3486 37.9495 33.3291 37.8324 33.2901C38.4177 31.5536 39.0616 29.7977 38.2226 27.9149C38.4275 27.8857 38.5543 27.8564 38.6811 27.8564C40.2029 27.8564 41.7345 27.8662 43.2563 27.8466C43.6075 27.8466 43.7831 27.954 43.7733 28.3149C43.7538 29.4367 43.7343 30.5488 43.6953 31.6707C43.6855 31.7975 43.5392 32.0121 43.4222 32.0414Z" fill="#262626"/>
<path d="M20.1754 29.4668V31.2618C19.3657 31.2618 18.5658 31.2715 17.7756 31.252C17.678 31.2422 17.5317 31.0959 17.522 31.0081C17.5024 30.5008 17.5122 30.0033 17.5122 29.4668H20.1754Z" fill="#262626"/>
<path d="M42.4957 29.4668V31.2618C41.686 31.2618 40.8959 31.2715 40.1155 31.252C40.0179 31.2422 39.8618 31.0667 39.8521 30.9593C39.8228 30.4716 39.8423 29.9838 39.8423 29.4668H42.4957Z" fill="#262626"/>
</svg>
