<svg width="80" height="80" viewBox="0 0 80 80" fill="none" xmlns="http://www.w3.org/2000/svg">
<path d="M64.875 47.5625C64.4375 47.5625 64.125 47.25 64.125 46.8125H62.375C62.375 48.25 63.5 49.375 64.9375 49.375C66.375 49.375 67.5 48.25 67.5 46.8125H65.625C65.625 47.25 65.25 47.5625 64.875 47.5625Z" fill="#404041"/>
<path d="M76.4375 39.5625L78.1875 37.8125L72.875 36.0625L56.875 32.4375H55.125L53.3125 30.625L46.25 27.125H42.6875L48 32.4375H37.3125L35.5 30.625H33.75V32.375H32L24.875 30.625H23.125V28.875H21.3125L19.5625 30.625H12.4375L14.25 32.375H5.3125L1.75 35.9375L3.5 37.6875H0L1.75 41.25L0 43.125L1.75 46.6875L7.0625 48.4375H8.3125C8.0625 47.375 8.0625 46.25 8.3125 45.1875C9.1875 40.9375 13.375 38.1875 17.6875 39.125C21.9375 40 24.6875 44.1875 23.75 48.5H57.125C56.875 47.4375 56.875 46.3125 57.125 45.25C58 41 62.1875 38.25 66.5 39.1875C70.75 40.0625 73.5 44.25 72.5625 48.5625H78.25V46.8125L80 45.0625V41.5L76.4375 39.5625ZM78.25 44.125L76.5 45.875V46.625H74.5625C74.5625 41.3125 70.25 36.9375 64.875 36.9375C59.5625 36.9375 55.1875 41.25 55.1875 46.625H25.75C25.6875 41.5 21.625 37.375 16.5625 37.125C11.25 36.875 6.6875 41 6.4375 46.3125L3.0625 45.1875L2.1875 43.4375L3.9375 41.6875L2.875 39.5625H7.875L4.3125 36L6.0625 34.1875H18.5L16.75 32.4375H20.3125L21.375 31.375V32.4375H24.6875L31.8125 34.1875H35.5625V33.125L36.625 34.1875H52.3125L48.125 30L52.3125 32.0625L54.375 34.1875H56.6875L72.4375 37.6875L74.9375 38.5L73.4375 40L78.25 42.375V44.125Z" fill="#404041"/>
<path d="M16.0625 47.5625C15.625 47.5625 15.3125 47.1875 15.3125 46.8125H13.5625C13.5625 48.25 14.6875 49.375 16.125 49.375C17.5625 49.375 18.6875 48.25 18.6875 46.8125H16.875C16.8125 47.25 16.5 47.5625 16.0625 47.5625Z" fill="#404041"/>
<path d="M70.9375 46.8125C70.9375 43.4375 68.1875 40.6875 64.8125 40.6875C63.1875 40.6875 61.625 41.3125 60.5 42.5C58.125 44.875 58.125 48.75 60.5 51.125H20.375C22.75 48.75 22.75 44.875 20.375 42.5C18 40.125 14.125 40.125 11.75 42.5C9.375 44.875 9.375 48.75 11.75 51.125H1.75V52.875H76.4375V51.125H69.125C70.3125 50 70.9375 48.4375 70.9375 46.8125ZM16.0625 51.125C13.6875 51.125 11.75 49.1875 11.75 46.8125C11.75 44.4375 13.6875 42.5 16.0625 42.5C18.4375 42.5 20.375 44.4375 20.375 46.8125C20.375 49.1875 18.4375 51.125 16.0625 51.125ZM64.875 51.125C62.5 51.125 60.5625 49.1875 60.5625 46.8125C60.5625 44.4375 62.5 42.5 64.875 42.5C67.25 42.5 69.1875 44.4375 69.1875 46.8125C69.1875 49.1875 67.25 51.125 64.875 51.125Z" fill="#404041"/>
</svg>
