<svg width="80" height="80" viewBox="0 0 80 80" fill="none" xmlns="http://www.w3.org/2000/svg">
<g clip-path="url(#clip0_243_6960)">
<path d="M16.25 48.3125C15.875 48.3125 15.5 48 15.5 47.625H13.8125C13.8125 48.9375 14.875 50 16.1875 50C17.5 50 18.5625 48.9375 18.5625 47.625H16.875C16.9375 48 16.625 48.3125 16.25 48.3125Z" fill="#404041"/>
<path d="M65 48.3125C64.625 48.3125 64.3125 48 64.3125 47.5625H62.625C62.625 48.875 63.6875 49.9375 65 49.9375C66.3125 49.9375 67.375 48.875 67.375 47.5625H65.6875C65.75 48 65.4375 48.3125 65 48.3125Z" fill="#404041"/>
<path d="M80 41.6875H76.6875L75 40H78.3125L75 38.3125L58.3125 35L48.3125 28.3125L45 26.6875H25L11.6875 31.6875L21.6875 33.375L28.375 28.375H35V33.375H36.6875V28.375H45L48.3125 30.0625L55 35H25L5 33.3125L1.6875 35V36.6875L3.375 38.375H6.6875L0 40V45L1.6875 48.3125L6.6875 50H9.3125C8.8125 48.4375 8.8125 46.75 9.3125 45.25C10.625 41.375 14.8125 39.3125 18.6875 40.625C22.5625 41.9375 24.625 46.125 23.3125 50H58.125C57.625 48.4375 57.625 46.75 58.125 45.25C59.4375 41.375 63.625 39.3125 67.5 40.625C71.375 41.9375 73.4375 46.125 72.125 50H78.375L80.0625 45L78.375 43.3125H80.0625V41.6875H80ZM21.25 31.5625L18.0625 31L25.3125 28.3125H25.5625L21.25 31.5625ZM77.1875 48.3125H74.125C74.125 48.0625 74.125 47.8125 74.125 47.5625C74.125 42.5625 70.0625 38.5 65.0625 38.5C60.0625 38.5 56 42.5625 56 47.5625C56 47.8125 56 48.0625 56 48.3125H25.375C25.375 48.0625 25.375 47.8125 25.375 47.5625C25.375 42.5625 21.3125 38.5 16.3125 38.5C11.3125 38.5 7.25 42.5625 7.25 47.5625C7.25 47.8125 7.25 48.0625 7.25 48.3125H6.9375L2.875 46.9375L1.6875 44.5625V41.25L8.5 39.5625L8.125 36.6875H4L3.375 36.0625L5.3125 35.0625L24.9375 36.6875H58.1875L72.1875 39.5L78.1875 45.5L77.1875 48.3125Z" fill="#404041"/>
<path d="M69.125 51.625C71.375 49.375 71.375 45.75 69.125 43.5625C66.875 41.3125 63.25 41.3125 61.0625 43.5625C58.875 45.8125 58.8125 49.4375 61.0625 51.625H20.3125C21.375 50.5625 22 49.0625 22 47.5625C22 44.375 19.4375 41.875 16.25 41.875C14.75 41.875 13.3125 42.5 12.1875 43.5625C9.9375 45.8125 10 49.4375 12.1875 51.625H1.6875V53.3125H76.6875V51.625H69.125ZM16.25 51.625C14 51.625 12.1875 49.8125 12.1875 47.5625C12.1875 45.3125 14 43.5 16.25 43.5C18.5 43.5 20.3125 45.3125 20.3125 47.5625C20.3125 49.8125 18.5 51.625 16.25 51.625ZM65.0625 51.625C62.8125 51.625 61 49.8125 61 47.5625C61 45.3125 62.8125 43.5 65.0625 43.5C67.3125 43.5 69.125 45.3125 69.125 47.5625C69.125 49.8125 67.3125 51.625 65.0625 51.625Z" fill="#404041"/>
</g>
<defs>
<clipPath id="clip0_243_6960">
<rect width="80" height="80" fill="white"/>
</clipPath>
</defs>
</svg>
