<svg width="80" height="80" viewBox="0 0 80 80" fill="none" xmlns="http://www.w3.org/2000/svg">
<circle cx="16.3558" cy="47.5218" r="3.83329" stroke="#404041" stroke-width="1.5"/>
<mask id="path-2-inside-1_243_6967" fill="white">
<path d="M18.1901 47.5213C18.1901 48.0075 17.9969 48.4738 17.6531 48.8177C17.3093 49.1615 16.843 49.3546 16.3568 49.3546C15.8705 49.3546 15.4042 49.1615 15.0604 48.8177C14.7166 48.4738 14.5234 48.0075 14.5234 47.5213L15.7154 47.5213C15.7154 47.6914 15.783 47.8545 15.9032 47.9748C16.0235 48.0951 16.1867 48.1627 16.3568 48.1627C16.5269 48.1627 16.69 48.0951 16.8103 47.9748C16.9305 47.8545 16.9981 47.6914 16.9981 47.5213H18.1901Z"/>
</mask>
<path d="M18.1901 47.5213C18.1901 48.0075 17.9969 48.4738 17.6531 48.8177C17.3093 49.1615 16.843 49.3546 16.3568 49.3546C15.8705 49.3546 15.4042 49.1615 15.0604 48.8177C14.7166 48.4738 14.5234 48.0075 14.5234 47.5213L15.7154 47.5213C15.7154 47.6914 15.783 47.8545 15.9032 47.9748C16.0235 48.0951 16.1867 48.1627 16.3568 48.1627C16.5269 48.1627 16.69 48.0951 16.8103 47.9748C16.9305 47.8545 16.9981 47.6914 16.9981 47.5213H18.1901Z" stroke="#404041" stroke-width="1.83462" mask="url(#path-2-inside-1_243_6967)"/>
<circle cx="59.4397" cy="47.5218" r="3.83329" stroke="#404041" stroke-width="1.5"/>
<mask id="path-4-inside-2_243_6967" fill="white">
<path d="M61.2721 47.5213C61.2721 48.0075 61.0789 48.4738 60.7351 48.8177C60.3913 49.1615 59.925 49.3546 59.4388 49.3546C58.9526 49.3546 58.4862 49.1615 58.1424 48.8177C57.7986 48.4738 57.6055 48.0075 57.6055 47.5213L58.7974 47.5213C58.7974 47.6914 58.865 47.8545 58.9853 47.9748C59.1056 48.0951 59.2687 48.1627 59.4388 48.1627C59.6089 48.1627 59.772 48.0951 59.8923 47.9748C60.0126 47.8545 60.0802 47.6914 60.0802 47.5213H61.2721Z"/>
</mask>
<path d="M61.2721 47.5213C61.2721 48.0075 61.0789 48.4738 60.7351 48.8177C60.3913 49.1615 59.925 49.3546 59.4388 49.3546C58.9526 49.3546 58.4862 49.1615 58.1424 48.8177C57.7986 48.4738 57.6055 48.0075 57.6055 47.5213L58.7974 47.5213C58.7974 47.6914 58.865 47.8545 58.9853 47.9748C59.1056 48.0951 59.2687 48.1627 59.4388 48.1627C59.6089 48.1627 59.772 48.0951 59.8923 47.9748C60.0126 47.8545 60.0802 47.6914 60.0802 47.5213H61.2721Z" stroke="#404041" stroke-width="1.83462" mask="url(#path-4-inside-2_243_6967)"/>
<path d="M66.5736 39.2713C66.2981 38.5921 66.5736 37.438 66.5736 37.438L69.6595 39.2713L70.5761 41.1046C70.5761 41.1046 67.1895 40.7901 66.5736 39.2713Z" stroke="#404041" stroke-width="0.917308" stroke-linecap="round"/>
<path d="M35.5645 30.7261C36.1493 30.8083 36.9653 30.9296 37.8887 31.0864C39.7423 31.4013 42.0028 31.8552 43.6992 32.4136C45.435 32.985 47.3472 33.994 48.8389 34.8726C49.1868 35.0775 49.5101 35.2751 49.8018 35.4565L36.0264 34.6685L35.3037 30.6899C35.3844 30.701 35.4715 30.713 35.5645 30.7261Z" stroke="#404041"/>
<path d="M31.4404 34.6274L20.1387 34.2095L20.4668 31.9077L25.1279 31.0591L31.4404 30.6392V34.6274Z" stroke="#404041"/>
<path d="M52.8329 48.1326L24.439 48.1311L23.2168 48.1311C23.2168 44.081 20.1614 40.7993 15.8837 40.7993C10.3838 41.4104 9.77265 46.2993 9.77265 46.2993L9.77265 47.5215C8.63997 47.6963 8.10958 47.0697 7.64839 46.0205C6.92814 44.382 7.64839 41.4372 7.64839 41.4372C7.64839 41.4372 8.26432 40.0614 8.56505 39.1456C9.13456 37.4114 9.48171 34.5623 9.48171 34.5623L15.44 29.5207C15.44 29.5207 19.8837 28.52 22.7733 28.1457C29.341 27.295 33.2261 26.905 39.7314 28.1457C46.3592 29.4097 49.2927 32.6832 55.773 34.5623C59.6514 35.6869 62.3279 34.8897 65.8562 36.854C68.0789 38.0913 69.8167 38.6762 70.8978 40.9789C71.9628 43.2472 72.3883 46.1154 71.1661 47.9512C70.8818 48.3781 68.8791 48.3128 67.0784 48.3128L65.8562 48.3128C66.4673 44.6462 64.161 40.7993 59.4393 40.7993C55.7268 40.7993 52.8329 44.1464 52.8329 47.5215L52.8329 48.1326Z" stroke="#404041" stroke-width="1.2"/>
<path d="M13.1487 34.6883C15.1292 33.7656 16.357 30.105 16.357 30.105L13.6071 31.0216L9.94043 35.1466C9.94043 35.1466 12.0015 35.2228 13.1487 34.6883Z" stroke="#404041" stroke-width="0.917308"/>
<path d="M18.6484 38.355L18.6484 41.105" stroke="#404041" stroke-width="0.917308" stroke-linecap="round"/>
<path d="M33.7734 38.355L33.7734 44.7716" stroke="#404041" stroke-width="0.917308" stroke-linecap="round"/>
<path d="M53.0225 38.355L53.0225 42.0216" stroke="#404041" stroke-width="0.917308" stroke-linecap="round"/>
<rect x="8.22266" y="52.2266" width="64.7772" height="1.22221" fill="#404041"/>
</svg>
