<svg width="80" height="80" viewBox="0 0 80 80" fill="none" xmlns="http://www.w3.org/2000/svg">
<g clip-path="url(#clip0_243_7006)">
<path d="M0 47.375V44.1875H3.1875L1.5625 42.5625V36.1875L19.1875 34.5625H3.1875L4.8125 26.5625L6.4375 23.375L48.0625 25L49.6875 28.1875H33.625V34.5625H51.25L48.0625 29.75H49.6875L56.0625 34.5625L75.25 36.1875L76.875 41H75.25L76.875 42.625H78.5L80.125 45.8125L78.5 50.625L75.3125 52.25H73.625C74.9375 47.75 72.375 43.125 67.875 41.8125C63.375 40.5 58.75 43.0625 57.4375 47.5625C57 49.125 57 50.75 57.4375 52.3125H25.75C27.0625 47.8125 24.5 43.1875 20 41.875C15.5 40.5625 10.875 43.125 9.5625 47.625C9.125 49.1875 9.125 50.8125 9.5625 52.375H6.375L0 47.375ZM65.4375 43C69.1875 43 72.25 46.0625 72.25 49.875C72.25 51.875 71.375 53.8125 69.8125 55.0625H75.1875V56.6875H1.625V55H13.3125C10.4375 52.5625 10.0625 48.25 12.5 45.375C14.9375 42.5 19.25 42.125 22.125 44.5625C25 47 25.375 51.3125 22.9375 54.1875C22.6875 54.5 22.375 54.75 22.125 55H61.0625C58.1875 52.5625 57.8125 48.25 60.25 45.375C61.5 43.875 63.375 43 65.4375 43ZM61.75 49.8125C61.75 51.8125 63.375 53.4375 65.375 53.4375C67.375 53.4375 69 51.8125 69 49.8125H67.375C67.375 50.9375 66.4375 51.875 65.3125 51.875C64.1875 51.875 63.25 50.9375 63.25 49.8125H61.75ZM65.4375 44.5625C62.5625 44.5625 60.1875 46.875 60.1875 49.75C60.1875 52.625 62.5 55 65.375 55C68.25 55 70.625 52.6875 70.625 49.8125C70.625 46.9375 68.3125 44.5625 65.4375 44.5625ZM14.0625 49.8125C14.0625 51.8125 15.6875 53.4375 17.6875 53.4375C19.6875 53.4375 21.3125 51.8125 21.3125 49.8125H19.6875C19.6875 50.9375 18.75 51.875 17.625 51.875C16.5 51.875 15.625 50.9375 15.625 49.8125H14.0625ZM17.6875 44.5625C14.8125 44.5625 12.4375 46.875 12.4375 49.8125C12.4375 52.6875 14.75 55.0625 17.6875 55.0625C20.625 55.0625 22.9375 52.75 22.9375 49.8125C22.875 46.9375 20.5625 44.5625 17.6875 44.5625ZM1.625 46.5625L6.9375 50.5625H7.6875C7.6875 50.3125 7.6875 50.0625 7.6875 49.8125C7.6875 44.25 12.1875 39.8125 17.75 39.8125C23.3125 39.8125 27.75 44.3125 27.75 49.8125C27.75 50.0625 27.75 50.3125 27.75 50.5625H55.4375C55.4375 50.3125 55.4375 50.0625 55.4375 49.8125C55.4375 44.25 59.9375 39.8125 65.5 39.8125C71.0625 39.8125 75.5 44.3125 75.5 49.8125C75.5 49.9375 75.5 50.125 75.5 50.25L77.1875 49.4375L78.3125 45.875L77.4375 44.125H76.1875L71.375 39.3125H74.625L74.0625 37.625L55.4375 36.125L52.9375 34.25L54.1875 36.1875H32V26.5625H47V26.5L7.375 25L6.3125 27.125L5.125 33H20.6875L20.8125 36.0625L3.1875 37.625V41.875L7.0625 45.75H1.625V46.5625Z" fill="#404041"/>
</g>
<defs>
<clipPath id="clip0_243_7006">
<rect width="80" height="80" fill="white"/>
</clipPath>
</defs>
</svg>
