<svg width="80" height="80" viewBox="0 0 80 80" fill="none" xmlns="http://www.w3.org/2000/svg">
<path d="M19.625 49.875C18.5 49.9375 17.5625 49.125 17.5 48H15.9375C16 49.875 17.5 51.3125 19.375 51.4375C21.3125 51.5 23 50 23.0625 48H21.5C21.4375 49 20.625 49.8125 19.625 49.875Z" fill="#404041"/>
<path d="M80 39.4375H76.875L75.3125 37.875L76.875 36.3125L72.125 34.6875H40.75V28.4375H39.1875V34.6875H34.5L31.375 33.125V26.875H48.625L56.5 33.125H59.625L50.1875 26.875V25.3125H26.6875L25.125 26.875L23.5625 31.5625L25.125 33.125H1.5625L0 34.75H3.125L1.5625 36.3125H0V42.5625L3.125 47.25H4.6875L3.125 48.875L4.6875 50.4375H11.625C11.125 48.875 11.125 47.1875 11.625 45.625C12.9375 41.25 17.5625 38.8125 21.9375 40.125C26.3125 41.4375 28.75 46.0625 27.4375 50.4375H58.4375C57.9375 48.875 57.9375 47.1875 58.4375 45.625C59.75 41.25 64.375 38.8125 68.75 40.125C73.125 41.4375 75.5625 46.0625 74.25 50.4375H75.3125L80 48.875V45.75L78.4375 44.1875L80 42.625V39.4375ZM78.4375 41.9375L76.25 44.125L78.4375 46.3125V47.6875L76.125 48.4375C76.125 48.25 76.125 48.125 76.125 47.9375C76 42.6875 71.75 38.5 66.5625 38.375C61.125 38.25 56.625 42.5 56.5 47.9375C56.5 48.25 56.5625 48.5 56.5625 48.8125H29.3125C29.375 48.5 29.375 48.25 29.375 47.9375C29.25 42.6875 25 38.5 19.8125 38.375C14.375 38.25 9.875 42.5 9.75 47.9375C9.75 48.25 9.8125 48.5 9.8125 48.8125H5.4375H5.5L8.625 45.6875H4L1.625 42.0625V37.8125H2.25L5.375 34.6875H28.875L25.3125 31.125L26.4375 27.6875L27.25 26.8125H29.75V34.0625L34.0625 36.25H71.875L74 36.9375L73.125 37.8125L76.25 40.9375H78.4375V41.9375Z" fill="#404041"/>
<path d="M73 47.9375C73 44.25 70 41.25 66.3125 41.25C64.3125 41.25 62.4375 42.125 61.1875 43.625C58.8125 46.4375 59.1875 50.6875 62 53.0625H23.8125C24.125 52.8125 24.375 52.5625 24.625 52.25C27 49.4375 26.625 45.1875 23.8125 42.8125C21 40.4375 16.75 40.8125 14.375 43.625C12 46.4375 12.375 50.6875 15.1875 53.0625H4.6875V54.625H75.25V53.125H70.625C72.125 51.8125 73 49.9375 73 47.9375ZM19.5 53.125C16.6875 53 14.4375 50.625 14.5625 47.8125C14.6875 45.125 16.8125 42.9375 19.5 42.875C22.3125 43 24.5625 45.375 24.4375 48.1875C24.375 50.875 22.1875 53 19.5 53.125ZM66.3125 53.125C63.4375 53 61.25 50.625 61.3125 47.8125C61.4375 45.125 63.5625 42.9375 66.25 42.875H66.3125C69.125 43 71.375 45.375 71.25 48.1875C71.1875 50.875 69 53 66.3125 53.125Z" fill="#404041"/>
<path d="M66.4375 49.875C65.3125 49.9375 64.375 49.125 64.3125 48H62.75C62.8125 49.875 64.3125 51.3125 66.1875 51.4375C68.125 51.5 69.8125 50 69.875 48H68.3125C68.25 49 67.4375 49.8125 66.4375 49.875Z" fill="#404041"/>
</svg>
