<svg width="80" height="80" viewBox="0 0 80 80" fill="none" xmlns="http://www.w3.org/2000/svg">
<path d="M80 40L76.5 38.25L59.125 34.75H36.5V29.5625H34.75V34.75H26.125V31.25L24.375 34.75H20.875L19.125 33L27.8125 27.75H40L46.9375 29.5L52.125 33H57.375L46.9375 27.75L40 26.0625H26.0625L19.125 27.8125L6.9375 33.0625H3.5L0 38.25L1.75 41.6875L3.5 40L0 43.5V45.25L1.75 48.75L5.25 50.5H8.4375C7.875 48.875 7.875 47.125 8.4375 45.5C9.8125 41.5 14.1875 39.3125 18.1875 40.6875C22.1875 42.0625 24.375 46.4375 23 50.4375H56.625C56.0625 48.8125 56.0625 47.0625 56.625 45.5C58 41.5 62.375 39.3125 66.375 40.6875C70.375 42.0625 72.5625 46.4375 71.1875 50.4375H76.5L80 46.9375V43.4375L78.25 41.6875L80 40ZM78.4375 44.1875V46.25L76 48.6875H73.5C73.5 48.4375 73.5 48.1875 73.5 47.9375C73.375 42.9375 69.3125 38.875 64.3125 38.75C59.125 38.625 54.75 42.75 54.625 47.9375C54.625 48.1875 54.625 48.4375 54.625 48.6875H25.25C25.25 48.4375 25.25 48.1875 25.25 47.9375C25.125 42.9375 21.0625 38.875 16.0625 38.75C10.875 38.625 6.5 42.75 6.375 47.9375C6.375 48.1875 6.375 48.4375 6.375 48.6875H5.625L3.0625 47.375L1.75 44.8125V44.1875L5.9375 40L3.4375 37.5625L2.1875 38.8125L2 38.375L4.375 34.75H7.3125L19.6875 29.4375L23.125 28.5625L16.3125 32.625L20.125 36.4375H58.9375L75.9375 39.8125L77.0625 40.375L75.8125 41.625L78.4375 44.1875Z" fill="#404041"/>
<path d="M69.875 47.9375C69.875 44.625 67.1875 42 63.875 42C62.3125 42 60.75 42.625 59.625 43.75C57.3125 46.0625 57.3125 49.875 59.625 52.1875H19.9375C22.25 49.875 22.25 46.0625 19.9375 43.75C17.625 41.4375 13.8125 41.4375 11.5 43.75C9.1875 46.0625 9.1875 49.875 11.5 52.1875H1.75V53.9375H76.5625V52.1875H68.125C69.25 51.0625 69.875 49.5 69.875 47.9375ZM15.75 52.1875C13.4375 52.1875 11.5 50.3125 11.5 47.9375C11.5 45.625 13.375 43.6875 15.75 43.6875C18.0625 43.6875 20 45.5625 20 47.875C19.9375 50.3125 18.0625 52.1875 15.75 52.1875ZM63.875 52.1875C61.5625 52.1875 59.625 50.3125 59.625 48C59.625 45.6875 61.5 43.75 63.875 43.75C66.1875 43.75 68.125 45.625 68.125 48C68.125 50.25 66.25 52.1875 63.875 52.1875Z" fill="#404041"/>
<path d="M16.4375 47.9375C16.4375 48.375 16.125 48.6875 15.6875 48.6875C15.25 48.6875 14.9375 48.375 14.9375 47.9375H13.1875C13.1875 49.3125 14.3125 50.4375 15.6875 50.4375C17.0625 50.4375 18.1875 49.3125 18.1875 47.9375H16.4375Z" fill="#404041"/>
<path d="M63.875 48.6875C63.4375 48.6875 63.125 48.375 63.125 47.9375H61.375C61.375 49.3125 62.5 50.4375 63.875 50.4375C65.25 50.4375 66.375 49.3125 66.375 47.9375H64.625C64.625 48.375 64.3125 48.6875 63.875 48.6875Z" fill="#404041"/>
</svg>
