<svg width="80" height="80" viewBox="0 0 80 80" fill="none" xmlns="http://www.w3.org/2000/svg">
<path d="M1.625 34L9.8125 32.375H3.25L9.8125 25.8125H6.5625V24.1875H47.375L49 25.8125H47.375L57.1875 32.375H53.9375L45.6875 25.8125H21.25L17.9375 32.375L32.625 34V27.4375H34.25V34H75.0625L78.3125 37.25L75.0625 38.875L76.6875 40.5H79.9375V43.75V48.625L75.0625 51.875H74.4375C76.125 47.4375 73.9375 42.4375 69.5 40.75C65.0625 39.0625 60.0625 41.25 58.375 45.6875C57.625 47.6875 57.625 49.875 58.375 51.875H25.75C27.4375 47.4375 25.25 42.4375 20.8125 40.75C16.375 39.0625 11.375 41.25 9.6875 45.6875C8.9375 47.6875 8.9375 49.875 9.6875 51.875H8.125L0 47.0625V43.8125H3.25L1.625 42.1875V34ZM62.75 48.8125C62.75 50.875 64.4375 52.5 66.4375 52.5C68.4375 52.5 70.125 50.8125 70.125 48.8125H68.5C68.5625 49.9375 67.6875 50.9375 66.5625 51C65.4375 51.0625 64.4375 50.1875 64.375 49.0625C64.375 49 64.375 48.9375 64.375 48.8125H62.75ZM66.4375 41.875C70.3125 41.875 73.4375 45 73.4375 48.8125C73.4375 50.875 72.5 52.875 70.9375 54.1875H76.75V55.8125H1.625V54.1875H13.25C10.3125 51.6875 9.9375 47.3125 12.375 44.375C14.8125 41.4375 19.25 41.0625 22.1875 43.5C25.125 46 25.5 50.375 23.0625 53.3125C22.8125 53.625 22.5 53.9375 22.1875 54.1875H61.9375C59 51.6875 58.625 47.3125 61.0625 44.375C62.4375 42.8125 64.375 41.875 66.4375 41.875ZM66.4375 43.5C63.5 43.5 61.125 45.875 61.125 48.8125C61.125 51.75 63.5 54.125 66.4375 54.125C69.375 54.125 71.75 51.75 71.75 48.8125C71.75 45.875 69.375 43.5 66.4375 43.5ZM14 48.8125C14 50.875 15.6875 52.5 17.6875 52.5C19.75 52.5 21.375 50.8125 21.375 48.8125H19.75C19.8125 49.9375 18.9375 50.9375 17.8125 51C16.6875 51.0625 15.6875 50.1875 15.625 49.0625C15.625 49 15.625 48.9375 15.625 48.8125H14ZM17.75 43.5C14.8125 43.5 12.4375 45.875 12.4375 48.8125C12.4375 51.75 14.8125 54.125 17.75 54.125C20.6875 54.125 23.0625 51.75 23.0625 48.8125C23.0625 45.875 20.6875 43.5 17.75 43.5ZM3.25 35.3125V41.4375L7.1875 45.375H1.625V46.0625L7.5 49.5625C7.5 49.3125 7.5 49 7.5 48.75C7.4375 43.125 12 38.4375 17.625 38.375C23.25 38.3125 27.9375 42.875 28 48.5C28 49.0625 27.9375 49.625 27.875 50.1875H56.3125C55.5 44.625 59.3125 39.375 64.9375 38.5625C70.5625 37.75 75.75 41.5625 76.5625 47.1875C76.625 47.6875 76.6875 48.25 76.6875 48.75C76.6875 48.8125 76.6875 48.8125 76.6875 48.875L78.375 47.75V42.0625H76.0625L72.375 38.375L75.625 36.75L74.4375 35.5625H32.5625L15.4375 33.6875L19.375 25.8125H12.125L7.25 30.6875H11.25L11.5625 33.625L3.25 35.3125Z" fill="#404041"/>
</svg>
