<svg width="80" height="80" viewBox="0 0 80 80" fill="none" xmlns="http://www.w3.org/2000/svg">
<path d="M12.3125 50.625C11.9375 50.625 11.625 50.3125 11.625 49.9375H10.0625C10.0625 51.1875 11.0625 52.1875 12.3125 52.1875C13.5625 52.1875 14.5625 51.1875 14.5625 49.9375H13C13 50.3125 12.6875 50.625 12.3125 50.625Z" fill="#404041"/>
<path d="M67.5625 50.625C67.1875 50.625 66.875 50.3125 66.875 49.9375H65.3125C65.3125 51.1875 66.3125 52.1875 67.5625 52.1875C68.8125 52.1875 69.8125 51.1875 69.8125 49.9375H68.25C68.25 50.3125 67.9375 50.625 67.5625 50.625Z" fill="#404041"/>
<path d="M78.4375 43.5L76.875 41.9375L78.375 40.3125L76.8125 38.75L70.5625 35.625H64.3125L48.625 34.0625L47.0625 32.5V29.375H59.625L65.875 34.0625H69L58.0625 26.25L53.375 24.6875H4.6875L3.125 26.25L1.5625 35.625H21.9375L23.5 37.1875H1.5625V41.875H0V45L1.5625 48.125L5.4375 50.6875C5.375 49.9375 5.375 49.1875 5.5 48.5C6.25 44.75 9.9375 42.3125 13.6875 43.0625C17.4375 43.8125 19.875 47.5 19.125 51.25H60.6875C60.5 50.3125 60.5 49.4375 60.6875 48.5C61.4375 44.75 65.125 42.3125 68.875 43.0625C72.625 43.8125 75.0625 47.5 74.3125 51.25H76.8125L79.9375 48.125V43.4375H78.4375V43.5ZM78.4375 47.5625L76.25 49.75H76.125C76.125 45.0625 72.3125 41.25 67.625 41.25C62.9375 41.25 59.125 45.0625 59.125 49.75H20.875C20.8125 45.875 18.125 42.5625 14.3125 41.625C9.75 40.5 5.125 43.375 4.0625 47.9375L2.8125 47.0625L1.5625 44.625V43.4375H3.125V38.75H27.3125L22.625 34.0625H3.4375L4.625 27L5.375 26.25H53.125L57.375 27.625L57.5625 27.8125H45.5V33.1875L47.9375 35.625L64.3125 37.25H70.3125L76 40.125L76.3125 40.4375L74.75 42L77.875 45.125H78.5V47.5625H78.4375Z" fill="#404041"/>
<path d="M72.9375 49.9376C72.9375 46.9376 70.5 44.5626 67.5625 44.5626C66.125 44.5626 64.75 45.1251 63.75 46.1251C61.625 48.2501 61.6875 51.6251 63.75 53.7501H16.125C18.25 51.6251 18.1875 48.2501 16.125 46.1251C14 44.0001 10.625 44.0626 8.5 46.1251C6.375 48.2501 6.4375 51.6251 8.5 53.7501H1.5625V55.3126H76.875V53.7501H71.375C72.375 52.7501 72.9375 51.3751 72.9375 49.9376ZM12.375 53.7501C10.25 53.7501 8.5625 52.0626 8.5625 49.9376C8.5625 47.8126 10.25 46.1251 12.375 46.1251C14.5 46.1251 16.1875 47.8126 16.1875 49.9376C16.125 52.0626 14.4375 53.7501 12.375 53.7501ZM67.5625 53.7501C65.4375 53.7501 63.75 52.0626 63.75 49.9376C63.75 47.8126 65.4375 46.1251 67.5625 46.1251C69.6875 46.1251 71.375 47.8126 71.375 49.9376C71.375 52.0626 69.625 53.7501 67.5625 53.7501Z" fill="#404041"/>
</svg>
