<svg width="80" height="80" viewBox="0 0 80 80" fill="none" xmlns="http://www.w3.org/2000/svg">
<path d="M14.8125 48C14.375 48 14.0625 47.625 14.0625 47.25H12.3125C12.3125 48.6875 13.4375 49.8125 14.875 49.8125C16.3125 49.8125 17.4375 48.6875 17.4375 47.25H15.6875C15.5625 47.625 15.25 48 14.8125 48Z" fill="#404041"/>
<path d="M76.4375 40.875L78.25 39.125L74.6875 37.375L67.5625 35.625H35.5625L33.8125 30.3125H32.0625L33.8125 35.625H21.375L23.125 30.3125H21.3125L19.5 35.625L14.1875 32.0625L17.75 28.5H42.625L53.3125 33.8125H56.875L42.6875 26.6875H10.6875L5.375 28.4375L1.8125 33.75H5.375L3.625 35.5H1.75V39.0625L0 40.875V42.625L1.75 47.9375L5.3125 49.6875H7.3125C6.75 48.0625 6.75 46.25 7.3125 44.625C8.6875 40.5 13.1875 38.3125 17.3125 39.6875C21.4375 41.0625 23.625 45.5625 22.25 49.6875H55C54.4375 48.0625 54.4375 46.3125 55 44.625C56.375 40.5 60.875 38.3125 65 39.6875C69.125 41.0625 71.3125 45.5625 69.9375 49.6875H76.4375L78.1875 47.9375V46.1875L79.9375 44.4375V40.875H76.4375ZM78.3125 43.6875L76.5625 45.4375V47.25L75.8125 48H72.1875C72.1875 47.75 72.1875 47.5 72.1875 47.25C72.1875 41.9375 67.875 37.5625 62.5 37.5625C57.1875 37.5625 52.8125 41.875 52.8125 47.25C52.8125 47.5 52.8125 47.75 52.8125 48H24.5C24.5 47.75 24.5 47.5 24.5 47.25C24.375 42.125 20.25 37.9375 15.0625 37.8125C9.75 37.6875 5.3125 41.875 5.1875 47.1875C5.1875 47.375 5.1875 47.5 5.1875 47.6875L3.25 46.6875V46.75L1.8125 42.375V41.625L3.5625 39.875V37.375H4.3125L9.625 32.0625H5.125L6.5 30L11 28.5H15.3125L11.5 32.3125L19.0625 37.375H67.4375L74.125 39.0625L75.25 39.625L72.125 42.6875H78.25V43.6875H78.3125Z" fill="#404041"/>
<path d="M68.5625 47.1875C68.5625 43.8125 65.8125 41.125 62.4375 41.0625C60.8125 41.0625 59.25 41.6875 58.0625 42.875C55.6875 45.25 55.6875 49.125 58.125 51.5H19.125C21.5 49.125 21.5 45.25 19.125 42.875C16.75 40.5 12.875 40.5 10.5 42.875C8.125 45.25 8.125 49.125 10.5 51.5H1.75V53.25H76.4375V51.5H66.75C67.9375 50.375 68.5625 48.8125 68.5625 47.1875ZM14.8125 51.5625C12.4375 51.5625 10.5 49.625 10.5 47.25C10.5 44.875 12.4375 42.9375 14.8125 42.9375C17.1875 42.9375 19.125 44.875 19.125 47.25C19.125 49.625 17.1875 51.5625 14.8125 51.5625ZM62.375 51.5625C60 51.5625 58.125 49.625 58.125 47.25C58.125 44.875 60.0625 42.9375 62.4375 42.9375H62.5C64.875 42.9375 66.8125 44.9375 66.75 47.3125C66.75 49.625 64.8125 51.5625 62.375 51.5625Z" fill="#404041"/>
<path d="M62.4375 48C62 48 61.6875 47.6875 61.6875 47.25H59.9375C59.9375 48.6875 61.0625 49.8125 62.5 49.8125C63.9375 49.8125 65.0625 48.6875 65.0625 47.25H63.3125C63.1875 47.625 62.875 48 62.4375 48Z" fill="#404041"/>
</svg>
