<svg width="41" height="40" viewBox="0 0 41 40" fill="none" xmlns="http://www.w3.org/2000/svg">
<path d="M28.6296 19.6667C27.9813 19.6667 27.3596 19.4091 26.9011 18.9507C26.4427 18.4923 26.1852 17.8705 26.1852 17.2222C26.1852 16.5739 26.4427 15.9522 26.9011 15.4937C27.3596 15.0353 27.9813 14.7778 28.6296 14.7778C29.2779 14.7778 29.8997 15.0353 30.3581 15.4937C30.8165 15.9522 31.0741 16.5739 31.0741 17.2222C31.0741 17.8705 30.8165 18.4923 30.3581 18.9507C29.8997 19.4091 29.2779 19.6667 28.6296 19.6667ZM23.7407 13.1481C23.0924 13.1481 22.4707 12.8906 22.0123 12.4322C21.5538 11.9738 21.2963 11.352 21.2963 10.7037C21.2963 10.0554 21.5538 9.43364 22.0123 8.97522C22.4707 8.5168 23.0924 8.25926 23.7407 8.25926C24.389 8.25926 25.0108 8.5168 25.4692 8.97522C25.9276 9.43364 26.1852 10.0554 26.1852 10.7037C26.1852 11.352 25.9276 11.9738 25.4692 12.4322C25.0108 12.8906 24.389 13.1481 23.7407 13.1481ZM15.5926 13.1481C14.9443 13.1481 14.3225 12.8906 13.8641 12.4322C13.4057 11.9738 13.1481 11.352 13.1481 10.7037C13.1481 10.0554 13.4057 9.43364 13.8641 8.97522C14.3225 8.5168 14.9443 8.25926 15.5926 8.25926C16.2409 8.25926 16.8627 8.5168 17.3211 8.97522C17.7795 9.43364 18.037 10.0554 18.037 10.7037C18.037 11.352 17.7795 11.9738 17.3211 12.4322C16.8627 12.8906 16.2409 13.1481 15.5926 13.1481ZM10.7037 19.6667C10.0554 19.6667 9.43364 19.4091 8.97522 18.9507C8.5168 18.4923 8.25926 17.8705 8.25926 17.2222C8.25926 16.5739 8.5168 15.9522 8.97522 15.4937C9.43364 15.0353 10.0554 14.7778 10.7037 14.7778C11.352 14.7778 11.9738 15.0353 12.4322 15.4937C12.8906 15.9522 13.1481 16.5739 13.1481 17.2222C13.1481 17.8705 12.8906 18.4923 12.4322 18.9507C11.9738 19.4091 11.352 19.6667 10.7037 19.6667ZM19.6667 5C15.7768 5 12.0463 6.54523 9.29577 9.29577C6.54523 12.0463 5 15.7768 5 19.6667C5 23.5565 6.54523 27.287 9.29577 30.0376C12.0463 32.7881 15.7768 34.3333 19.6667 34.3333C20.315 34.3333 20.9367 34.0758 21.3952 33.6174C21.8536 33.1589 22.1111 32.5372 22.1111 31.8889C22.1111 31.2533 21.8667 30.683 21.4756 30.2593C21.1007 29.8193 20.8563 29.2489 20.8563 28.6296C20.8563 27.9813 21.1138 27.3596 21.5723 26.9011C22.0307 26.4427 22.6524 26.1852 23.3007 26.1852H26.1852C28.3462 26.1852 30.4187 25.3267 31.9468 23.7986C33.4749 22.2706 34.3333 20.1981 34.3333 18.037C34.3333 10.8341 27.7659 5 19.6667 5Z" fill="#262626"/>
</svg>
