<svg width="41" height="41" viewBox="0 0 41 41" fill="none" xmlns="http://www.w3.org/2000/svg">
<path d="M22.2 27.6066C23.1333 27.9016 23.88 28.3875 24.496 29.0296H25.9333V35.9708H24.4587C23.8613 36.5782 23.1333 37.0641 22.2 37.3591C20.0533 38.0879 17.6827 37.4805 16.1893 35.9708H14.7333V29.0296H16.1707C16.7867 28.3875 17.5333 27.9016 18.4667 27.6066V20.3531H22.2V27.6066ZM20.3333 34.2355C20.8284 34.2355 21.3032 34.0527 21.6533 33.7273C22.0033 33.4018 22.2 32.9604 22.2 32.5002C22.2 32.04 22.0033 31.5986 21.6533 31.2732C21.3032 30.9477 20.8284 30.7649 20.3333 30.7649C19.8383 30.7649 19.3635 30.9477 19.0134 31.2732C18.6633 31.5986 18.4667 32.04 18.4667 32.5002C18.4667 32.9604 18.6633 33.4018 19.0134 33.7273C19.3635 34.0527 19.8383 34.2355 20.3333 34.2355ZM29.6667 6.47061H25.9333V8.20592H29.6667V18.6178H11V8.20592H14.7333V6.47061H11V3H29.6667V6.47061ZM20.3333 15.1471C20.8284 15.1471 21.3032 14.9643 21.6533 14.6389C22.0033 14.3135 22.2 13.8721 22.2 13.4118C22.2 12.9516 22.0033 12.5102 21.6533 12.1848C21.3032 11.8594 20.8284 11.6765 20.3333 11.6765C19.8383 11.6765 19.3635 11.8594 19.0134 12.1848C18.6633 12.5102 18.4667 12.9516 18.4667 13.4118C18.4667 13.8721 18.6633 14.3135 19.0134 14.6389C19.3635 14.9643 19.8383 15.1471 20.3333 15.1471Z" fill="#262626"/>
</svg>
