<svg width="41" height="38" viewBox="0 0 41 38" fill="none" xmlns="http://www.w3.org/2000/svg">
<path d="M20.4579 32.3442L20.4432 32.3469L20.3486 32.3936L20.3219 32.3989L20.3032 32.3936L20.2086 32.3469C20.1943 32.3425 20.1837 32.3447 20.1766 32.3536L20.1712 32.3669L20.1486 32.9376L20.1552 32.9642L20.1686 32.9816L20.3072 33.0802L20.3272 33.0856L20.3432 33.0802L20.4819 32.9816L20.4979 32.9602L20.5032 32.9376L20.4806 32.3682C20.477 32.354 20.4694 32.346 20.4579 32.3442ZM20.8112 32.1936L20.7939 32.1962L20.5472 32.3202L20.5339 32.3336L20.5299 32.3482L20.5539 32.9216L20.5606 32.9376L20.5712 32.9469L20.8392 33.0709C20.8561 33.0754 20.869 33.0718 20.8779 33.0602L20.8832 33.0416L20.8379 32.2229C20.8334 32.2069 20.8246 32.1971 20.8112 32.1936ZM19.8579 32.1962C19.852 32.1927 19.845 32.1915 19.8383 32.193C19.8316 32.1945 19.8257 32.1985 19.8219 32.2042L19.8139 32.2229L19.7686 33.0416C19.7694 33.0576 19.777 33.0682 19.7912 33.0736L19.8112 33.0709L20.0792 32.9469L20.0926 32.9362L20.0979 32.9216L20.1206 32.3482L20.1166 32.3322L20.1032 32.3189L19.8579 32.1962Z" fill="#262626"/>
<path d="M9 8C9 6.93913 9.42143 5.92172 10.1716 5.17157C10.9217 4.42143 11.9391 4 13 4C14.0609 4 15.0783 4.42143 15.8284 5.17157C16.5786 5.92172 17 6.93913 17 8H22.3333C22.3333 6.93913 22.7548 5.92172 23.5049 5.17157C24.2551 4.42143 25.2725 4 26.3333 4C27.3942 4 28.4116 4.42143 29.1618 5.17157C29.9119 5.92172 30.3333 6.93913 30.3333 8V10.6667C30.3333 11.7275 29.9119 12.7449 29.1618 13.4951C28.4116 14.2452 27.3942 14.6667 26.3333 14.6667C25.2725 14.6667 24.2551 14.2452 23.5049 13.4951C22.7548 12.7449 22.3333 11.7275 22.3333 10.6667H21V24H22.3333C22.3333 22.9391 22.7548 21.9217 23.5049 21.1716C24.2551 20.4214 25.2725 20 26.3333 20C27.3942 20 28.4116 20.4214 29.1618 21.1716C29.9119 21.9217 30.3333 22.9391 30.3333 24V26.6667C30.3333 27.7275 29.9119 28.7449 29.1618 29.4951C28.4116 30.2452 27.3942 30.6667 26.3333 30.6667C25.2725 30.6667 24.2551 30.2452 23.5049 29.4951C22.7548 28.7449 22.3333 27.7275 22.3333 26.6667H17C17 27.192 16.8965 27.7121 16.6955 28.1974C16.4945 28.6827 16.1999 29.1237 15.8284 29.4951C15.457 29.8665 15.016 30.1612 14.5307 30.3622C14.0454 30.5632 13.5253 30.6667 13 30.6667C12.4747 30.6667 11.9546 30.5632 11.4693 30.3622C10.984 30.1612 10.543 29.8665 10.1716 29.4951C9.80014 29.1237 9.5055 28.6827 9.30448 28.1974C9.10346 27.7121 9 27.192 9 26.6667V24C9 23.4747 9.10346 22.9546 9.30448 22.4693C9.5055 21.984 9.80014 21.543 10.1716 21.1716C10.543 20.8001 10.984 20.5055 11.4693 20.3045C11.9546 20.1035 12.4747 20 13 20C13.5253 20 14.0454 20.1035 14.5307 20.3045C15.016 20.5055 15.457 20.8001 15.8284 21.1716C16.1999 21.543 16.4945 21.984 16.6955 22.4693C16.8965 22.9546 17 23.4747 17 24H18.3333V10.6667H17C17 11.7275 16.5786 12.7449 15.8284 13.4951C15.0783 14.2452 14.0609 14.6667 13 14.6667C11.9391 14.6667 10.9217 14.2452 10.1716 13.4951C9.42143 12.7449 9 11.7275 9 10.6667V8Z" fill="#262626"/>
</svg>
