<svg width="40" height="40" viewBox="0 0 40 40" fill="none" xmlns="http://www.w3.org/2000/svg">
<path d="M19.9997 36.6663C17.6941 36.6663 15.5275 36.2286 13.4997 35.353C11.4719 34.4775 9.70801 33.2902 8.20801 31.7913C6.70801 30.2925 5.52079 28.5286 4.64634 26.4997C3.7719 24.4708 3.33412 22.3041 3.33301 19.9997C3.3319 17.6952 3.76968 15.5286 4.64634 13.4997C5.52301 11.4708 6.71023 9.7069 8.20801 8.20801C9.70579 6.70912 11.4697 5.5219 13.4997 4.64634C15.5297 3.77079 17.6963 3.33301 19.9997 3.33301C22.303 3.33301 24.4697 3.77079 26.4997 4.64634C28.5297 5.5219 30.2936 6.70912 31.7913 8.20801C33.2891 9.7069 34.4769 11.4708 35.3547 13.4997C36.2325 15.5286 36.6697 17.6952 36.6663 19.9997C36.663 22.3041 36.2252 24.4708 35.353 26.4997C34.4808 28.5286 33.2936 30.2925 31.7913 31.7913C30.2891 33.2902 28.5252 34.478 26.4997 35.3547C24.4741 36.2313 22.3075 36.6686 19.9997 36.6663ZM19.9997 33.333C23.7219 33.333 26.8747 32.0413 29.458 29.458C32.0413 26.8747 33.333 23.7219 33.333 19.9997C33.333 19.8052 33.3263 19.6036 33.313 19.3947C33.2997 19.1858 33.2925 19.0125 33.2913 18.8747C33.1525 19.6802 32.7775 20.3469 32.1663 20.8747C31.5552 21.4025 30.833 21.6663 29.9997 21.6663H26.6663C25.7497 21.6663 24.9652 21.3402 24.313 20.688C23.6608 20.0358 23.3341 19.2508 23.333 18.333V16.6663H16.6663V13.333C16.6663 12.4163 16.993 11.6319 17.6463 10.9797C18.2997 10.3275 19.0841 10.0008 19.9997 9.99967H21.6663C21.6663 9.36079 21.8402 8.79856 22.188 8.31301C22.5358 7.82745 22.9591 7.43134 23.458 7.12467C22.9025 6.98579 22.3402 6.87467 21.7713 6.79134C21.2025 6.70801 20.6119 6.66634 19.9997 6.66634C16.2775 6.66634 13.1247 7.95801 10.5413 10.5413C7.95801 13.1247 6.66634 16.2775 6.66634 19.9997H14.9997C16.833 19.9997 18.4025 20.6525 19.708 21.958C21.0136 23.2636 21.6663 24.833 21.6663 26.6663V28.333H16.6663V32.9163C17.2219 33.0552 17.7708 33.1597 18.313 33.2297C18.8552 33.2997 19.4175 33.3341 19.9997 33.333Z" fill="#262626"/>
</svg>
