<svg width="40" height="40" viewBox="0 0 40 40" fill="none" xmlns="http://www.w3.org/2000/svg">
<path d="M28.9626 20.0007C28.3143 20.0007 27.6926 19.7431 27.2342 19.2847C26.7757 18.8263 26.5182 18.2045 26.5182 17.5562C26.5182 16.9079 26.7757 16.2861 27.2342 15.8277C27.6926 15.3693 28.3143 15.1118 28.9626 15.1118C29.6109 15.1118 30.2327 15.3693 30.6911 15.8277C31.1495 16.2861 31.4071 16.9079 31.4071 17.5562C31.4071 18.2045 31.1495 18.8263 30.6911 19.2847C30.2327 19.7431 29.6109 20.0007 28.9626 20.0007ZM24.0737 13.4821C23.4254 13.4821 22.8037 13.2246 22.3453 12.7662C21.8868 12.3077 21.6293 11.686 21.6293 11.0377C21.6293 10.3894 21.8868 9.76763 22.3453 9.3092C22.8037 8.85078 23.4254 8.59324 24.0737 8.59324C24.7221 8.59324 25.3438 8.85078 25.8022 9.3092C26.2607 9.76763 26.5182 10.3894 26.5182 11.0377C26.5182 11.686 26.2607 12.3077 25.8022 12.7662C25.3438 13.2246 24.7221 13.4821 24.0737 13.4821ZM15.9256 13.4821C15.2773 13.4821 14.6555 13.2246 14.1971 12.7662C13.7387 12.3077 13.4812 11.686 13.4812 11.0377C13.4812 10.3894 13.7387 9.76763 14.1971 9.3092C14.6555 8.85078 15.2773 8.59324 15.9256 8.59324C16.5739 8.59324 17.1957 8.85078 17.6541 9.3092C18.1125 9.76763 18.37 10.3894 18.37 11.0377C18.37 11.686 18.1125 12.3077 17.6541 12.7662C17.1957 13.2246 16.5739 13.4821 15.9256 13.4821ZM11.0367 20.0007C10.3884 20.0007 9.76665 19.7431 9.30823 19.2847C8.84981 18.8263 8.59227 18.2045 8.59227 17.5562C8.59227 16.9079 8.84981 16.2861 9.30823 15.8277C9.76665 15.3693 10.3884 15.1118 11.0367 15.1118C11.685 15.1118 12.3068 15.3693 12.7652 15.8277C13.2236 16.2861 13.4812 16.9079 13.4812 17.5562C13.4812 18.2045 13.2236 18.8263 12.7652 19.2847C12.3068 19.7431 11.685 20.0007 11.0367 20.0007ZM19.9997 5.33398C16.1098 5.33398 12.3793 6.87922 9.62877 9.62975C6.87824 12.3803 5.33301 16.1108 5.33301 20.0007C5.33301 23.8905 6.87824 27.621 9.62877 30.3715C12.3793 33.1221 16.1098 34.6673 19.9997 34.6673C20.648 34.6673 21.2697 34.4098 21.7282 33.9514C22.1866 33.4929 22.4441 32.8712 22.4441 32.2229C22.4441 31.5873 22.1997 31.0169 21.8086 30.5932C21.4337 30.1532 21.1893 29.5829 21.1893 28.9636C21.1893 28.3153 21.4468 27.6936 21.9053 27.2351C22.3637 26.7767 22.9854 26.5192 23.6337 26.5192H26.5182C28.6792 26.5192 30.7517 25.6607 32.2798 24.1326C33.8079 22.6046 34.6663 20.532 34.6663 18.371C34.6663 11.1681 28.0989 5.33398 19.9997 5.33398Z" fill="#262626"/>
</svg>
