<svg width="43" height="40" viewBox="0 0 43 40" fill="none" xmlns="http://www.w3.org/2000/svg">
<path d="M35.6996 20.9536C37.2995 20.9536 38.5662 22.2734 38.5662 23.9406C38.5662 24.7394 38.2662 25.5035 37.7329 26.0592H40.9995V26.9275H0.833323V26.0592H7.16658C6.03326 24.8783 6.03326 23.0028 7.16658 21.8219C8.2999 20.641 10.0999 20.641 11.2332 21.8219C12.3665 23.0028 12.3665 24.8783 11.2332 26.0592H33.6663C32.5329 24.8783 32.5329 23.0028 33.6663 21.8219C34.1996 21.301 34.9329 20.9536 35.6996 20.9536ZM1.66665 24.3226L0.833323 23.4543L3.33329 22.586H0V20.8494H1.66665L0.833323 19.9811H0L0.833323 18.2445L5.03327 17.3762H0.833323L1.66665 16.4732H5.8666L11.7332 13.8683L15.0665 13H20.9331L25.0997 13.8683L30.133 16.4732L28.4663 17.3415L24.2664 14.7366L20.9331 13.8683H15.8998L12.5665 15.6049L10.8999 16.4732L13.3998 17.3415V15.6049L14.2332 17.3415H19.2331V14.7366H20.0664V17.3415L28.433 18.2445L31.7663 16.5079L39.2995 18.2445L41.7995 19.9811H40.9995L40.1662 20.8494H42.6661V22.586L41.8328 23.4543H40.1662L41.8328 24.3226L40.9995 25.2257H39.2329C39.8995 23.2112 38.8662 21.0231 36.8995 20.3285C34.9329 19.6338 32.8663 20.7105 32.1996 22.7597C31.9329 23.5585 31.9329 24.4268 32.1996 25.2257H12.7332C13.3998 23.2112 12.3665 21.0231 10.4332 20.3285C8.4999 19.6338 6.39992 20.7105 5.73326 22.725C5.4666 23.5238 5.4666 24.3921 5.73326 25.1909L1.66665 24.3226ZM35.6996 23.1417C35.2662 23.1417 34.9329 23.4891 34.9329 23.9406C34.9329 24.3921 35.2662 24.7394 35.6996 24.7394C36.1329 24.7394 36.4662 24.3921 36.4662 23.9406C36.4662 23.5238 36.1329 23.1417 35.6996 23.1417ZM9.19989 23.1417C8.76656 23.1417 8.43323 23.5238 8.43323 23.9753C8.43323 24.4268 8.79989 24.7742 9.23322 24.7742C9.66655 24.7742 9.99988 24.3921 9.99988 23.9753C9.99988 23.5238 9.66655 23.1417 9.19989 23.1417ZM35.6996 22.2734C34.7996 22.2734 34.0996 23.0376 34.0996 23.9753C34.0996 24.9131 34.8329 25.6425 35.7329 25.6425C36.6329 25.6425 37.3329 24.8783 37.3329 23.9753C37.3329 23.0376 36.5996 22.2734 35.6996 22.2734ZM9.19989 22.2734C8.2999 22.2734 7.56657 23.0376 7.56657 23.9406C7.56657 24.8783 8.2999 25.6077 9.16655 25.6077C10.0332 25.6077 10.7999 24.8436 10.7999 23.9406C10.8332 23.0376 10.0999 22.2734 9.19989 22.2734Z" fill="#262626"/>
</svg>
