<svg width="40" height="40" viewBox="0 0 40 40" fill="none" xmlns="http://www.w3.org/2000/svg">
<path fill-rule="evenodd" clip-rule="evenodd" d="M7.33301 9.3941C7.33301 9.02436 7.4799 8.66977 7.74136 8.40832C8.00283 8.14688 8.35745 8 8.72722 8H18.7265C19.8352 8.00061 20.8984 8.44137 21.6822 9.22541L31.4417 18.9841C32.2258 19.7684 32.6663 20.832 32.6663 21.941C32.6663 23.05 32.2258 24.1136 31.4417 24.8978L24.2336 32.1081C23.8452 32.4966 23.3841 32.8047 22.8766 33.0149C22.3691 33.2251 21.8252 33.3333 21.2758 33.3333C20.7265 33.3333 20.1825 33.2251 19.675 33.0149C19.1675 32.8047 18.7064 32.4966 18.318 32.1081L8.55852 22.3494C7.77407 21.5653 7.33324 20.5017 7.33301 19.3926V9.3941ZM15.6983 14.2734C15.1436 14.2734 14.6117 14.4938 14.2195 14.8859C13.8273 15.2781 13.607 15.81 13.607 16.3646V16.3785C13.607 16.9331 13.8273 17.465 14.2195 17.8572C14.6117 18.2494 15.1436 18.4697 15.6983 18.4697H15.7122C16.2669 18.4697 16.7988 18.2494 17.191 17.8572C17.5832 17.465 17.8035 16.9331 17.8035 16.3785V16.3646C17.8035 15.81 17.5832 15.2781 17.191 14.8859C16.7988 14.4938 16.2669 14.2734 15.7122 14.2734H15.6983Z" fill="#262626"/>
</svg>
