<svg width="40" height="40" viewBox="0 0 40 40" fill="none" xmlns="http://www.w3.org/2000/svg">
<path d="M28.9626 19.9997C28.3143 19.9997 27.6926 19.7421 27.2342 19.2837C26.7757 18.8253 26.5182 18.2035 26.5182 17.5552C26.5182 16.9069 26.7757 16.2852 27.2342 15.8267C27.6926 15.3683 28.3143 15.1108 28.9626 15.1108C29.6109 15.1108 30.2327 15.3683 30.6911 15.8267C31.1495 16.2852 31.4071 16.9069 31.4071 17.5552C31.4071 18.2035 31.1495 18.8253 30.6911 19.2837C30.2327 19.7421 29.6109 19.9997 28.9626 19.9997ZM24.0737 13.4812C23.4254 13.4812 22.8037 13.2236 22.3453 12.7652C21.8868 12.3068 21.6293 11.685 21.6293 11.0367C21.6293 10.3884 21.8868 9.76665 22.3453 9.30823C22.8037 8.84981 23.4254 8.59227 24.0737 8.59227C24.7221 8.59227 25.3438 8.84981 25.8022 9.30823C26.2607 9.76665 26.5182 10.3884 26.5182 11.0367C26.5182 11.685 26.2607 12.3068 25.8022 12.7652C25.3438 13.2236 24.7221 13.4812 24.0737 13.4812ZM15.9256 13.4812C15.2773 13.4812 14.6555 13.2236 14.1971 12.7652C13.7387 12.3068 13.4812 11.685 13.4812 11.0367C13.4812 10.3884 13.7387 9.76665 14.1971 9.30823C14.6555 8.84981 15.2773 8.59227 15.9256 8.59227C16.5739 8.59227 17.1957 8.84981 17.6541 9.30823C18.1125 9.76665 18.37 10.3884 18.37 11.0367C18.37 11.685 18.1125 12.3068 17.6541 12.7652C17.1957 13.2236 16.5739 13.4812 15.9256 13.4812ZM11.0367 19.9997C10.3884 19.9997 9.76665 19.7421 9.30823 19.2837C8.84981 18.8253 8.59227 18.2035 8.59227 17.5552C8.59227 16.9069 8.84981 16.2852 9.30823 15.8267C9.76665 15.3683 10.3884 15.1108 11.0367 15.1108C11.685 15.1108 12.3068 15.3683 12.7652 15.8267C13.2236 16.2852 13.4812 16.9069 13.4812 17.5552C13.4812 18.2035 13.2236 18.8253 12.7652 19.2837C12.3068 19.7421 11.685 19.9997 11.0367 19.9997ZM19.9997 5.33301C16.1098 5.33301 12.3793 6.87824 9.62877 9.62877C6.87824 12.3793 5.33301 16.1098 5.33301 19.9997C5.33301 23.8895 6.87824 27.62 9.62877 30.3706C12.3793 33.1211 16.1098 34.6663 19.9997 34.6663C20.648 34.6663 21.2697 34.4088 21.7282 33.9504C22.1866 33.492 22.4441 32.8702 22.4441 32.2219C22.4441 31.5863 22.1997 31.016 21.8086 30.5923C21.4337 30.1523 21.1893 29.5819 21.1893 28.9626C21.1893 28.3143 21.4468 27.6926 21.9053 27.2342C22.3637 26.7757 22.9854 26.5182 23.6337 26.5182H26.5182C28.6792 26.5182 30.7517 25.6597 32.2798 24.1317C33.8079 22.6036 34.6663 20.5311 34.6663 18.37C34.6663 11.1671 28.0989 5.33301 19.9997 5.33301Z" fill="#262626"/>
</svg>
