<svg width="41" height="40" viewBox="0 0 41 40" fill="none" xmlns="http://www.w3.org/2000/svg">
<path d="M11.8333 27.1667L6.83333 3C6.83333 3 15.5833 4.66667 15.5833 8C15.5833 10.0833 12.25 11.3333 13.5 12.5833C14.75 13.8333 19.3333 15.0833 19.3333 18.4167C19.3333 20.5 17.9667 22.05 19.3333 23.4167C20.5833 24.6667 21.8333 24.0117 23.9167 23.4167C26.25 22.75 31 22.1667 32.6667 22.5833C34.3333 23 36 23.8333 36 26.3333C36 27.7083 35.1667 29.25 33.0833 29.6667C31 30.0833 28.5 28 25.1667 28C21.8333 28 17.6667 30.5 15.1667 30.5C12.6667 30.5 11.8333 27.1667 11.8333 27.1667Z" fill="#262626" stroke="#262626" stroke-width="3.33333" stroke-linejoin="round"/>
<path d="M32.666 29.667L35.166 36.3337H7.66602L12.666 29.667" stroke="#262626" stroke-width="3.33333" stroke-linejoin="round"/>
</svg>
