<svg width="41" height="40" viewBox="0 0 41 40" fill="none" xmlns="http://www.w3.org/2000/svg">
<path d="M35 8C35 6.93913 34.5786 5.92172 33.8284 5.17157C33.0783 4.42143 32.0609 4 31 4H19C17.9391 4 16.9217 4.42143 16.1716 5.17157C15.4214 5.92172 15 6.93913 15 8V24C13.9391 24 12.9217 24.4214 12.1716 25.1716C11.4214 25.9217 11 26.9391 11 28V29C11 29.2652 10.8946 29.5196 10.7071 29.7071C10.5196 29.8946 10.2652 30 10 30C9.73478 30 9.48043 29.8946 9.29289 29.7071C9.10536 29.5196 9 29.2652 9 29V20H10C10.2652 20 10.5196 19.8946 10.7071 19.7071C10.8946 19.5196 11 19.2652 11 19V12.75C11 12.4848 10.8946 12.2304 10.7071 12.0429C10.5196 11.8554 10.2652 11.75 10 11.75H7.01C7.032 10.798 7.116 9.962 7.412 9.306C7.57046 8.92457 7.84652 8.60366 8.2 8.39C8.568 8.17 9.128 8 10 8C10.2652 8 10.5196 7.89464 10.7071 7.70711C10.8946 7.51957 11 7.26522 11 7C11 6.73478 10.8946 6.48043 10.7071 6.29289C10.5196 6.10536 10.2652 6 10 6C8.872 5.99733 7.93067 6.22133 7.176 6.672C6.41 7.128 5.908 7.774 5.588 8.486C4.998 9.796 5 11.416 5 12.648V19C5 19.2652 5.10536 19.5196 5.29289 19.7071C5.48043 19.8946 5.73478 20 6 20H7V29C7 29.7956 7.31607 30.5587 7.87868 31.1213C8.44129 31.6839 9.20435 32 10 32C10.7956 32 11.5587 31.6839 12.1213 31.1213C12.6839 30.5587 13 29.7956 13 29V28C13 27.4696 13.2107 26.9609 13.5858 26.5858C13.9609 26.2107 14.4696 26 15 26V34H14C13.7348 34 13.4804 34.1054 13.2929 34.2929C13.1054 34.4804 13 34.7348 13 35C13 35.2652 13.1054 35.5196 13.2929 35.7071C13.4804 35.8946 13.7348 36 14 36H36C36.2652 36 36.5196 35.8946 36.7071 35.7071C36.8946 35.5196 37 35.2652 37 35C37 34.7348 36.8946 34.4804 36.7071 34.2929C36.5196 34.1054 36.2652 34 36 34H35V8ZM30 8C30.2652 8 30.5196 8.10536 30.7071 8.29289C30.8946 8.48043 31 8.73478 31 9V19C31 19.2652 30.8946 19.5196 30.7071 19.7071C30.5196 19.8946 30.2652 20 30 20H20C19.7348 20 19.4804 19.8946 19.2929 19.7071C19.1054 19.5196 19 19.2652 19 19V9C19 8.73478 19.1054 8.48043 19.2929 8.29289C19.4804 8.10536 19.7348 8 20 8H30Z" fill="#262626"/>
</svg>
