<svg width="40" height="40" viewBox="0 0 40 40" fill="none" xmlns="http://www.w3.org/2000/svg">
<g clip-path="url(#clip0_237_5718)">
<path d="M20 3.75C16.7861 3.75 13.6443 4.70305 10.972 6.48862C8.29969 8.27419 6.21689 10.8121 4.98696 13.7814C3.75704 16.7507 3.43524 20.018 4.06225 23.1702C4.68926 26.3224 6.23692 29.2179 8.50952 31.4905C10.7821 33.7631 13.6776 35.3108 16.8298 35.9378C19.982 36.5648 23.2493 36.243 26.2186 35.013C29.1879 33.7831 31.7258 31.7003 33.5114 29.028C35.297 26.3557 36.25 23.2139 36.25 20C36.2455 15.6916 34.5319 11.561 31.4855 8.51454C28.439 5.46806 24.3084 3.75455 20 3.75ZM7.75469 26.25H14.1328L16.7891 33.3719C14.8596 32.9042 13.0538 32.0259 11.4947 30.7969C9.93557 29.5678 8.6599 28.0169 7.75469 26.25ZM20 24.375C19.5056 24.375 19.0222 24.2284 18.6111 23.9537C18.2 23.679 17.8795 23.2885 17.6903 22.8317C17.5011 22.3749 17.4516 21.8722 17.548 21.3873C17.6445 20.9023 17.8826 20.4569 18.2322 20.1072C18.5819 19.7576 19.0273 19.5195 19.5123 19.423C19.9972 19.3266 20.4999 19.3761 20.9567 19.5653C21.4135 19.7545 21.804 20.075 22.0787 20.4861C22.3534 20.8972 22.5 21.3805 22.5 21.875C22.5 22.538 22.2366 23.1739 21.7678 23.6428C21.2989 24.1116 20.663 24.375 20 24.375ZM23.1969 33.3734L25.8672 26.25H32.2453C31.3389 28.0188 30.0611 29.571 28.4995 30.8004C26.9378 32.0299 25.129 32.9075 23.1969 33.3734ZM20 15C14.9637 15.0061 10.0924 16.7958 6.25001 20.0516V20C6.25001 16.3533 7.69866 12.8559 10.2773 10.2773C12.8559 7.69866 16.3533 6.25 20 6.25C23.6467 6.25 27.1441 7.69866 29.7227 10.2773C32.3014 12.8559 33.75 16.3533 33.75 20V20.0516C29.9076 16.7958 25.0363 15.0061 20 15Z" fill="#262626"/>
<path d="M9.67656 7.98C9.6099 8.09333 9.5399 8.17667 9.46656 8.23C9.39323 8.28333 9.2999 8.31 9.18656 8.31C9.06656 8.31 8.9299 8.25667 8.77656 8.15C8.62323 8.03667 8.4299 7.91333 8.19656 7.78C7.9699 7.64 7.69656 7.51667 7.37656 7.41C7.05656 7.29667 6.67323 7.24 6.22656 7.24C5.80656 7.24 5.43656 7.29667 5.11656 7.41C4.80323 7.51667 4.5399 7.66667 4.32656 7.86C4.11323 8.04667 3.9499 8.27 3.83656 8.53C3.7299 8.78333 3.67656 9.06 3.67656 9.36C3.67656 9.74667 3.77323 10.0667 3.96656 10.32C4.16656 10.5733 4.42656 10.79 4.74656 10.97C5.06656 11.15 5.4299 11.3067 5.83656 11.44C6.24323 11.5733 6.6599 11.7133 7.08656 11.86C7.51323 12 7.9299 12.1633 8.33656 12.35C8.74323 12.5367 9.10656 12.7733 9.42656 13.06C9.74656 13.34 10.0032 13.6867 10.1966 14.1C10.3966 14.5067 10.4966 15.0067 10.4966 15.6C10.4966 16.2333 10.3866 16.8267 10.1666 17.38C9.95323 17.9333 9.6399 18.4167 9.22656 18.83C8.81323 19.2433 8.30323 19.57 7.69656 19.81C7.09656 20.0433 6.41323 20.16 5.64656 20.16C5.18656 20.16 4.7399 20.1133 4.30656 20.02C3.87323 19.9333 3.46323 19.81 3.07656 19.65C2.6899 19.4833 2.32656 19.2867 1.98656 19.06C1.65323 18.8267 1.35323 18.5667 1.08656 18.28L1.69656 17.26C1.75656 17.18 1.82656 17.1133 1.90656 17.06C1.99323 17.0067 2.0899 16.98 2.19656 16.98C2.33656 16.98 2.49656 17.0533 2.67656 17.2C2.86323 17.3467 3.0899 17.51 3.35656 17.69C3.6299 17.8633 3.95323 18.0233 4.32656 18.17C4.70656 18.3167 5.16656 18.39 5.70656 18.39C6.14656 18.39 6.5399 18.3333 6.88656 18.22C7.23323 18.1 7.52323 17.9333 7.75656 17.72C7.99656 17.5 8.1799 17.2367 8.30656 16.93C8.43323 16.6233 8.49656 16.2833 8.49656 15.91C8.49656 15.49 8.3999 15.1467 8.20656 14.88C8.01323 14.6133 7.75656 14.39 7.43656 14.21C7.11656 14.03 6.75323 13.8767 6.34656 13.75C5.9399 13.6233 5.52323 13.4933 5.09656 13.36C4.6699 13.22 4.25323 13.06 3.84656 12.88C3.4399 12.7 3.07656 12.4667 2.75656 12.18C2.43656 11.8867 2.1799 11.5233 1.98656 11.09C1.79323 10.65 1.69656 10.11 1.69656 9.47C1.69656 8.95667 1.79656 8.46 1.99656 7.98C2.19656 7.5 2.48656 7.07667 2.86656 6.71C3.25323 6.33667 3.72656 6.04 4.28656 5.82C4.84656 5.59333 5.48656 5.48 6.20656 5.48C7.01323 5.48 7.75323 5.61 8.42656 5.87C9.10656 6.12333 9.69656 6.49 10.1966 6.97L9.67656 7.98ZM15.4563 20.16C14.6363 20.16 14.0029 19.93 13.5563 19.47C13.1163 19.01 12.8963 18.3533 12.8963 17.5V11.42H11.7163C11.6029 11.42 11.5063 11.3867 11.4263 11.32C11.3529 11.2467 11.3163 11.14 11.3163 11V10.21L12.9663 9.98L13.4062 6.95C13.4329 6.83667 13.4829 6.75 13.5563 6.69C13.6363 6.62333 13.7363 6.59 13.8563 6.59H14.8463V10H17.7263V11.42H14.8463V17.37C14.8463 17.77 14.9429 18.07 15.1363 18.27C15.3363 18.4633 15.5896 18.56 15.8963 18.56C16.0763 18.56 16.2296 18.5367 16.3563 18.49C16.4896 18.4433 16.6029 18.3933 16.6963 18.34C16.7896 18.28 16.8696 18.2267 16.9363 18.18C17.0029 18.1333 17.0629 18.11 17.1163 18.11C17.1829 18.11 17.2329 18.1267 17.2663 18.16C17.3063 18.1867 17.3463 18.2333 17.3863 18.3L17.9663 19.24C17.6463 19.5333 17.2663 19.76 16.8263 19.92C16.3863 20.08 15.9296 20.16 15.4563 20.16ZM26.1938 13.79C26.1938 13.4033 26.1371 13.0467 26.0238 12.72C25.9171 12.3933 25.7571 12.11 25.5438 11.87C25.3304 11.63 25.0704 11.4433 24.7638 11.31C24.4571 11.1767 24.1038 11.11 23.7038 11.11C22.8838 11.11 22.2371 11.3467 21.7638 11.82C21.2971 12.2933 21.0004 12.95 20.8738 13.79H26.1938ZM27.8038 18.55C27.5638 18.83 27.2871 19.0733 26.9738 19.28C26.6604 19.48 26.3271 19.6433 25.9738 19.77C25.6204 19.8967 25.2538 19.99 24.8738 20.05C24.5004 20.11 24.1304 20.14 23.7638 20.14C23.0638 20.14 22.4138 20.0233 21.8138 19.79C21.2204 19.55 20.7038 19.2033 20.2638 18.75C19.8304 18.29 19.4904 17.7233 19.2438 17.05C19.0038 16.37 18.8838 15.59 18.8838 14.71C18.8838 14.0033 18.9938 13.3467 19.2138 12.74C19.4338 12.1267 19.7471 11.5933 20.1538 11.14C20.5671 10.6867 21.0704 10.33 21.6638 10.07C22.2571 9.81 22.9238 9.68 23.6638 9.68C24.2838 9.68 24.8538 9.78333 25.3738 9.99C25.9004 10.19 26.3538 10.4833 26.7338 10.87C27.1138 11.2567 27.4104 11.7333 27.6238 12.3C27.8438 12.8667 27.9538 13.5133 27.9538 14.24C27.9538 14.54 27.9204 14.7433 27.8538 14.85C27.7871 14.95 27.6638 15 27.4838 15H20.8238C20.8438 15.6067 20.9304 16.1367 21.0838 16.59C21.2371 17.0367 21.4471 17.41 21.7138 17.71C21.9871 18.01 22.3104 18.2333 22.6838 18.38C23.0571 18.5267 23.4738 18.6 23.9338 18.6C24.3671 18.6 24.7404 18.55 25.0538 18.45C25.3738 18.35 25.6471 18.2433 25.8738 18.13C26.1071 18.01 26.3004 17.9 26.4538 17.8C26.6138 17.7 26.7538 17.65 26.8738 17.65C27.0338 17.65 27.1571 17.71 27.2438 17.83L27.8038 18.55ZM36.7797 13.79C36.7797 13.4033 36.723 13.0467 36.6097 12.72C36.503 12.3933 36.343 12.11 36.1297 11.87C35.9164 11.63 35.6564 11.4433 35.3497 11.31C35.043 11.1767 34.6897 11.11 34.2897 11.11C33.4697 11.11 32.823 11.3467 32.3497 11.82C31.883 12.2933 31.5864 12.95 31.4597 13.79H36.7797ZM38.3897 18.55C38.1497 18.83 37.873 19.0733 37.5597 19.28C37.2464 19.48 36.913 19.6433 36.5597 19.77C36.2064 19.8967 35.8397 19.99 35.4597 20.05C35.0864 20.11 34.7164 20.14 34.3497 20.14C33.6497 20.14 32.9997 20.0233 32.3997 19.79C31.8064 19.55 31.2897 19.2033 30.8497 18.75C30.4164 18.29 30.0764 17.7233 29.8297 17.05C29.5897 16.37 29.4697 15.59 29.4697 14.71C29.4697 14.0033 29.5797 13.3467 29.7997 12.74C30.0197 12.1267 30.333 11.5933 30.7397 11.14C31.153 10.6867 31.6564 10.33 32.2497 10.07C32.843 9.81 33.5097 9.68 34.2497 9.68C34.8697 9.68 35.4397 9.78333 35.9597 9.99C36.4864 10.19 36.9397 10.4833 37.3197 10.87C37.6997 11.2567 37.9964 11.7333 38.2097 12.3C38.4297 12.8667 38.5397 13.5133 38.5397 14.24C38.5397 14.54 38.5064 14.7433 38.4397 14.85C38.373 14.95 38.2497 15 38.0697 15H31.4097C31.4297 15.6067 31.5164 16.1367 31.6697 16.59C31.823 17.0367 32.033 17.41 32.2997 17.71C32.573 18.01 32.8964 18.2333 33.2697 18.38C33.643 18.5267 34.0597 18.6 34.5197 18.6C34.953 18.6 35.3264 18.55 35.6397 18.45C35.9597 18.35 36.233 18.2433 36.4597 18.13C36.693 18.01 36.8864 17.9 37.0397 17.8C37.1997 17.7 37.3397 17.65 37.4597 17.65C37.6197 17.65 37.743 17.71 37.8297 17.83L38.3897 18.55ZM42.4756 11.79C42.8023 11.1233 43.1956 10.6 43.6556 10.22C44.1156 9.84 44.669 9.65 45.3156 9.65C45.5356 9.65 45.7423 9.67667 45.9356 9.73C46.1356 9.77667 46.309 9.85 46.4556 9.95L46.3256 11.42C46.279 11.6 46.169 11.69 45.9956 11.69C45.9023 11.69 45.7623 11.6733 45.5756 11.64C45.389 11.6 45.189 11.58 44.9756 11.58C44.6623 11.58 44.3856 11.6267 44.1456 11.72C43.9056 11.8067 43.689 11.94 43.4956 12.12C43.309 12.2933 43.1423 12.51 42.9956 12.77C42.849 13.0233 42.7123 13.3133 42.5856 13.64V20H40.6356V9.84H41.7556C41.969 9.84 42.1123 9.88 42.1856 9.96C42.2656 10.0333 42.3223 10.1667 42.3556 10.36L42.4756 11.79ZM49.9998 9.84V20H48.0498V9.84H49.9998ZM50.3698 6.7C50.3698 6.88 50.3332 7.05333 50.2598 7.22C50.1865 7.38 50.0865 7.52333 49.9598 7.65C49.8398 7.77 49.6965 7.86667 49.5298 7.94C49.3632 8.00667 49.1898 8.04 49.0098 8.04C48.8298 8.04 48.6598 8.00667 48.4998 7.94C48.3398 7.86667 48.1965 7.77 48.0698 7.65C47.9498 7.52333 47.8532 7.38 47.7798 7.22C47.7132 7.05333 47.6798 6.88 47.6798 6.7C47.6798 6.51333 47.7132 6.34 47.7798 6.18C47.8532 6.01333 47.9498 5.87 48.0698 5.75C48.1965 5.62333 48.3398 5.52667 48.4998 5.46C48.6598 5.38667 48.8298 5.35 49.0098 5.35C49.1898 5.35 49.3632 5.38667 49.5298 5.46C49.6965 5.52667 49.8398 5.62333 49.9598 5.75C50.0865 5.87 50.1865 6.01333 50.2598 6.18C50.3332 6.34 50.3698 6.51333 50.3698 6.7ZM54.6531 11.25C54.8731 11.0167 55.1031 10.8033 55.3431 10.61C55.5831 10.4167 55.8365 10.2533 56.1031 10.12C56.3765 9.98 56.6665 9.87333 56.9731 9.8C57.2865 9.72 57.6198 9.68 57.9731 9.68C58.5331 9.68 59.0231 9.77333 59.4431 9.96C59.8698 10.1467 60.2265 10.41 60.5131 10.75C60.7998 11.0833 61.0165 11.4867 61.1631 11.96C61.3098 12.4333 61.3831 12.9567 61.3831 13.53V20H59.4231V13.53C59.4231 12.8033 59.2565 12.24 58.9231 11.84C58.5898 11.4333 58.0798 11.23 57.3931 11.23C56.8931 11.23 56.4231 11.35 55.9831 11.59C55.5498 11.8233 55.1465 12.1433 54.7731 12.55V20H52.8231V9.84H53.9931C54.2665 9.84 54.4365 9.97 54.5031 10.23L54.6531 11.25ZM67.5845 14.93C67.9312 14.93 68.2345 14.8833 68.4945 14.79C68.7612 14.6967 68.9812 14.5667 69.1545 14.4C69.3345 14.2267 69.4679 14.02 69.5545 13.78C69.6479 13.54 69.6945 13.2767 69.6945 12.99C69.6945 12.4033 69.5145 11.9367 69.1545 11.59C68.8012 11.2367 68.2779 11.06 67.5845 11.06C66.8979 11.06 66.3745 11.2367 66.0145 11.59C65.6612 11.9367 65.4845 12.4033 65.4845 12.99C65.4845 13.2767 65.5279 13.54 65.6145 13.78C65.7079 14.0133 65.8412 14.2167 66.0145 14.39C66.1945 14.5567 66.4145 14.69 66.6745 14.79C66.9412 14.8833 67.2445 14.93 67.5845 14.93ZM70.6945 20.53C70.6945 20.29 70.6279 20.1 70.4945 19.96C70.3612 19.8133 70.1779 19.7 69.9445 19.62C69.7179 19.5333 69.4512 19.4733 69.1445 19.44C68.8379 19.4 68.5145 19.37 68.1745 19.35C67.8412 19.33 67.4979 19.3133 67.1445 19.3C66.7912 19.28 66.4512 19.2467 66.1245 19.2C65.7779 19.3733 65.4912 19.5833 65.2645 19.83C65.0445 20.0767 64.9345 20.3667 64.9345 20.7C64.9345 20.9133 64.9879 21.1133 65.0945 21.3C65.2079 21.4867 65.3779 21.6467 65.6045 21.78C65.8379 21.92 66.1279 22.0267 66.4745 22.1C66.8279 22.18 67.2479 22.22 67.7345 22.22C68.2145 22.22 68.6379 22.1767 69.0045 22.09C69.3712 22.01 69.6779 21.8933 69.9245 21.74C70.1779 21.5933 70.3679 21.4167 70.4945 21.21C70.6279 21.0033 70.6945 20.7767 70.6945 20.53ZM72.6745 10.22V10.95C72.6745 11.19 72.5245 11.34 72.2245 11.4L71.1345 11.56C71.2279 11.7667 71.3012 11.9867 71.3545 12.22C71.4079 12.4467 71.4345 12.6867 71.4345 12.94C71.4345 13.44 71.3379 13.8933 71.1445 14.3C70.9512 14.7 70.6845 15.0433 70.3445 15.33C70.0045 15.6167 69.5979 15.8367 69.1245 15.99C68.6579 16.1433 68.1445 16.22 67.5845 16.22C67.1245 16.22 66.6945 16.17 66.2945 16.07C66.0945 16.19 65.9412 16.3233 65.8345 16.47C65.7345 16.61 65.6845 16.75 65.6845 16.89C65.6845 17.1233 65.7812 17.2967 65.9745 17.41C66.1745 17.5233 66.4312 17.6067 66.7445 17.66C67.0645 17.7067 67.4279 17.7367 67.8345 17.75C68.2479 17.7633 68.6645 17.7867 69.0845 17.82C69.5112 17.8467 69.9279 17.9 70.3345 17.98C70.7479 18.0533 71.1112 18.1767 71.4245 18.35C71.7445 18.5167 72.0012 18.75 72.1945 19.05C72.3945 19.3433 72.4945 19.7267 72.4945 20.2C72.4945 20.64 72.3845 21.0667 72.1645 21.48C71.9512 21.8933 71.6379 22.26 71.2245 22.58C70.8112 22.9 70.3079 23.1567 69.7145 23.35C69.1212 23.5433 68.4479 23.64 67.6945 23.64C66.9412 23.64 66.2845 23.5667 65.7245 23.42C65.1712 23.2733 64.7079 23.0767 64.3345 22.83C63.9679 22.5833 63.6912 22.2967 63.5045 21.97C63.3245 21.6433 63.2345 21.3033 63.2345 20.95C63.2345 20.4567 63.3879 20.04 63.6945 19.7C64.0012 19.3533 64.4245 19.0833 64.9645 18.89C64.6712 18.7567 64.4379 18.5767 64.2645 18.35C64.0912 18.1167 64.0045 17.81 64.0045 17.43C64.0045 17.2833 64.0312 17.1333 64.0845 16.98C64.1379 16.82 64.2179 16.6633 64.3245 16.51C64.4379 16.35 64.5745 16.2 64.7345 16.06C64.9012 15.92 65.0912 15.7933 65.3045 15.68C64.8045 15.4 64.4112 15.03 64.1245 14.57C63.8379 14.1033 63.6945 13.56 63.6945 12.94C63.6945 12.44 63.7912 11.99 63.9845 11.59C64.1779 11.19 64.4445 10.8467 64.7845 10.56C65.1312 10.2733 65.5412 10.0533 66.0145 9.9C66.4945 9.74667 67.0179 9.67 67.5845 9.67C68.4645 9.67 69.2212 9.85333 69.8545 10.22H72.6745ZM85.5123 11.59C85.459 11.6767 85.4023 11.74 85.3423 11.78C85.2823 11.8133 85.2057 11.83 85.1123 11.83C85.0057 11.83 84.8857 11.7933 84.7523 11.72C84.6257 11.6467 84.469 11.5667 84.2823 11.48C84.1023 11.3933 83.889 11.3133 83.6423 11.24C83.3957 11.1667 83.1023 11.13 82.7623 11.13C82.4823 11.13 82.2257 11.1667 81.9923 11.24C81.7657 11.3067 81.5723 11.4033 81.4123 11.53C81.2523 11.65 81.129 11.7967 81.0423 11.97C80.9557 12.1367 80.9123 12.3167 80.9123 12.51C80.9123 12.7633 80.9857 12.9733 81.1323 13.14C81.2857 13.3067 81.4823 13.45 81.7223 13.57C81.969 13.69 82.2457 13.8 82.5523 13.9C82.8657 13.9933 83.1823 14.0933 83.5023 14.2C83.829 14.3067 84.1457 14.43 84.4523 14.57C84.7657 14.7033 85.0423 14.8733 85.2823 15.08C85.529 15.28 85.7257 15.5233 85.8723 15.81C86.0257 16.0967 86.1023 16.4467 86.1023 16.86C86.1023 17.3333 86.0157 17.7733 85.8423 18.18C85.6757 18.58 85.4257 18.9267 85.0923 19.22C84.7657 19.5133 84.359 19.7433 83.8723 19.91C83.3857 20.0767 82.829 20.16 82.2023 20.16C81.5023 20.16 80.8557 20.0433 80.2623 19.81C79.669 19.5767 79.1723 19.28 78.7723 18.92L79.2323 18.17C79.2857 18.0767 79.3523 18.0067 79.4323 17.96C79.5123 17.9067 79.619 17.88 79.7523 17.88C79.879 17.88 80.009 17.9267 80.1423 18.02C80.2757 18.1133 80.4357 18.2167 80.6223 18.33C80.809 18.4367 81.0357 18.5367 81.3023 18.63C81.569 18.7167 81.9023 18.76 82.3023 18.76C82.6357 18.76 82.9257 18.72 83.1723 18.64C83.419 18.5533 83.6223 18.44 83.7823 18.3C83.949 18.1533 84.0723 17.9867 84.1523 17.8C84.2323 17.6133 84.2723 17.4167 84.2723 17.21C84.2723 16.9433 84.1957 16.7233 84.0423 16.55C83.8957 16.37 83.699 16.2167 83.4523 16.09C83.2123 15.9633 82.9357 15.8533 82.6223 15.76C82.309 15.6667 81.989 15.5667 81.6623 15.46C81.3357 15.3533 81.0157 15.23 80.7023 15.09C80.389 14.95 80.109 14.7733 79.8623 14.56C79.6223 14.3467 79.4257 14.0867 79.2723 13.78C79.1257 13.4733 79.0523 13.1 79.0523 12.66C79.0523 12.2667 79.1323 11.89 79.2923 11.53C79.459 11.17 79.6957 10.8533 80.0023 10.58C80.3157 10.3067 80.699 10.09 81.1523 9.93C81.6123 9.76333 82.1357 9.68 82.7223 9.68C83.3957 9.68 84.0023 9.78667 84.5423 10C85.089 10.2133 85.5557 10.5067 85.9423 10.88L85.5123 11.59ZM90.2538 9.84V20H88.3038V9.84H90.2538ZM90.6238 6.7C90.6238 6.88 90.5871 7.05333 90.5138 7.22C90.4404 7.38 90.3404 7.52333 90.2138 7.65C90.0938 7.77 89.9504 7.86667 89.7837 7.94C89.6171 8.00667 89.4438 8.04 89.2638 8.04C89.0838 8.04 88.9138 8.00667 88.7538 7.94C88.5938 7.86667 88.4504 7.77 88.3238 7.65C88.2038 7.52333 88.1071 7.38 88.0338 7.22C87.9671 7.05333 87.9338 6.88 87.9338 6.7C87.9338 6.51333 87.9671 6.34 88.0338 6.18C88.1071 6.01333 88.2038 5.87 88.3238 5.75C88.4504 5.62333 88.5938 5.52667 88.7538 5.46C88.9138 5.38667 89.0838 5.35 89.2638 5.35C89.4438 5.35 89.6171 5.38667 89.7837 5.46C89.9504 5.52667 90.0938 5.62333 90.2138 5.75C90.3404 5.87 90.4404 6.01333 90.5138 6.18C90.5871 6.34 90.6238 6.51333 90.6238 6.7ZM99.627 12.3C99.307 11.88 98.9604 11.5867 98.587 11.42C98.2204 11.2533 97.807 11.17 97.347 11.17C96.4537 11.17 95.7604 11.4933 95.267 12.14C94.7804 12.78 94.537 13.7167 94.537 14.95C94.537 15.5967 94.5904 16.15 94.697 16.61C94.8104 17.0633 94.9704 17.4367 95.177 17.73C95.3904 18.0167 95.6504 18.23 95.957 18.37C96.2637 18.5033 96.6104 18.57 96.997 18.57C97.5637 18.57 98.0537 18.4433 98.467 18.19C98.8804 17.9367 99.267 17.58 99.627 17.12V12.3ZM101.587 5.24V20H100.407C100.134 20 99.9637 19.87 99.897 19.61L99.727 18.44C99.2937 18.9533 98.8004 19.3667 98.247 19.68C97.7004 19.9867 97.067 20.14 96.347 20.14C95.767 20.14 95.2404 20.0267 94.767 19.8C94.3004 19.5733 93.9004 19.2433 93.567 18.81C93.2337 18.37 92.977 17.8267 92.797 17.18C92.617 16.5333 92.527 15.79 92.527 14.95C92.527 14.1967 92.627 13.4967 92.827 12.85C93.027 12.2033 93.317 11.6433 93.697 11.17C94.077 10.6967 94.537 10.3267 95.077 10.06C95.617 9.78667 96.227 9.65 96.907 9.65C97.5204 9.65 98.0404 9.75 98.467 9.95C98.9004 10.15 99.287 10.4333 99.627 10.8V5.24H101.587ZM111.038 13.79C111.038 13.4033 110.981 13.0467 110.868 12.72C110.761 12.3933 110.601 12.11 110.388 11.87C110.174 11.63 109.914 11.4433 109.608 11.31C109.301 11.1767 108.948 11.11 108.548 11.11C107.728 11.11 107.081 11.3467 106.608 11.82C106.141 12.2933 105.844 12.95 105.718 13.79H111.038ZM112.648 18.55C112.408 18.83 112.131 19.0733 111.818 19.28C111.504 19.48 111.171 19.6433 110.818 19.77C110.464 19.8967 110.098 19.99 109.718 20.05C109.344 20.11 108.974 20.14 108.608 20.14C107.908 20.14 107.258 20.0233 106.658 19.79C106.064 19.55 105.548 19.2033 105.108 18.75C104.674 18.29 104.334 17.7233 104.088 17.05C103.848 16.37 103.728 15.59 103.728 14.71C103.728 14.0033 103.838 13.3467 104.058 12.74C104.278 12.1267 104.591 11.5933 104.998 11.14C105.411 10.6867 105.914 10.33 106.508 10.07C107.101 9.81 107.768 9.68 108.508 9.68C109.128 9.68 109.698 9.78333 110.218 9.99C110.744 10.19 111.198 10.4833 111.578 10.87C111.958 11.2567 112.254 11.7333 112.468 12.3C112.688 12.8667 112.798 13.5133 112.798 14.24C112.798 14.54 112.764 14.7433 112.698 14.85C112.631 14.95 112.508 15 112.328 15H105.668C105.688 15.6067 105.774 16.1367 105.928 16.59C106.081 17.0367 106.291 17.41 106.558 17.71C106.831 18.01 107.154 18.2333 107.528 18.38C107.901 18.5267 108.318 18.6 108.778 18.6C109.211 18.6 109.584 18.55 109.898 18.45C110.218 18.35 110.491 18.2433 110.718 18.13C110.951 18.01 111.144 17.9 111.298 17.8C111.458 17.7 111.598 17.65 111.718 17.65C111.878 17.65 112.001 17.71 112.088 17.83L112.648 18.55Z" fill="#8F8F8F"/>
</g>
<defs>
<clipPath id="clip0_237_5718">
<rect width="40" height="40" fill="white"/>
</clipPath>
</defs>
</svg>
