<svg width="32" height="32" viewBox="0 0 32 32" fill="none" xmlns="http://www.w3.org/2000/svg">
<g clip-path="url(#clip0_237_5712)">
<path d="M25.05 12.7021L24.5819 10.6407C24.2698 10.5237 23.9651 10.3775 23.6678 10.2021C23.3705 10.0266 23.0937 9.82196 22.8372 9.58805L20.8798 10.2459L19.7308 8.2284L21.2202 6.73717C21.1634 6.38629 21.1351 6.03541 21.1351 5.68454C21.1351 5.33366 21.1634 4.98278 21.2202 4.6319L19.7308 3.2284L20.8798 1.21085L22.7947 1.78103C23.05 1.54711 23.3269 1.34243 23.6253 1.16699C23.9237 0.991553 24.2426 0.845355 24.5819 0.728396L25.05 -1.33301H27.3053L27.8159 0.684536C28.1564 0.830735 28.4758 0.991553 28.7742 1.16699C29.0727 1.34243 29.349 1.54711 29.6032 1.78103L31.5181 1.21085L32.667 3.2284L31.2202 4.6319C31.2769 4.98278 31.3127 5.34126 31.3274 5.70734C31.3422 6.07342 31.3064 6.43132 31.2202 6.78103L32.667 8.18454L31.5606 10.2021L29.6032 9.58805C29.3478 9.82196 29.0642 10.0266 28.7521 10.2021C28.44 10.3775 28.128 10.5237 27.8159 10.6407L27.3053 12.7021H25.05ZM26.1989 8.31611C26.9081 8.31611 27.5112 8.06056 28.0083 7.54945C28.5053 7.03834 28.7532 6.4167 28.7521 5.68454C28.751 4.95237 28.503 4.33132 28.0083 3.82138C27.5135 3.31144 26.9104 3.0553 26.1989 3.05296C25.4874 3.05062 24.8849 3.30676 24.3912 3.82138C23.8976 4.336 23.6491 4.95705 23.6457 5.68454C23.6423 6.41202 23.8908 7.03366 24.3912 7.54945C24.8917 8.06524 25.4942 8.32079 26.1989 8.31611ZM8.32657 23.2284C9.03579 23.2284 9.63891 22.9728 10.1359 22.4617C10.6329 21.9506 10.8809 21.329 10.8798 20.5968C10.8786 19.8647 10.6307 19.2436 10.1359 18.7337C9.64118 18.2237 9.03806 17.9676 8.32657 17.9652C7.61508 17.9629 7.01252 18.219 6.51891 18.7337C6.02529 19.2483 5.77678 19.8693 5.77338 20.5968C5.76997 21.3243 6.01848 21.9459 6.51891 22.4617C7.01933 22.9775 7.62189 23.2331 8.32657 23.2284ZM23.6457 23.2284C24.3549 23.2284 24.9581 22.9728 25.4551 22.4617C25.9521 21.9506 26.2 21.329 26.1989 20.5968C26.1978 19.8647 25.9498 19.2436 25.4551 18.7337C24.9603 18.2237 24.3572 17.9676 23.6457 17.9652C22.9342 17.9629 22.3317 18.219 21.8381 18.7337C21.3444 19.2483 21.0959 19.8693 21.0925 20.5968C21.0891 21.3243 21.3376 21.9459 21.8381 22.4617C22.3385 22.9775 22.941 23.2331 23.6457 23.2284ZM26.1989 16.2109C27.1067 16.2109 27.9935 16.0939 28.8593 15.86C29.7251 15.6261 30.5405 15.2752 31.3053 14.8073V32.0003H26.1989V28.4916H5.77338V32.0003H0.666992V16.2109L4.79465 3.93015H16.1564C16.0996 4.22255 16.0571 4.50793 16.0287 4.78629C16.0003 5.06465 15.9861 5.36407 15.9861 5.68454C15.9861 6.005 16.0003 6.305 16.0287 6.58454C16.0571 6.86407 16.0996 7.14886 16.1564 7.43892H7.22018L5.43295 12.7021H18.6244C19.6173 13.8132 20.7663 14.6758 22.0712 15.2898C23.3762 15.9038 24.7521 16.2109 26.1989 16.2109Z" fill="#262626"/>
</g>
<defs>
<clipPath id="clip0_237_5712">
<rect width="32" height="32" fill="white"/>
</clipPath>
</defs>
</svg>
