<svg width="54" height="37" viewBox="0 0 54 37" fill="none" xmlns="http://www.w3.org/2000/svg">
<path d="M9.41159 8.12865C9.43506 8.20495 9.46441 8.35755 9.48202 8.47493L9.51136 8.69209L9.22377 8.72731C9.07117 8.74492 8.44317 8.80361 7.8269 8.85056C7.21651 8.89752 6.60611 8.95034 6.47699 8.96795C6.34787 8.97968 6.10723 8.99142 5.93702 8.99142C5.61422 8.99729 5.4264 9.10881 5.49096 9.26728C5.50857 9.3201 5.64356 9.43161 5.78442 9.52552L6.04854 9.68399L5.29728 10.2592C3.67151 11.4976 2.30399 12.7008 2.37442 12.824C2.39789 12.8592 2.38616 12.871 2.35681 12.8534C2.28638 12.8123 2.14552 12.9473 2.19834 13.0001C2.21595 13.0177 2.19247 13.0294 2.14552 13.0236C2.034 13.0177 1.40013 13.6164 1.40013 13.7337C1.40013 13.7807 1.3297 13.9333 1.24753 14.0742C1.01863 14.4674 0.989286 15.0778 1.16536 15.6295C1.29448 16.0403 1.30035 16.0579 1.20645 16.3573C1.14775 16.5275 1.10667 16.7681 1.10667 16.8914C1.10667 17.0322 1.04211 17.2318 0.924725 17.4431C0.748649 17.7541 0.74278 17.7717 0.81321 18.0711C0.918856 18.4995 0.854295 18.7343 0.44932 19.4327C0.138252 19.9727 0.0971679 20.0783 0.126514 20.2779C0.144121 20.4188 0.126514 20.5714 0.0678219 20.6829C-0.00260853 20.8237 -0.0143469 20.9646 0.0149991 21.2698C0.0795603 21.9624 0.337805 23.0951 0.51975 23.4707C0.678219 23.7935 0.725172 23.8464 1.00102 23.9638C1.35905 24.1164 2.44485 24.3511 4.14692 24.6387C4.816 24.7561 5.42053 24.8559 5.48509 24.8735C5.60248 24.897 5.60835 24.8735 5.64356 24.2396C5.7316 22.4202 6.73523 20.765 8.35513 19.779C9.0653 19.3447 10.2039 19.0336 11.0667 19.0336C11.8356 19.0336 13.0035 19.333 13.5905 19.6792C13.702 19.7438 13.8252 19.779 13.8604 19.7614C13.9015 19.7379 13.9133 19.7379 13.8898 19.7673C13.8663 19.7908 14.0013 19.9199 14.1832 20.0549C14.8993 20.5831 15.5214 21.3167 15.9029 22.0856C16.3255 22.9366 16.484 23.5999 16.484 24.5331V25.1963H17.6167C19.2132 25.1963 33.2171 25.3019 36.1751 25.3371L38.6402 25.3665L38.6461 24.5918C38.6637 23.1068 39.098 21.9858 40.1016 20.8296C40.3129 20.5948 40.4655 20.3777 40.442 20.3483C40.4186 20.3248 40.4303 20.3248 40.4655 20.3425C40.5007 20.3659 40.6709 20.272 40.847 20.1429C42.7486 18.7167 45.29 18.6815 47.2034 20.0549C47.6142 20.3483 48.3068 21.0526 48.5709 21.44C48.9817 22.0445 49.3515 22.9719 49.463 23.6703C49.5334 24.1105 49.5393 25.0965 49.4747 25.5015L49.4278 25.7832H49.7271C50.4256 25.7773 51.8107 25.6658 51.9574 25.6013C52.0572 25.5543 52.11 25.4839 52.11 25.3958C52.11 25.2902 52.1628 25.255 52.4211 25.1904C53.0902 25.0319 53.4717 24.7737 53.5421 24.4157C53.6477 23.9285 53.6947 23.5294 53.7299 22.8897L53.771 22.1971L53.6125 22.0328C53.4775 21.8919 53.4599 21.8332 53.4893 21.6395C53.5128 21.4928 53.4717 21.1465 53.3719 20.677C53.2545 20.1077 53.1547 19.8142 52.9317 19.3564C52.6382 18.7754 52.6382 18.7636 52.6382 18.2119C52.6324 17.2494 52.5326 17.0264 51.9633 16.7094C51.3588 16.3749 49.6978 15.9053 46.4756 15.1658C44.6033 14.7374 44.2922 14.6787 42.1265 14.3735L39.9784 14.0624L39.2799 13.6927C38.8984 13.4872 38.423 13.2407 38.2294 13.1351C38.0357 13.0294 37.619 12.8064 37.3079 12.6421C36.991 12.4719 36.7034 12.3545 36.6682 12.378C36.6271 12.4014 36.6153 12.3956 36.6329 12.3603C36.674 12.2958 36.721 12.3193 34.3381 11.0809C32.2076 9.97745 31.7204 9.74855 30.9633 9.49031C29.1791 8.87991 28.2576 8.76252 23.1749 8.52189C21.7839 8.45733 16.9359 8.4808 12.8157 8.58058L11.231 8.61579L10.7967 8.42211C10.3859 8.24017 9.62288 7.99953 9.45267 7.99953C9.39398 7.99953 9.38224 8.03474 9.41159 8.12865ZM23.3275 9.51378C23.4038 9.56074 23.4507 9.97158 23.4977 10.9928C23.5153 11.3978 23.5446 11.926 23.5564 12.1667C23.5681 12.4073 23.5974 12.9473 23.6209 13.364L23.662 14.1211L22.5527 14.08C21.3085 14.0389 19.5829 13.9039 18.996 13.81C18.01 13.6574 15.6447 13.0764 15.3571 12.9238C15.2632 12.871 15.2514 12.7712 15.2514 11.791V10.7111L15.5449 10.2768C16.0966 9.46683 15.8912 9.56074 17.2587 9.52552C19.1662 9.4727 23.257 9.46683 23.3275 9.51378ZM26.6083 9.58421C28.1109 9.66051 29.4666 9.89528 30.4175 10.2533C30.7696 10.3883 32.2663 11.1278 33.534 11.8028C33.892 11.9906 34.4555 12.284 34.79 12.4601L35.4004 12.7771L35.0072 12.8416C34.79 12.8768 34.5846 12.9473 34.5552 12.9942C34.5259 13.0412 34.5024 13.3875 34.5024 13.769V14.4556L34.6961 14.573C34.8487 14.6669 34.8604 14.6904 34.7665 14.6904C34.3792 14.7022 25.9569 14.2561 25.9275 14.2267C25.904 14.2091 25.6751 13.229 25.411 12.0493C25.1469 10.8696 24.9063 9.81898 24.8769 9.71333L24.83 9.52552H25.1587C25.3406 9.53139 25.9979 9.55487 26.6083 9.58421ZM13.4555 10.9752C13.0505 11.5856 12.7101 12.0845 12.6983 12.0962C12.6749 12.1256 11.2193 11.5856 10.7967 11.3978C10.5854 11.3039 10.3213 11.1513 10.2098 11.0633C10.0924 10.9752 9.98677 10.9107 9.96916 10.9165C9.95155 10.9224 9.93395 10.8109 9.92221 10.67C9.91047 10.4352 9.92221 10.4 10.0807 10.3179C10.4152 10.1477 12.4518 9.90115 13.6844 9.88354L14.2009 9.87767L13.4555 10.9752ZM5.2738 14.0448C6.61785 14.0976 6.71762 14.1094 6.81153 14.2209C7.00522 14.4556 6.93479 14.5085 5.83724 14.9839C5.47922 15.1365 4.61058 15.518 3.90628 15.829C3.20197 16.1401 2.59745 16.3749 2.5681 16.3573C2.53289 16.3397 2.44485 16.2223 2.36855 16.099C2.22182 15.8701 2.18073 15.8408 1.79337 15.7762C1.60555 15.7469 1.55273 15.7058 1.47643 15.5238C1.42361 15.4065 1.38252 15.1423 1.38252 14.9428C1.37665 14.5085 1.54099 14.2267 1.89901 14.0448C2.11617 13.9333 2.21008 13.9274 2.98481 13.9568C3.45435 13.9744 4.48146 14.0155 5.2738 14.0448ZM48.0603 16.1929C48.4946 16.2458 49.0932 16.3338 49.3808 16.3984C50.2553 16.5862 52.0102 17.1027 52.1746 17.22C52.2626 17.2787 52.3624 17.4137 52.4035 17.5135C52.515 17.7717 52.38 18.3 52.1628 18.4584C52.0278 18.5641 51.9809 18.5641 51.5055 18.4995C51.0477 18.4291 50.989 18.435 50.8892 18.523C50.8305 18.5758 50.7425 18.6228 50.7014 18.6228C50.6545 18.6228 50.273 18.4174 49.8562 18.1591C48.9113 17.5898 48.9348 17.6015 47.5086 16.9501C46.863 16.6566 46.3112 16.3749 46.276 16.3221C46.2349 16.2516 46.2408 16.1988 46.2995 16.1342C46.3875 16.0227 46.6282 16.0345 48.0603 16.1929ZM52.2802 20.677C52.7908 20.8413 53.0315 20.9998 53.1665 21.2698C53.4482 21.8098 53.2193 22.0093 52.3624 21.9741C52.1218 21.9624 51.8929 21.6982 51.7637 21.2698C51.6111 20.7768 51.6111 20.7005 51.7461 20.6242C51.8752 20.5479 51.8459 20.542 52.2802 20.677ZM0.566704 20.7885C0.901248 20.9587 1.44121 21.4752 1.36491 21.5515C1.29448 21.6278 0.314328 21.4752 0.185206 21.3696C0.0912987 21.2933 0.0854295 20.8413 0.179337 20.7474C0.273244 20.6535 0.308459 20.6594 0.566704 20.7885Z" fill="#262626"/>
<path d="M43.272 19.7672C42.7027 19.867 42.4738 19.9492 41.9514 20.2133C39.95 21.2462 39.0168 23.5939 39.7622 25.7479C39.9911 26.417 40.2963 26.8865 40.8363 27.4324C41.3997 27.9958 41.9338 28.3304 42.6909 28.5827C43.1194 28.7295 43.2426 28.7412 44.0408 28.7412C44.8391 28.7412 44.9623 28.7295 45.3966 28.5827C48.3312 27.6085 49.5051 24.2454 47.803 21.6864C47.1222 20.6652 46.0657 19.9902 44.798 19.7672C44.1993 19.6616 43.8354 19.6616 43.272 19.7672ZM44.9682 21.2345C45.8192 21.4575 46.682 22.1501 47.0517 22.9072C47.6739 24.1808 47.4332 25.6423 46.4472 26.6342C45.1736 27.9019 43.2016 27.9019 41.9279 26.6342C41.2706 25.9827 40.9595 25.2549 40.9537 24.3687C40.9537 23.8111 41.0358 23.4648 41.2999 22.9131C41.6814 22.1266 42.5735 21.4047 43.3952 21.211C43.765 21.1289 44.5984 21.1406 44.9682 21.2345Z" fill="#262626"/>
<path d="M43.9583 21.6103C43.8527 21.6748 43.8938 23.0365 44.0111 23.2713C44.105 23.4708 44.1344 23.4708 44.2459 23.3006C44.3692 23.1187 44.4102 21.6807 44.2987 21.6103C44.1931 21.5457 44.064 21.5457 43.9583 21.6103Z" fill="#262626"/>
<path d="M44.9563 22.0975C44.9328 22.1738 44.8742 22.4496 44.8389 22.7196C44.7802 23.0952 44.7802 23.2302 44.8389 23.2948C44.8742 23.3417 44.927 23.377 44.9563 23.377C45.0678 23.377 45.6489 22.9485 45.6137 22.8898C45.5902 22.8546 45.6078 22.8487 45.6489 22.8722C45.7428 22.9309 45.9482 22.7489 45.9482 22.6081C45.9482 22.5142 45.1852 21.9683 45.0561 21.9683C45.0268 21.9683 44.9857 22.027 44.9563 22.0975Z" fill="#262626"/>
<path d="M42.5553 22.3611C42.1914 22.6487 42.1033 22.7543 42.1679 22.8541C42.2324 22.9597 43.1422 23.3823 43.2654 23.3647C43.3417 23.353 43.4004 23.3001 43.4122 23.2297C43.4356 23.0302 43.1128 22.1146 43.0072 22.097C42.9544 22.0852 42.7489 22.2085 42.5553 22.3611Z" fill="#262626"/>
<path d="M41.4749 23.4002C41.4397 23.4824 41.428 23.5822 41.4456 23.6233C41.4867 23.7348 42.6312 24.0811 42.9422 24.0811C43.2122 24.0811 43.265 23.993 43.0831 23.8287C42.9951 23.7524 41.7156 23.2594 41.5865 23.2594C41.563 23.2594 41.516 23.3239 41.4749 23.4002Z" fill="#262626"/>
<path d="M45.8647 23.4935C45.3365 23.6989 45.0078 23.9102 45.0078 24.0335C45.0078 24.145 45.5478 24.0687 46.1347 23.8691C46.7862 23.652 46.8331 23.6109 46.7334 23.3526C46.6805 23.2118 46.5045 23.2411 45.8647 23.4935Z" fill="#262626"/>
<path d="M45.7436 24.5565C45.368 24.6093 45.2213 24.7091 45.2741 24.8558C45.3328 25.0025 46.131 25.6129 46.2366 25.5953C46.3423 25.5777 46.6651 24.7032 46.6123 24.5682C46.5771 24.4802 46.2953 24.4802 45.7436 24.5565Z" fill="#262626"/>
<path d="M41.6689 24.6336C41.6161 24.6981 41.6337 24.8097 41.7511 25.1501C41.9741 25.7898 42.0211 25.8016 42.4672 25.3614C42.6667 25.1618 42.8193 24.9799 42.8017 24.9505C42.7841 24.9212 42.8017 24.9094 42.8487 24.9153C42.8897 24.927 42.9308 24.8742 42.9426 24.8038C42.9719 24.6218 42.7665 24.5514 42.1972 24.5514C41.8744 24.5514 41.7159 24.5749 41.6689 24.6336Z" fill="#262626"/>
<path d="M43.4238 25.155C43.283 25.2254 43.0423 25.5189 42.6197 26.1234C42.3791 26.4755 42.3967 26.6164 42.6784 26.6516C42.8134 26.6692 42.8721 26.6105 43.1656 26.1527C43.5295 25.5893 43.6175 25.3839 43.5881 25.2019C43.5705 25.0963 43.5529 25.0904 43.4238 25.155Z" fill="#262626"/>
<path d="M44.6562 25.2369C44.6621 25.4364 44.6973 25.501 45.1786 26.1525C45.384 26.4342 45.5836 26.6631 45.6247 26.6631C45.7127 26.6631 45.8888 26.4753 45.8888 26.3755C45.8888 26.2288 45.0964 25.3014 44.8793 25.1899L44.6562 25.0784V25.2369Z" fill="#262626"/>
<path d="M43.9585 25.6884C43.9233 25.7295 43.8118 25.976 43.7237 26.2342C43.5183 26.7977 43.5477 26.8975 43.9174 26.8975C44.0583 26.8975 44.293 26.8799 44.4456 26.8622C44.7861 26.8153 44.7861 26.7683 44.475 26.111C44.2285 25.6004 44.1111 25.5006 43.9585 25.6884Z" fill="#262626"/>
<path d="M10.2328 19.9781C7.97317 20.3537 6.32979 22.408 6.46478 24.6969C6.51173 25.4365 6.61738 25.8414 6.95779 26.5457C7.19256 27.0211 7.31582 27.1855 7.79122 27.6668C8.27249 28.1422 8.43683 28.2654 8.91224 28.5002C9.71632 28.8934 10.0861 28.9756 10.9958 28.9756C11.5475 28.9756 11.8644 28.9462 12.1344 28.8699C15.5503 27.9309 16.6831 23.7461 14.2004 21.2576C13.1498 20.207 11.6884 19.7316 10.2328 19.9781ZM11.6708 21.4043C12.3398 21.5217 12.8563 21.7976 13.3728 22.3199C14.0595 23.0066 14.3295 23.6522 14.3295 24.6089C14.3236 25.5597 13.9774 26.3168 13.2437 26.9859C13.0559 27.1561 12.7331 27.3733 12.5335 27.4731C12.1755 27.6491 11.4243 27.837 11.1014 27.837C10.6026 27.8311 9.6048 27.4907 9.2233 27.1913C9.14114 27.1268 9.04723 27.0916 9.00614 27.115C8.97093 27.1327 8.95919 27.1268 8.98854 27.1033C9.01201 27.074 8.92984 26.9448 8.80072 26.8157C7.86165 25.8532 7.63862 24.3272 8.25489 23.1123C8.33119 22.9479 8.46031 22.7366 8.53661 22.6369C8.61291 22.5371 8.65986 22.4373 8.63052 22.408C8.60704 22.3786 8.61878 22.3786 8.65399 22.3962C8.68921 22.4197 8.78311 22.3669 8.85941 22.2847C9.23504 21.8797 10.0391 21.4747 10.6437 21.3808C11.0721 21.3163 11.1836 21.3163 11.6708 21.4043Z" fill="#262626"/>
<path d="M10.8917 21.8279C10.8682 21.8514 10.8506 22.1742 10.8506 22.5498C10.8506 23.0781 10.8799 23.2835 10.9562 23.4654L11.0619 23.7002L11.1793 23.5241C11.2732 23.3774 11.2908 23.2483 11.2908 22.585V21.8221L11.1147 21.8044C11.0149 21.7927 10.9151 21.8044 10.8917 21.8279Z" fill="#262626"/>
<path d="M11.924 22.2731C11.8477 22.367 11.7068 23.4117 11.7596 23.4938C11.8359 23.6171 12.0472 23.5467 12.4698 23.2532C12.7515 23.0595 12.9041 22.9128 12.9041 22.8424C12.9041 22.7661 12.7632 22.6369 12.4933 22.4667C12.0472 22.1791 12.0061 22.1674 11.924 22.2731Z" fill="#262626"/>
<path d="M9.45342 22.62C9.23039 22.8078 9.08953 22.9604 9.10127 23.0191C9.12474 23.1482 10.0169 23.6118 10.2047 23.5942C10.3338 23.5825 10.3514 23.559 10.3397 23.3771C10.3338 23.2656 10.2634 22.9838 10.1929 22.7608C10.0227 22.2385 9.94643 22.2267 9.45342 22.62Z" fill="#262626"/>
<path d="M8.4322 23.6346C8.39698 23.7168 8.38524 23.8165 8.39698 23.8576C8.43806 23.9574 9.60017 24.3154 9.87602 24.3154C10.146 24.3154 10.1988 24.2098 10.011 24.0454C9.88776 23.9398 8.70218 23.4937 8.54371 23.4937C8.52023 23.4937 8.47328 23.5583 8.4322 23.6346Z" fill="#262626"/>
<path d="M12.8172 23.7047C12.3124 23.9042 11.9368 24.1625 12.0014 24.2681C12.0659 24.3679 12.4768 24.3092 13.093 24.0979C13.7387 23.8749 13.7856 23.8338 13.6917 23.5873C13.6389 23.4464 13.4041 23.4758 12.8172 23.7047Z" fill="#262626"/>
<path d="M12.8703 24.7562C12.2657 24.8384 12.2012 24.8618 12.2012 25.0203C12.2012 25.1729 13.0463 25.842 13.1989 25.8009C13.4044 25.7481 13.6509 24.7327 13.463 24.6975C13.4337 24.6858 13.1637 24.7151 12.8703 24.7562Z" fill="#262626"/>
<path d="M8.61876 24.8727C8.51312 25.0018 8.83005 25.8587 8.99439 25.8881C9.06482 25.9057 9.23503 25.7765 9.50501 25.5124C10.1037 24.9138 10.0567 24.7847 9.22916 24.7847C8.81831 24.7847 8.67158 24.8081 8.61876 24.8727Z" fill="#262626"/>
<path d="M10.3108 25.4184C10.1172 25.5417 9.48916 26.4221 9.53611 26.4984C9.55372 26.5277 9.53611 26.5394 9.49503 26.5336C9.39525 26.5101 9.36004 26.7096 9.44221 26.8094C9.48329 26.8564 9.5772 26.8975 9.64763 26.8975C9.75327 26.8975 9.85892 26.7742 10.1406 26.3399C10.3519 26.0053 10.5104 25.6884 10.5339 25.5475C10.575 25.2834 10.5397 25.2658 10.3108 25.4184Z" fill="#262626"/>
<path d="M11.6133 25.4898C11.6133 25.5895 11.6368 25.66 11.6661 25.6424C11.6955 25.6248 11.7131 25.6482 11.7072 25.7011C11.7072 25.748 11.8715 26.0239 12.0828 26.3115C12.4643 26.8397 12.611 26.9336 12.7754 26.7692C12.8986 26.646 12.8517 26.5404 12.435 26.018C12.0769 25.5778 11.9537 25.4663 11.6602 25.3254C11.6309 25.3137 11.6133 25.39 11.6133 25.4898Z" fill="#262626"/>
<path d="M10.8446 26.0001C10.5687 26.6985 10.4983 26.9274 10.5218 26.9978C10.5687 27.1211 11.6017 27.1093 11.6545 26.9802C11.6721 26.9274 11.5782 26.6633 11.4432 26.3816C11.2437 25.959 11.1791 25.8651 11.0559 25.8533C10.9385 25.8357 10.8974 25.8709 10.8446 26.0001Z" fill="#262626"/>
</svg>
