<svg width="40" height="40" viewBox="0 0 40 40" fill="none" xmlns="http://www.w3.org/2000/svg">
<path d="M20.0002 31.8324C26.5349 31.8324 31.8324 26.5349 31.8324 20.0002C31.8324 13.4654 26.5349 8.16797 20.0002 8.16797C13.4654 8.16797 8.16797 13.4654 8.16797 20.0002C8.16797 26.5349 13.4654 31.8324 20.0002 31.8324Z" fill="white"/>
<path d="M20.0005 4.48438C11.431 4.48438 4.48438 11.431 4.48438 20.0005C4.48438 28.5699 11.431 35.5166 20.0005 35.5166C28.5699 35.5166 35.5166 28.5699 35.5166 20.0005C35.5166 11.431 28.5699 4.48438 20.0005 4.48438ZM20.0005 31.6205C13.5833 31.6205 8.38049 26.4177 8.38049 20.0005C8.38049 13.5833 13.5838 8.38049 20.0005 8.38049C26.4172 8.38049 31.6205 13.5838 31.6205 20.0005C31.6205 26.4172 26.4172 31.6205 20.0005 31.6205Z" fill="#262626"/>
<path d="M19.9994 16.2461C19.004 16.2461 18.0493 16.6415 17.3454 17.3454C16.6415 18.0493 16.2461 19.004 16.2461 19.9994C16.2461 20.9949 16.6415 21.9495 17.3454 22.6534C18.0493 23.3573 19.004 23.7528 19.9994 23.7528C20.9949 23.7528 21.9495 23.3573 22.6534 22.6534C23.3573 21.9495 23.7528 20.9949 23.7528 19.9994C23.7528 19.004 23.3573 18.0493 22.6534 17.3454C21.9495 16.6415 20.9949 16.2461 19.9994 16.2461ZM19.9994 21.6661C19.5574 21.6661 19.1335 21.4905 18.8209 21.1779C18.5084 20.8654 18.3328 20.4415 18.3328 19.9994C18.3328 19.5574 18.5084 19.1335 18.8209 18.8209C19.1335 18.5084 19.5574 18.3328 19.9994 18.3328C20.4415 18.3328 20.8654 18.5084 21.1779 18.8209C21.4905 19.1335 21.6661 19.5574 21.6661 19.9994C21.6661 20.4415 21.4905 20.8654 21.1779 21.1779C20.8654 21.4905 20.4415 21.6661 19.9994 21.6661Z" fill="#262626"/>
<path d="M20.0005 35.5166C28.5698 35.5166 35.5166 28.5698 35.5166 20.0005C35.5166 11.4312 28.5698 4.48438 20.0005 4.48438C11.4312 4.48438 4.48438 11.4312 4.48438 20.0005C4.48438 28.5698 11.4312 35.5166 20.0005 35.5166Z" stroke="#8F8F8F" stroke-width="1.11111" stroke-miterlimit="10"/>
<path d="M20.0002 31.8324C26.5349 31.8324 31.8324 26.5349 31.8324 20.0002C31.8324 13.4654 26.5349 8.16797 20.0002 8.16797C13.4654 8.16797 8.16797 13.4654 8.16797 20.0002C8.16797 26.5349 13.4654 31.8324 20.0002 31.8324Z" stroke="#8F8F8F" stroke-width="1.11111" stroke-miterlimit="10"/>
<path d="M11.6849 28.317L17.3466 22.6554M23.0438 31.3604L20.9722 23.627M31.3594 23.0448L23.626 20.9731M28.316 11.6859L22.6544 17.3476M16.9566 8.64258L19.0294 16.3765M8.6416 16.9576L16.3744 19.0298" stroke="#8F8F8F" stroke-width="1.11111" stroke-miterlimit="10" stroke-linecap="round"/>
<path d="M20.0004 23.7547C22.0733 23.7547 23.7537 22.0743 23.7537 20.0014C23.7537 17.9285 22.0733 16.248 20.0004 16.248C17.9275 16.248 16.2471 17.9285 16.2471 20.0014C16.2471 22.0743 17.9275 23.7547 20.0004 23.7547Z" stroke="#8F8F8F" stroke-width="1.11111" stroke-miterlimit="10"/>
<path d="M19.9997 21.6673C20.9201 21.6673 21.6663 20.9211 21.6663 20.0007C21.6663 19.0802 20.9201 18.334 19.9997 18.334C19.0792 18.334 18.333 19.0802 18.333 20.0007C18.333 20.9211 19.0792 21.6673 19.9997 21.6673Z" stroke="#8F8F8F" stroke-width="1.11111" stroke-miterlimit="10"/>
</svg>
