<svg width="111" height="40" viewBox="0 0 111 40" fill="none" xmlns="http://www.w3.org/2000/svg">
<path d="M27.5753 15.8958L33.4953 14.7899L29.9704 13.6841L33.4953 10.3666H31.1454V9.26074H60.6548L61.8297 10.3666H60.6548L67.7497 14.8325H65.3998L59.4346 10.324H41.7652L39.3701 14.7899L49.9898 15.8958V11.4299H51.1648L52.3397 15.8958H80.6742L83.0241 18.1074H80.6742L81.8491 20.3191H84.199V21.425L81.8491 22.5308H84.199V25.8483L80.6742 28.06H80.2223C81.4424 25.0402 79.8607 21.6376 76.6522 20.4892C73.4437 19.3409 69.8284 20.8295 68.6083 23.8493C68.066 25.2103 68.066 26.699 68.6083 28.06H45.0189C46.239 25.0402 44.6573 21.6376 41.4488 20.4892C38.2403 19.3409 34.6251 20.8295 33.4049 23.8493C32.8626 25.2103 32.8626 26.699 33.4049 28.06H32.2752L26.4004 24.785V22.5733H31.1002L27.5753 21.4675V15.8958ZM39.2345 21.2548C42.0363 21.2548 44.2958 23.3814 44.2958 25.9759C44.2958 27.3795 43.618 28.7405 42.4882 29.6337H71.2293C69.1054 27.9324 68.8343 24.9551 70.5967 22.9561C72.4043 20.9571 75.5676 20.7019 77.6916 22.3607C79.8155 24.062 80.0867 27.0392 78.3243 29.0382C78.1435 29.2509 77.9175 29.4635 77.6916 29.6337H81.8943V30.7395H27.5753V29.6337H35.9808C33.8568 27.9324 33.5857 24.9551 35.3481 22.9561C36.2971 21.8928 37.7432 21.2548 39.2345 21.2548ZM36.5231 25.9759C36.5231 27.3795 37.7432 28.4853 39.1893 28.4853C40.6354 28.4853 41.8555 27.3369 41.8555 25.9759C41.8555 24.6149 40.6354 23.4665 39.1893 23.4665C37.7432 23.4665 36.5231 24.6149 36.5231 25.9759ZM40.7258 25.9759C40.7258 26.7415 40.0479 27.3795 39.2345 27.3795C38.4211 27.3795 37.698 26.784 37.698 25.9759C37.698 25.1678 38.3759 24.5723 39.1893 24.5723C40.0479 24.5723 40.7258 25.2103 40.7258 25.9759ZM71.7716 25.9759C71.7716 27.3795 72.9918 28.4853 74.4379 28.4853C75.884 28.4853 77.1041 27.3369 77.1041 25.9759C77.1041 24.6149 75.884 23.4665 74.4379 23.4665C72.9918 23.4665 71.7716 24.6149 71.7716 25.9759ZM75.9292 25.9759C75.9292 26.7415 75.2513 27.3795 74.4379 27.3795C73.6244 27.3795 72.9466 26.784 72.9466 25.9759C72.9466 25.1678 73.6244 24.5723 74.4379 24.5723C75.2513 24.5723 75.9292 25.2103 75.9292 25.9759Z" fill="#262626"/>
</svg>
