<svg width="40" height="40" viewBox="0 0 40 40" fill="none" xmlns="http://www.w3.org/2000/svg">
<path d="M19.9997 19.1663C18.8946 19.1663 17.8348 18.7274 17.0534 17.946C16.272 17.1646 15.833 16.1047 15.833 14.9997C15.833 13.8946 16.272 12.8348 17.0534 12.0534C17.8348 11.272 18.8946 10.833 19.9997 10.833C21.1047 10.833 22.1646 11.272 22.946 12.0534C23.7274 12.8348 24.1663 13.8946 24.1663 14.9997C24.1663 15.5468 24.0586 16.0887 23.8492 16.5942C23.6398 17.0997 23.3329 17.559 22.946 17.946C22.559 18.3329 22.0997 18.6398 21.5942 18.8492C21.0887 19.0586 20.5468 19.1663 19.9997 19.1663ZM19.9997 3.33301C16.9055 3.33301 13.938 4.56217 11.7501 6.7501C9.56217 8.93802 8.33301 11.9055 8.33301 14.9997C8.33301 23.7497 19.9997 36.6663 19.9997 36.6663C19.9997 36.6663 31.6663 23.7497 31.6663 14.9997C31.6663 11.9055 30.4372 8.93802 28.2493 6.7501C26.0613 4.56217 23.0939 3.33301 19.9997 3.33301Z" fill="#262626"/>
</svg>
