<svg width="40" height="40" viewBox="0 0 40 40" fill="none" xmlns="http://www.w3.org/2000/svg">
<path d="M20.0038 5.1377C17.7787 5.1377 15.6566 5.58066 13.7199 6.38211L13.7034 6.38829L13.6952 6.39241C9.69219 8.06244 6.50392 11.2359 4.81529 15.2311L4.78233 15.2929C4.77134 15.3231 4.7631 15.3526 4.75761 15.3815C3.13385 19.3628 3.13015 23.821 4.74731 27.805C4.75555 27.8462 4.76722 27.8861 4.78233 27.9245C4.80156 27.9644 4.82216 28.0021 4.84414 28.0379C5.02751 28.4664 5.21911 28.8888 5.43544 29.2967L5.55082 29.4718C5.71368 29.667 5.94295 29.7951 6.19453 29.8314C6.44612 29.8677 6.70225 29.8098 6.91368 29.6686C7.1251 29.5275 7.27689 29.3132 7.33984 29.0669C7.40279 28.8207 7.37246 28.5598 7.25468 28.3345L7.12488 28.0667L9.92688 26.9026C10.0579 26.8554 10.178 26.7821 10.2799 26.6871C10.3818 26.5921 10.4634 26.4774 10.5197 26.35C10.576 26.2226 10.6059 26.0851 10.6075 25.9458C10.6092 25.8065 10.5826 25.6683 10.5293 25.5396C10.4761 25.4109 10.3972 25.2943 10.2976 25.197C10.198 25.0996 10.0797 25.0234 9.94981 24.9731C9.81993 24.9227 9.68119 24.8992 9.54197 24.904C9.40275 24.9088 9.26596 24.9418 9.13985 25.001L6.31725 26.1671C5.33211 23.2113 5.33356 20.0155 6.32137 17.0606L9.14397 18.2267C9.39535 18.3256 9.67551 18.3218 9.92409 18.2161C10.1727 18.1104 10.3698 17.9113 10.473 17.6616C10.5762 17.412 10.5772 17.1318 10.4758 16.8815C10.3745 16.6311 10.1788 16.4305 9.931 16.323L7.129 15.159C8.52271 12.3793 10.7775 10.1246 13.5571 8.73085L14.7212 11.5534C14.8287 11.8013 15.0292 11.9969 15.2796 12.0983C15.53 12.1997 15.8102 12.1986 16.0598 12.0954C16.3094 11.9922 16.5085 11.7951 16.6142 11.5465C16.7199 11.298 16.7238 11.0178 16.6249 10.7664L15.4608 7.94381C18.4167 6.96031 21.6115 6.96031 24.5673 7.94381L23.3971 10.7664C23.2927 11.0189 23.2929 11.3024 23.3976 11.5547C23.5023 11.807 23.703 12.0074 23.9554 12.1118C24.0804 12.1635 24.2144 12.19 24.3496 12.1899C24.4849 12.1898 24.6188 12.1631 24.7437 12.1113C24.9961 12.0065 25.1964 11.8059 25.3008 11.5534L26.471 8.73085C29.2563 10.1335 31.5171 12.3943 32.9198 15.1796L30.0972 16.3539C29.9673 16.4022 29.8486 16.4762 29.748 16.5714C29.6475 16.6667 29.5671 16.7812 29.5118 16.9082C29.4565 17.0352 29.4274 17.172 29.4262 17.3105C29.425 17.449 29.4518 17.5863 29.5048 17.7143C29.5579 17.8422 29.6363 17.9581 29.7352 18.0551C29.8341 18.152 29.9515 18.228 30.0805 18.2786C30.2094 18.3291 30.3473 18.3531 30.4857 18.3492C30.6242 18.3452 30.7604 18.3134 30.8862 18.2556L33.7089 17.0833C34.3605 19.0474 34.5818 21.1287 34.3578 23.1859L36.2739 24.3664C36.425 23.4791 36.5006 22.5657 36.5006 21.6262C36.5006 12.5197 29.1247 5.14388 20.0182 5.14388L20.0038 5.1377Z" fill="#262626"/>
<path d="M21.9607 17.9731C21.4825 17.7202 20.9591 17.5642 20.4205 17.5139C19.8819 17.4636 19.3387 17.5201 18.8219 17.6801C18.3052 17.8401 17.8251 18.1005 17.4091 18.4463C16.9932 18.7922 16.6495 19.2167 16.3979 19.6955C16.145 20.1737 15.989 20.6971 15.9387 21.2357C15.8884 21.7743 15.9449 22.3176 16.1049 22.8343C16.2649 23.351 16.5253 23.8311 16.8711 24.2471C17.217 24.663 17.6415 25.0067 18.1203 25.2583C19.5563 26.0144 21.2314 25.8373 22.4675 24.9451L33.2841 29.7662C33.5234 29.8758 33.7956 29.8896 34.0447 29.8049C34.2939 29.7201 34.5012 29.5432 34.624 29.3104C34.7469 29.0776 34.776 28.8067 34.7053 28.5531C34.6347 28.2996 34.4697 28.0827 34.2442 27.947L24.1487 21.7249C24.171 20.9556 23.9785 20.1953 23.5927 19.5293C23.207 18.8633 22.6433 18.318 21.9648 17.9546L21.9607 17.9731Z" fill="#262626"/>
</svg>
