<svg width="40" height="40" viewBox="0 0 40 40" fill="none" xmlns="http://www.w3.org/2000/svg">
<path d="M6.10059 15.969C6.10059 13.3476 6.10059 12.0382 6.9151 11.2237C7.72962 10.4092 9.03896 10.4092 11.6604 10.4092H28.3399C30.9614 10.4092 32.2707 10.4092 33.0852 11.2237C33.8997 12.0382 33.8997 13.3476 33.8997 15.969C33.8997 16.6237 33.8997 16.9517 33.6968 17.156C33.4925 17.359 33.1631 17.359 32.5098 17.359H7.49054C6.83587 17.359 6.50784 17.359 6.30352 17.156C6.10059 16.9517 6.10059 16.6223 6.10059 15.969ZM6.10059 28.4786C6.10059 31.1001 6.10059 32.4094 6.9151 33.2239C7.72962 34.0385 9.03896 34.0385 11.6604 34.0385H28.3399C30.9614 34.0385 32.2707 34.0385 33.0852 33.2239C33.8997 32.4094 33.8997 31.1001 33.8997 28.4786V21.5288C33.8997 20.8742 33.8997 20.5461 33.6968 20.3418C33.4925 20.1389 33.1631 20.1389 32.5098 20.1389H7.49054C6.83587 20.1389 6.50784 20.1389 6.30352 20.3418C6.10059 20.5461 6.10059 20.8756 6.10059 21.5288V28.4786Z" fill="#262626"/>
<path d="M13.0508 7.62891V11.7988M26.9504 7.62891V11.7988" stroke="#262626" stroke-width="5.58333" stroke-linecap="round"/>
</svg>
