<svg width="40" height="40" viewBox="0 0 40 40" fill="none" xmlns="http://www.w3.org/2000/svg">
<path fill-rule="evenodd" clip-rule="evenodd" d="M23.4116 9.245C24.0916 9.455 24.7416 9.725 25.3616 10.055L28.1111 8.405C28.3978 8.23304 28.7337 8.16179 29.0656 8.20255C29.3974 8.24332 29.7061 8.39376 29.9426 8.63L31.4696 10.157C31.7058 10.3936 31.8563 10.7022 31.8971 11.0341C31.9378 11.3659 31.8666 11.7018 31.6946 11.9885L30.0446 14.738C30.3746 15.358 30.6446 16.008 30.8546 16.688L33.9641 17.4665C34.2885 17.5478 34.5764 17.7351 34.7821 17.9987C34.9879 18.2623 35.0996 18.5871 35.0996 18.9215V21.0785C35.0996 21.4129 34.9879 21.7377 34.7821 22.0013C34.5764 22.2649 34.2885 22.4522 33.9641 22.5335L30.8546 23.312C30.6446 23.992 30.3746 24.642 30.0446 25.262L31.6946 28.0115C31.8666 28.2982 31.9378 28.6341 31.8971 28.9659C31.8563 29.2978 31.7058 29.6064 31.4696 29.843L29.9426 31.37C29.7061 31.6062 29.3974 31.7567 29.0656 31.7974C28.7337 31.8382 28.3978 31.767 28.1111 31.595L25.3616 29.945C24.7416 30.275 24.0916 30.545 23.4116 30.755L22.6331 33.8645C22.5519 34.1889 22.3645 34.4768 22.1009 34.6825C21.8373 34.8882 21.5125 35 21.1781 35H19.0211C18.6867 35 18.3619 34.8882 18.0983 34.6825C17.8347 34.4768 17.6474 34.1889 17.5661 33.8645L16.7876 30.755C16.1137 30.5467 15.4608 30.2755 14.8376 29.945L12.0881 31.595C11.8014 31.767 11.4655 31.8382 11.1337 31.7974C10.8019 31.7567 10.4932 31.6062 10.2566 31.37L8.72961 29.843C8.49337 29.6064 8.34293 29.2978 8.30216 28.9659C8.2614 28.6341 8.33265 28.2982 8.50461 28.0115L10.1546 25.262C9.82407 24.6388 9.55288 23.986 9.34461 23.312L6.23511 22.5335C5.91099 22.4523 5.62326 22.2652 5.41755 22.0019C5.21185 21.7386 5.09995 21.4141 5.09961 21.08V18.923C5.09962 18.5886 5.21136 18.2638 5.41709 18.0002C5.62282 17.7366 5.91074 17.5493 6.23511 17.468L9.34461 16.6895C9.55461 16.0095 9.82461 15.3595 10.1546 14.7395L8.50461 11.99C8.33265 11.7033 8.2614 11.3674 8.30216 11.0356C8.34293 10.7037 8.49337 10.3951 8.72961 10.1585L10.2566 8.63C10.4932 8.39376 10.8019 8.24332 11.1337 8.20255C11.4655 8.16179 11.8014 8.23304 12.0881 8.405L14.8376 10.055C15.4576 9.725 16.1076 9.455 16.7876 9.245L17.5661 6.1355C17.6473 5.81138 17.8344 5.52365 18.0977 5.31794C18.361 5.11224 18.6855 5.00034 19.0196 5H21.1766C21.511 5.00001 21.8358 5.11175 22.0994 5.31748C22.363 5.52321 22.5504 5.81113 22.6316 6.1355L23.4116 9.245ZM20.0996 26C21.6909 26 23.217 25.3679 24.3423 24.2426C25.4675 23.1174 26.0996 21.5913 26.0996 20C26.0996 18.4087 25.4675 16.8826 24.3423 15.7574C23.217 14.6321 21.6909 14 20.0996 14C18.5083 14 16.9822 14.6321 15.857 15.7574C14.7318 16.8826 14.0996 18.4087 14.0996 20C14.0996 21.5913 14.7318 23.1174 15.857 24.2426C16.9822 25.3679 18.5083 26 20.0996 26Z" fill="#262626"/>
</svg>
